<svg width="100" height="98" viewBox="0 0 100 98" fill="none" xmlns="http://www.w3.org/2000/svg">
<path d="M99.7465 16.2229L22.7644 93.2878L6.79736 77.1823L83.6619 0.123779L99.7465 16.2229Z" fill="black"/>
<path d="M4.19861 15.1144L82.1772 92.9163L98.268 76.9347L21.1558 0L4.19861 16.9727L5.1284 16.0421L4.19861 15.1144Z" fill="black"/>
<path d="M97.7465 18.2229L20.7644 95.2878L4.79736 79.1823L81.6619 2.12378L97.7465 18.2229Z" fill="#FFD102"/>
<path d="M2.19873 17.1144L80.1773 94.9163L96.2682 78.9347L19.156 2L2.19873 18.9727L3.12852 18.0421L2.19873 17.1144Z" fill="#FFD102"/>
<path d="M3.12004 18.0337L80.1773 94.9163L96.2681 78.9347L19.1559 2L3.12004 18.0337Z" fill="#FFD102"/>
<path d="M95.5 20.5L18.3376 97.7212L2.37061 81.6157L79.2352 4.55713L95.5 20.5Z" fill="#4472F2"/>
<path d="M0.733765 20.2736L77.8548 97.7212L93.9457 81.6157L16.9573 4.55713L0.733735 20.3314L0.733765 20.2736Z" fill="#4472F2"/>
</svg>
