<svg width="71" height="130" viewBox="0 0 71 130" fill="none" xmlns="http://www.w3.org/2000/svg">
<path fill-rule="evenodd" clip-rule="evenodd" d="M43.8312 1.23092L42.573 2.18171L42.0148 10.3359L41.4565 18.49L39.9509 18.4524C39.093 18.4309 37.9591 18.8104 37.315 19.3346C36.0547 20.3607 34.9758 23.0886 35.2064 24.6653C35.2922 25.2487 34.8569 26.5978 34.2033 27.7762C32.7892 30.3254 32.6387 31.3553 33.8708 30.0479C34.5612 29.3156 34.863 29.2242 35.0854 29.6796C35.2805 30.0786 35.2172 30.1603 34.9022 29.9191C34.6211 29.7046 34.3946 29.8263 34.356 30.2126C34.3196 30.5755 33.8918 30.9564 33.4054 31.0583C32.1936 31.3134 30.355 34.9347 31.1344 35.5307C31.4382 35.7632 31.9845 35.8715 32.3489 35.7721C32.9087 35.6198 32.9079 35.7257 32.3437 36.4545C31.9762 36.929 31.5438 37.2165 31.3821 37.093C31.2204 36.9696 31.1529 37.2775 31.2317 37.7775C31.312 38.2856 31.1568 38.6643 30.8804 38.6366C30.6079 38.6094 30.4144 38.1373 30.4492 37.5879C30.543 36.1187 28.5223 39.5873 28.3458 41.1988C28.2715 41.8792 27.8445 42.9981 27.3967 43.6849C26.9494 44.3714 26.2635 46.0525 25.8719 47.4208C25.4292 48.969 24.6392 50.4471 23.7802 51.3346C23.0211 52.119 22.1192 53.181 21.7761 53.6941C21.433 54.2073 20.6091 55.0711 19.9453 55.6134C18.4697 56.8191 18.1382 58.7994 19.3376 59.2444C19.7958 59.4145 20.2501 59.8434 20.3466 60.1977C20.4437 60.5515 20.7223 60.8614 20.966 60.8858C21.2097 60.9102 21.3242 60.62 21.2207 60.2409C21.1168 59.8618 21.2362 59.572 21.4856 59.597C21.7351 59.6219 21.9982 59.8995 22.07 60.2141C22.1722 60.6601 22.3768 60.6686 22.9983 60.2525C23.9901 59.5888 24.0859 58.9633 23.2091 58.8755C22.8435 58.839 22.5653 58.6011 22.5907 58.3471C22.6626 57.6288 24.1014 58.2001 24.6901 59.1811C25.1197 59.8967 25.3087 59.9572 25.6985 59.5055C26.025 59.1274 26.2281 59.1138 26.3337 59.4627C26.521 60.0817 29.0151 60.106 29.9187 59.4974C30.2737 59.2589 30.4726 58.8761 30.3608 58.6473C30.249 58.4184 30.5134 58.3117 30.9488 58.4102C31.3838 58.5088 32.8418 58.5295 34.1889 58.4565C36.4233 58.3355 36.6996 58.4177 37.3397 59.3913C38.1513 60.6261 38.0775 62.6116 37.1934 63.3437C36.7021 63.7505 37.1239 63.8767 39.3659 63.9925C42.2805 64.1429 42.5115 64.044 41.7034 62.9924C41.2956 62.4617 41.4776 62.4142 42.7372 62.7231C44.4253 63.1369 45.5176 63.012 45.2369 62.4369C45.1366 62.2315 44.1683 62.0747 43.0849 62.0883C41.0463 62.1132 39.1977 61.3136 40.1842 60.8331C40.4758 60.6911 40.6925 60.7972 40.6653 61.0694C40.6374 61.3477 40.8684 61.441 41.1934 61.2827C41.8718 60.9523 47.3883 61.2979 47.9507 61.7059C48.4083 62.0378 49.6917 62.2614 55.0775 62.9474C58.6972 63.4084 59.0814 63.5394 58.826 64.2276C58.5939 64.852 57.8528 64.9821 54.8226 64.9314C52.3315 64.8899 50.8091 64.6719 50.2119 64.2716C49.7213 63.9427 48.4731 63.6622 47.4381 63.6485L45.5558 63.6233L46.9752 64.1331C48.2197 64.5799 49.562 66.0703 49.4779 66.9115C49.462 67.07 48.7978 67.2636 48.002 67.3413C47.2062 67.4194 46.0742 67.851 45.4868 68.3013C44.612 68.9717 44.2601 69.0134 43.5406 68.5307C42.7828 68.0226 42.6501 68.0657 42.5723 68.8427C42.4927 69.6384 42.7784 69.7787 45.0248 70.0473C52.5748 70.9503 51.9282 70.7131 52.3867 72.7457C53.0601 75.729 54.5754 85.3769 55.7034 93.8607C56.2834 98.2206 57.3055 104.457 57.9756 107.72C58.6452 110.983 59.3775 114.576 59.6028 115.704C59.8282 116.833 60.0638 119.371 60.1272 121.344C60.3691 128.899 61.0002 130.561 63.1487 129.299C64.0629 128.762 64.0747 128.666 63.7177 124.762C63.0792 117.781 62.9479 118.167 66.0883 117.802C67.5824 117.628 69.0872 117.181 69.4319 116.809C70.1332 116.053 71.1014 108.117 70.5439 107.691C70.3602 107.551 68.6545 107.429 66.7536 107.42C63.3015 107.404 63.2972 107.402 63.1636 106.25C63.0897 105.616 62.7384 103.761 62.3828 102.127C62.0271 100.494 61.7105 98.9537 61.6795 98.7048C60.9606 92.957 58.9253 80.2893 57.8479 74.8552C57.0746 70.9559 57.4224 67.602 58.7227 66.427C59.1822 66.0113 59.6087 65.1708 59.6699 64.5588C59.7311 63.9468 60.0782 63.2463 60.441 63.0019C61.1607 62.5179 61.5944 60.0352 60.9701 59.9727C60.7583 59.9515 60.565 60.372 60.541 60.9068C60.5003 61.8149 60.2805 61.8645 57.2186 61.6564C55.4154 61.5336 53.5338 61.2201 53.0372 60.9595C52.1673 60.5032 52.1668 60.4862 53.0284 60.4978C53.52 60.5041 54.4165 60.6005 55.0207 60.7115L56.1191 60.9139L55.0583 59.7592C54.4215 59.0662 53.9401 57.8841 53.8542 56.8024C53.7757 55.8112 53.6749 54.5734 53.631 54.0514C53.4622 52.0532 51.7129 44.0673 51.3461 43.6194C51.1343 43.3609 50.9884 42.8738 51.0221 42.5375C51.0558 42.2008 50.6214 40.5045 50.0568 38.7679C49.4923 37.0313 49.0711 35.3462 49.1204 35.0235C49.1701 34.7013 49.4115 35.214 49.6561 36.1632C50.2134 38.3219 51.25 40.2603 51.3441 39.3191C51.3807 38.954 51.1796 38.2353 50.898 37.7226C50.2257 36.4995 50.0599 34.3465 50.6169 34.0751C50.8587 33.9572 50.9744 33.5611 50.8741 33.1944C50.7735 32.8277 50.8637 32.6593 51.0736 32.8197C51.5325 33.1705 52.0545 32.5603 52.9685 30.6043C53.7018 29.0356 53.3623 27.3757 52.0325 26.0287C51.6306 25.6215 51.4683 24.6631 51.5921 23.4267C51.741 21.9385 51.5535 21.1832 50.8089 20.2747C50.2706 19.6174 49.534 19.0498 49.1716 19.0136C47.8801 18.8843 47.8356 19.8792 49.0716 21.2557C50.5842 22.941 50.5861 23.3864 49.083 24.1687C48.4491 24.4982 47.8088 25.0924 47.6603 25.4892C47.4718 25.9915 47.4046 25.907 47.4382 25.2091C47.5081 23.7599 47.5963 23.5359 48.0292 23.7039C48.2424 23.7869 48.4368 23.6553 48.4611 23.4119C48.4855 23.1686 47.9405 22.9129 47.2503 22.8438C45.6358 22.6823 45.2852 22.2284 46.1571 21.4298C47.2789 20.4023 47.4808 19.0423 46.5016 19.1106C45.7148 19.1651 45.7243 18.7213 46.6873 10.5473C47.6526 2.35036 47.6625 1.8892 46.8837 1.16632C45.7577 0.121304 45.2864 0.130905 43.8312 1.23092ZM47.3586 21.0141C47.3343 21.2575 47.5014 21.5996 47.73 21.7745C47.9587 21.9493 48.1656 21.8931 48.19 21.6498C48.2144 21.4064 48.0472 21.0643 47.8186 20.8894C47.59 20.7146 47.383 20.7707 47.3586 21.0141ZM39.2783 20.8312C38.8592 21.0888 38.0162 22.0538 37.4053 22.976L36.2942 24.6526L36.4354 23.0452C36.5391 21.8658 36.8604 21.2794 37.6429 20.8428C38.9681 20.1038 40.4794 20.0928 39.2783 20.8312ZM43.9304 21.5645C44.0328 22.0485 44.6748 22.5955 45.4016 22.8179C46.5709 23.1758 46.6748 23.3758 46.5158 24.9648C46.4193 25.9286 46.0982 27.2016 45.8022 27.7937C45.4452 28.5079 45.4082 28.9811 45.6921 29.1981C45.9278 29.3782 45.9856 29.7934 45.8208 30.1206C45.6478 30.4639 45.7961 30.7434 46.1714 30.7809C46.5294 30.8168 46.8 31.0682 46.7728 31.3404C46.7455 31.6125 46.3449 31.694 45.8802 31.5214C45.085 31.2264 45.0706 31.2728 45.6266 32.339C45.9514 32.9615 46.0702 33.9607 45.8907 34.5644C45.7119 35.1669 45.9272 37.8532 46.3696 40.5335C47.0666 44.7563 47.5592 49.1222 47.878 53.9133L47.9643 55.2064L45.5477 54.7608C43.6624 54.413 43.1174 54.4528 43.0685 54.9413C43.034 55.286 42.7659 55.4514 42.4723 55.3094C42.1791 55.1674 42.0073 54.8405 42.0912 54.5829C42.1748 54.3249 41.5104 53.9205 40.615 53.6834C39.7191 53.4467 37.6922 52.5999 36.111 51.802C32.6435 50.0521 32.6454 50.0697 35.4193 43.9076C37.8879 38.4234 39.3295 34.7007 39.5803 33.1602C39.8754 31.3474 40.7399 30.8381 42.0411 31.7107C42.9523 32.3217 43.2094 32.3425 43.7779 31.8532C44.1451 31.5373 44.6236 30.7936 44.8413 30.2009C45.2251 29.1563 45.2123 29.1586 44.4209 30.2705C43.1332 32.0792 42.3652 31.5751 40.8798 27.946C40.1787 26.2329 40.1221 25.5192 40.552 23.8263C41.0162 21.9996 41.1946 21.7909 42.207 21.8922C43.1653 21.9881 43.266 21.894 42.8565 21.2867C42.4605 20.7001 42.498 20.5805 43.0603 20.6367C43.4391 20.6746 43.8309 21.092 43.9304 21.5645ZM40.4421 22.196C40.3287 22.4488 40.0463 22.6369 39.815 22.6137C39.5837 22.5906 39.3442 22.3503 39.2831 22.08C39.222 21.8098 39.504 21.6217 39.9102 21.6623C40.3165 21.703 40.5556 21.9432 40.4421 22.196ZM44.2049 23.749C43.9017 24.3555 43.9471 24.4115 44.4282 24.0216C44.7614 23.7515 44.9331 23.408 44.8102 23.2584C44.6874 23.1085 44.4152 23.3293 44.2049 23.749ZM39.4901 23.6249C39.4835 23.6903 39.1543 23.9622 38.7584 24.2288C38.1577 24.633 38.054 24.5601 38.1313 23.7879C38.1954 23.1471 38.4203 22.9613 38.863 23.1835C39.2145 23.3604 39.4967 23.5589 39.4901 23.6249ZM36.975 26.7789C36.6832 27.3383 36.455 27.5622 36.4679 27.2766C36.4998 26.5821 37.1471 25.3234 37.3468 25.5678C37.4342 25.6744 37.2669 26.219 36.975 26.7789ZM50.1251 27.2019C50.3056 27.5717 50.4929 27.5734 50.7734 27.2078C51.0529 26.8429 51.3557 27.0546 51.816 27.9369C52.3014 28.8678 52.3263 29.3168 51.9138 29.7229C51.611 30.0211 51.4808 30.4094 51.6252 30.5857C51.7695 30.7619 51.5309 30.8703 51.095 30.8267C50.4893 30.7661 50.4304 30.6212 50.8454 30.2126C51.246 29.8183 51.2362 29.4066 50.8081 28.6446C50.0003 27.2064 49.39 27.2856 49.5396 28.8095C49.6581 30.017 49.5754 30.0833 48.0679 29.9892C46.7546 29.9074 46.486 29.7344 46.5576 29.0184C46.6167 28.4285 46.9448 28.1766 47.5726 28.2395C48.1273 28.295 48.6285 27.9862 48.8202 27.4704C49.1747 26.5172 49.7344 26.4021 50.1251 27.2019ZM38.6751 29.2955C38.449 29.9232 37.9652 30.4067 37.6001 30.3701C37.1416 30.3242 37.0588 30.0742 37.3325 29.5612C37.551 29.1526 37.8693 28.4676 38.0403 28.0382C38.5345 26.7978 39.1417 28.0009 38.6751 29.2955ZM40.4284 30.1633C39.8195 30.9578 39.3529 30.5853 39.4715 29.4003C39.5732 28.3838 39.6536 28.3364 40.1815 28.9815C40.5093 29.3812 40.6203 29.913 40.4284 30.1633ZM38.7527 34.0606C38.487 35.2631 37.9194 36.8659 37.4915 37.6217C36.2627 39.7952 35.5621 41.4253 35.057 43.285C34.7991 44.234 34.2793 45.4893 33.9021 46.0746C33.5245 46.6598 32.9901 47.9709 32.7142 48.9882C32.2933 50.5426 32.0497 50.8213 31.1884 50.7351C30.2288 50.6391 30.1842 50.4719 30.4857 48.1033C30.7889 45.721 30.872 45.58 31.9148 45.6764C32.7559 45.7543 33.0858 45.5164 33.2882 44.6879C33.4346 44.088 33.7013 43.5113 33.8805 43.4064C34.341 43.1373 36.1428 39.4913 35.9386 39.2421C35.5537 38.7727 34.7591 39.5991 34.662 40.5691C34.6045 41.1435 34.4051 41.916 34.2186 42.2862C33.8176 43.0818 32.9847 43.1192 33.1942 42.332C33.2738 42.033 33.2207 41.4225 33.0766 40.9759C32.7745 40.0415 34.2051 38.0071 35.0315 38.1962C36.2656 38.4788 36.6037 38.2257 37.0519 36.6843C37.63 34.6951 38.8217 31.8332 39.0614 31.8572C39.1575 31.8668 39.0189 32.8586 38.7527 34.0606ZM47.592 35.0574C47.4388 35.3495 47.3632 35.0903 47.424 34.4819C47.4849 33.8734 47.6104 33.6348 47.7027 33.9511C47.7954 34.2679 47.7456 34.7657 47.592 35.0574ZM32.6649 33.4903C32.3421 33.9706 31.9988 34.2666 31.9014 34.1482C31.6227 33.8075 32.3851 32.5299 32.8406 32.5755C33.067 32.5982 32.9878 33.0095 32.6649 33.4903ZM35.9477 37.2107C35.4954 37.8354 35.4067 37.8457 35.4531 37.2694C35.5135 36.5227 36.0468 35.8981 36.3291 36.2432C36.4224 36.3572 36.2509 36.7923 35.9477 37.2107ZM51.8247 41.6265C52.0767 43.2049 52.9535 45.2377 53.0335 44.4292C53.0696 44.064 52.7718 43.0286 52.3715 42.1282C51.8243 40.8975 51.6886 40.7731 51.8247 41.6265ZM30.297 40.7013C30.0594 41.5995 29.6655 42.817 29.4212 43.4071C29.0456 44.3161 28.9999 44.2092 29.123 42.7068C29.2929 40.6294 29.8503 38.9805 30.3651 39.032C30.5649 39.052 30.5341 39.8034 30.297 40.7013ZM49.7469 41.8655C49.9591 42.3784 50.0327 42.788 49.9108 42.7758C49.789 42.7636 49.516 42.3341 49.3038 41.8212C49.0916 41.3083 49.018 40.8987 49.1398 40.9109C49.2617 40.9231 49.5346 41.3526 49.7469 41.8655ZM32.4243 44.3548C32.4713 44.869 32.2905 45.0659 31.9222 44.9007C31.6048 44.759 31.3125 44.2811 31.2713 43.8389C31.2243 43.3247 31.4051 43.1278 31.7734 43.2929C32.0908 43.4347 32.3831 43.9126 32.4243 44.3548ZM51.0952 46.1347C50.9906 47.0512 50.9418 47.0642 50.4747 46.3033C50.1962 45.849 49.7917 45.6074 49.5762 45.7664C49.3607 45.9249 49.3524 45.8209 49.5583 45.534C50.186 44.6591 51.2182 45.0623 51.0952 46.1347ZM52.9175 45.9555C52.8823 46.3064 53.0233 46.7228 53.2307 46.8812C53.4377 47.04 53.543 46.7605 53.4642 46.2605C53.2969 45.2001 53.0091 45.0395 52.9175 45.9555ZM27.6009 47.1357C27.447 47.5507 27.3907 47.1929 27.4759 46.341C27.5612 45.4892 27.6873 45.1496 27.7559 45.5869C27.8249 46.0242 27.7552 46.7207 27.6009 47.1357ZM51.57 48.9882C51.4934 49.7533 50.6926 49.5587 50.5049 48.7296C50.4373 48.4306 50.6647 48.2146 51.0098 48.2492C51.355 48.2837 51.6072 48.6165 51.57 48.9882ZM26.8292 51.2026C26.6493 52.6649 26.3183 53.9511 26.0935 54.0605C25.8686 54.1698 25.7141 53.9658 25.7501 53.6064C25.786 53.2476 25.6107 52.8617 25.3605 52.75C25.0479 52.6096 25.1159 52.1494 25.5773 51.2816C25.9467 50.5864 26.2403 49.6647 26.2293 49.2332C26.2188 48.8017 26.4229 48.4704 26.683 48.4964C26.9727 48.5254 27.0293 49.5743 26.8292 51.2026ZM50.2302 51.7468C50.0539 52.2208 49.8333 52.6009 49.7398 52.5916C49.6468 52.5823 49.61 52.1763 49.6587 51.6896C49.7074 51.2028 49.928 50.8226 50.1487 50.8447C50.3698 50.8668 50.4061 51.2727 50.2302 51.7468ZM51.6967 51.4466C51.823 51.705 51.7149 51.8953 51.457 51.8695C51.1992 51.8437 51.0078 51.6234 51.0321 51.3801C51.0565 51.1367 51.1642 50.9463 51.2718 50.9571C51.3795 50.9679 51.5704 51.1881 51.6967 51.4466ZM54.4972 52.8813C54.4668 53.3989 54.5613 53.5143 54.738 53.1758C54.898 52.8691 54.9203 52.4856 54.7879 52.324C54.6555 52.1623 54.5248 52.413 54.4972 52.8813ZM52.3224 53.5204C52.1454 53.8715 51.6233 54.1209 51.1621 54.0748C50.7009 54.0286 50.3023 54.2019 50.2765 54.4595C50.2507 54.717 50.0425 54.7851 49.8139 54.6103C49.1131 54.0744 49.406 53.6469 50.731 53.2714C52.5069 52.7684 52.687 52.7967 52.3224 53.5204ZM52.5094 57.1653C52.3335 57.5142 52.3753 57.7096 52.6016 57.5991C52.8278 57.489 53.0772 57.8049 53.1555 58.3017C53.2582 58.9529 53.0781 59.1829 52.511 59.1262C51.9487 59.0699 51.6955 58.578 51.6233 57.4033C51.5679 56.4989 51.6615 55.5773 51.8318 55.3552C52.278 54.7733 52.8903 56.4087 52.5094 57.1653ZM48.8636 57.4302C49.2821 59.4145 46.8718 60.2795 44.3743 59.0413C43.0134 58.3666 42.7671 57.4874 44.1 58.0614C44.6131 58.2826 45.2532 58.1916 45.6888 57.8356C46.627 57.0691 46.6299 56.8607 45.7075 56.5181C45.2924 56.3639 45.7959 56.3316 46.8262 56.4468C48.187 56.5986 48.7449 56.8681 48.8636 57.4302ZM39.1841 57.9838C39.151 58.3144 39.4597 58.7538 39.8695 58.9606C40.563 59.3102 40.5522 59.3641 39.7156 59.7287C38.9843 60.0475 38.683 59.919 38.1063 59.0412C37.7156 58.4474 37.4348 57.5781 37.4816 57.1099C37.5531 56.3957 37.7019 56.3489 38.4055 56.8207C38.8668 57.1301 39.2172 57.6533 39.1841 57.9838ZM22.0972 55.8783C21.9152 56.2396 21.6808 56.4307 21.5763 56.3031C21.4718 56.1755 21.5389 55.8716 21.7257 55.6284C22.2332 54.9659 22.4747 55.1286 22.0972 55.8783ZM43.0134 59.9635C42.989 60.2069 42.7578 60.3849 42.4999 60.3591C42.242 60.3333 42.1738 60.1253 42.3488 59.897C42.5238 59.6687 42.7546 59.4907 42.8623 59.5015C42.9699 59.5122 43.0377 59.7201 43.0134 59.9635ZM21.4285 62.7838C21.1868 63.0931 20.8782 64.2403 20.7429 65.3334C20.6075 66.4265 20.2259 67.6957 19.8946 68.1537C19.5628 68.6117 18.2907 71.7811 17.0674 75.1963C15.844 78.6114 14.6192 81.854 14.3451 82.4022C14.0714 82.9505 13.0827 85.8903 12.1479 88.9353C11.2136 91.9802 10.3071 94.9078 10.1334 95.4406C9.94498 96.018 9.07313 96.699 7.97373 97.1276C6.95956 97.5226 5.62435 98.4027 5.00722 99.0829C4.3896 99.7634 3.63833 100.196 3.33754 100.045C2.41429 99.581 1.13795 102.135 0.827423 105.068C0.483992 108.308 1.15108 110.831 2.67553 112.062C4.32006 113.39 4.50163 114.692 3.4755 117.805C2.98653 119.288 2.40411 121.406 2.18131 122.51C1.78284 124.484 1.798 124.52 3.07487 124.648C4.11559 124.752 4.34748 124.613 4.2424 123.946C4.17003 123.488 4.30323 123.02 4.53751 122.906C4.77179 122.792 4.93263 123.009 4.89468 123.388C4.56963 126.636 8.13458 117.284 9.72601 110.713C10.1036 109.153 11.2381 105.646 12.2461 102.92C14.527 96.7536 15.5174 93.9493 17.3516 88.4584C18.1463 86.0797 19.4675 82.29 20.2877 80.0367C21.1075 77.7835 22.3658 74.2149 23.0839 72.1061C23.8259 69.9269 24.785 67.9494 25.306 67.5238C25.8099 67.1121 26.2388 66.6088 26.2592 66.4053C26.2948 66.0495 30.8513 65.368 35.572 65.0126C37.3589 64.8777 36.8352 64.7761 33.0481 64.5223C29.5413 64.2876 28.2838 64.0607 28.3227 63.6713C28.3783 63.1159 26.8647 62.9479 24.0099 63.1928C22.9704 63.2818 22.3138 63.1357 22.1381 62.7757C21.9365 62.3627 21.7555 62.3647 21.4285 62.7838ZM32.6833 63.6951C32.9759 63.8487 33.4743 63.8985 33.791 63.806C34.1081 63.7139 33.8687 63.5885 33.2595 63.5275C32.6503 63.4666 32.3912 63.5421 32.6833 63.6951ZM42.4026 66.4203C42.3723 66.9379 42.4668 67.0533 42.6434 66.7148C42.8034 66.4081 42.8257 66.0246 42.6933 65.8629C42.5609 65.7013 42.4302 65.9519 42.4026 66.4203ZM21.3315 67.2767C20.9821 67.5622 20.773 67.5676 20.8007 67.2906C20.8599 66.6998 21.4364 66.2288 21.7023 66.554C21.8156 66.6922 21.6488 67.0175 21.3315 67.2767ZM8.76185 100.565C8.30273 101.746 7.71056 103.625 7.4458 104.742C6.84656 107.264 5.30713 108.893 4.27648 108.093C3.88866 107.792 3.33559 106.647 3.04769 105.549C2.75939 104.45 2.30514 103.453 2.03872 103.334C1.34445 103.023 1.54094 102.057 2.41802 101.467C3.07725 101.023 3.11474 101.109 2.72876 102.18C2.41659 103.046 2.44576 103.322 2.82872 103.135C3.12507 102.991 3.39951 102.637 3.43871 102.348C3.62082 100.993 8.67841 97.2986 9.30407 98.0625C9.46438 98.2582 9.22053 99.3847 8.76185 100.565ZM61.7923 113.018L61.7165 113.905L61.4245 112.982C61.2637 112.474 61.1881 111.561 61.2561 110.953L61.3796 109.848L61.6238 110.99C61.7579 111.618 61.8339 112.531 61.7923 113.018ZM5.49924 118.224C5.3038 118.88 5.08401 119.153 5.01071 118.83C4.87874 118.249 5.34632 116.979 5.68038 117.013C5.77608 117.022 5.69469 117.567 5.49924 118.224Z" fill="#747171"/>
</svg>
