<svg width="72" height="136" viewBox="0 0 72 136" fill="none" xmlns="http://www.w3.org/2000/svg">
<path fill-rule="evenodd" clip-rule="evenodd" d="M59.6202 5.51232C57.8405 8.48263 55.7638 11.589 55.0056 12.4149C49.4607 18.4571 9.60691 88.4494 9.40043 92.5072C9.25202 95.4331 10.4279 94.0014 14.055 86.8418C16.0459 82.9123 17.1622 80.8701 16.5359 82.303C15.907 83.7429 15.6179 85.026 15.89 85.1703C16.2318 85.3517 17.748 82.7021 20.8521 76.4983C23.3105 71.5847 26.9663 64.7948 28.9764 61.4091C31.5088 57.1428 29.9012 60.4031 23.7395 72.0289C18.8491 81.2554 15.1027 88.1229 15.4145 87.2907C15.7258 86.4582 15.7611 85.6602 15.4926 85.5177C15.1677 85.3454 14.7062 86.0825 14.1147 87.7176C13.6257 89.0698 12.562 91.7087 11.7511 93.5813C8.6452 100.756 7.4756 103.807 8.32686 102.511C8.81319 101.771 9.36713 100.997 9.55702 100.791C9.74691 100.585 10.5878 99.187 11.4253 97.6848L12.9477 94.9537L16.4011 96.0607C18.3004 96.6698 20.3159 97.5744 20.8796 98.0711L21.9053 98.9743L19.8661 100.82C18.2993 102.24 16.6275 104.738 12.6491 111.607C9.8014 116.524 7.10319 120.864 6.6528 121.253C5.898 121.904 5.8329 121.818 5.81559 120.147C5.79436 118.104 5.55329 117.678 5.23243 119.116C5.11411 119.648 5.23036 120.627 5.49051 121.293C5.8994 122.34 5.62677 123.139 3.48584 127.175C1.01301 131.835 -0.119096 134.736 0.422943 135.023C0.81721 135.231 1.98778 133.297 11.4191 116.852C19.1939 103.295 19.7555 102.437 21.7181 101.102C24.3793 99.2937 25.0715 98.4283 28.7741 92.2851C30.4567 89.4933 32.2562 86.5542 32.773 85.7538C40.6657 73.5357 48.0784 59.5563 64.1925 26.5003C68.348 17.9764 68.8196 16.6735 67.922 16.1973C67.1972 15.8127 68.7237 11.3884 70.1473 9.74875C70.7634 9.03896 71.0194 8.21679 70.8722 7.42411C70.7465 6.74896 70.8194 5.85028 71.0339 5.42707C71.2728 4.95478 71.0691 4.46878 70.5074 4.17075C69.7944 3.7925 69.4368 3.97514 68.8976 4.99147C68.5163 5.71027 67.9729 6.17561 67.6902 6.02562C67.3305 5.83479 67.2317 5.99227 67.3623 6.5495C67.5646 7.41438 67.5541 7.45738 66.7019 9.26953C66.1809 10.3776 66.2569 10.3627 67.4723 9.12001C69.4164 7.13128 69.5701 7.65497 67.8593 10.4413C66.3981 12.8202 64.7314 13.9463 63.5768 13.3337C62.9816 13.0179 63.6552 10.4779 65.0228 7.88018C65.5531 6.87304 65.6566 6.06488 65.3056 5.67494C64.9579 5.28893 65.0552 4.48695 65.5676 3.52115C66.3604 2.02693 66.3333 1.95619 64.6202 1.04727L62.8566 0.111618L59.6202 5.51232ZM66.448 4.25005C66.1302 4.84905 66.104 5.14949 66.39 4.91711C66.6761 4.68541 66.9362 4.19532 66.9678 3.82803C66.9997 3.46141 66.7658 3.65106 66.448 4.25005ZM63.5637 9.68744C62.7423 11.5466 62.4147 11.892 61.6879 11.6638C60.954 11.4335 60.9803 11.0607 61.845 9.43095C63.9212 5.51766 65.3142 5.72525 63.5637 9.68744ZM61.4777 7.43514C61.9 8.69645 61.1582 10.0558 59.9264 10.2804C58.7876 10.4879 58.7881 10.6099 59.9212 8.18419C60.9028 6.08284 61.0086 6.03178 61.4777 7.43514ZM65.0842 15.2226C65.1407 15.2676 65.4742 15.4569 65.8252 15.6431C66.1757 15.829 66.3198 16.5966 66.1458 17.3484C65.5924 19.7361 61.3273 30.0759 59.0139 34.6388C57.7871 37.0584 55.1883 42.4624 53.2389 46.6479C51.2896 50.8334 48.5339 56.2798 47.1153 58.7511C42.9856 65.946 30.6064 87.0277 27.0128 92.9853L23.7153 98.4524L21.1479 97.2047C19.7358 96.5186 17.6477 95.6268 16.5075 95.2239C14.8081 94.6232 14.4315 94.3095 14.4214 93.4852C14.408 92.4358 27.03 68.7894 34.6922 55.5095C37.0657 51.3956 42.566 41.6273 46.9158 33.8027C56.6182 16.3476 58.7211 13.1144 60.5746 12.7993C61.6336 12.6193 62.2519 12.8462 63.4521 13.8554C64.2931 14.5622 65.0276 15.1775 65.0842 15.2226ZM56.612 14.5232C56.2747 14.8813 56.3622 14.4884 56.8071 13.6498C57.252 12.8112 57.5283 12.5184 57.421 12.9985C57.3141 13.4789 56.9498 14.1654 56.612 14.5232ZM46.4227 32.1678C46.0294 32.5849 45.6566 32.7751 45.5942 32.5896C45.4714 32.2224 46.6125 31.1296 46.9382 31.3025C47.0487 31.361 46.8168 31.7505 46.4227 32.1678ZM41.2736 41.2766C40.3896 42.7269 40.9665 41.4626 42.5555 38.4676C44.1445 35.4726 44.8677 34.2865 44.1627 35.8311C43.4579 37.3765 42.1578 39.8269 41.2736 41.2766ZM39.3704 45.1516C39.2432 45.3912 39.0485 45.5391 38.9372 45.48C38.8258 45.4209 38.7117 45.1092 38.6831 44.7869C38.6544 44.4647 38.8496 44.317 39.1163 44.4585C39.3829 44.6 39.4975 44.912 39.3704 45.1516ZM20.4568 74.8929C20.1708 75.1252 20.197 74.8248 20.5148 74.2258C20.8326 73.6268 21.0665 73.4372 21.0346 73.8038C21.0029 74.1711 20.7429 74.6612 20.4568 74.8929ZM18.9668 77.731C18.6292 78.0895 18.717 77.6962 19.1619 76.8576C19.6068 76.019 19.8833 75.7258 19.7758 76.2063C19.6687 76.6871 19.3049 77.3728 18.9668 77.731ZM13.9542 91.8193C12.9256 93.6406 12.8387 93.6995 13.1456 92.3673C13.6519 90.1668 14.132 89.2619 14.6479 89.5357C14.8999 89.6694 14.5879 90.6968 13.9542 91.8193ZM9.47939 106.333C5.64033 114.271 4.79747 116.472 5.28806 117.269C5.64836 117.854 6.09194 117.007 6.06426 115.789C6.05239 115.265 7.71369 111.327 9.75684 107.038C11.7995 102.749 13.4188 99.0857 13.3549 98.8983C13.2911 98.711 11.5468 102.056 9.47939 106.333ZM6.62679 105.936C6.30899 106.535 6.28288 106.835 6.56881 106.603C6.85497 106.371 7.11498 105.881 7.14662 105.514C7.17849 105.147 6.94459 105.337 6.62679 105.936Z" fill="#747171"/>
</svg>
