<svg width="98" height="122" viewBox="0 0 98 122" fill="none" xmlns="http://www.w3.org/2000/svg">
<path d="M92.3023 25.0137H92.4869V1H92.3023C83.4503 1.0003 74.7179 3.04675 66.786 6.97981C58.8541 10.9129 51.9371 16.6263 46.5742 23.6745C41.2279 16.646 34.3357 10.9446 26.4322 7.01232C18.5287 3.08009 9.82627 1.02279 1 1V25.0137C9.77466 25.2018 18.1266 28.8223 24.2659 35.0994C30.4051 41.3766 33.8431 49.8108 33.8431 58.5945C33.8431 67.3782 30.4051 75.8124 24.2659 82.0895C18.1266 88.3666 9.77466 91.9872 1 92.1752V116.189C9.83012 116.161 18.535 114.096 26.4388 110.156C34.3426 106.216 41.2327 100.505 46.5742 93.4683C51.9387 100.519 58.8582 106.233 66.7929 110.166C74.7276 114.1 83.463 116.145 92.3177 116.143H92.5022V92.1752H92.3177C87.8509 92.2709 83.4099 91.4731 79.2553 89.8285C75.1006 88.1839 71.3159 85.7257 68.123 82.5979C64.9301 79.4702 62.3934 75.7359 60.6616 71.6141C58.9297 67.4923 58.0377 63.0659 58.0377 58.5945C58.0377 54.1231 58.9297 49.6967 60.6616 45.5748C62.3934 41.453 64.9301 37.7187 68.123 34.591C71.3159 31.4633 75.1006 29.005 79.2553 27.3604C83.4099 25.7158 87.8509 24.918 92.3177 25.0137H92.3023Z" fill="black" stroke="black" stroke-miterlimit="10"/>
<path d="M97.1782 29.8934H97.332V5.87964H97.1474C88.2928 5.87757 79.5574 7.92288 71.6226 11.856C63.6879 15.7892 56.7684 21.5038 51.404 28.5541C46.06 21.5344 39.1746 15.8386 31.2802 11.9069C23.3858 7.97524 14.6937 5.91301 5.87585 5.87964V29.8934C14.6505 30.0814 23.0025 33.702 29.1417 39.9791C35.281 46.2562 38.719 54.6904 38.719 63.4741C38.719 72.2578 35.281 80.692 29.1417 86.9691C23.0025 93.2463 14.6505 96.8668 5.87585 97.0549V121.069C14.6989 121.04 23.3971 118.98 31.2972 115.048C39.1973 111.116 46.0876 105.418 51.4347 98.3941C56.7992 105.444 63.7187 111.159 71.6534 115.092C79.5881 119.025 88.3235 121.071 97.1782 121.069H97.332V97.0549H97.1474C92.6806 97.1506 88.2396 96.3527 84.085 94.7082C79.9303 93.0636 76.1456 90.6053 72.9527 87.4776C69.7598 84.3498 67.2231 80.6156 65.4913 76.4937C63.7594 72.3719 62.8673 67.9455 62.8673 63.4741C62.8673 59.0027 63.7594 54.5763 65.4913 50.4545C67.2231 46.3326 69.7598 42.5984 72.9527 39.4706C76.1456 36.3429 79.9303 33.8847 84.085 32.2401C88.2396 30.5955 92.6806 29.7977 97.1474 29.8934H97.1782Z" fill="#FFD102" stroke="black" stroke-miterlimit="10"/>
</svg>
