<svg width="318" height="338" viewBox="0 0 318 338" fill="none" xmlns="http://www.w3.org/2000/svg">
<path d="M115.148 62.8063C82.4689 93.8998 64.9998 140.748 70.8852 185.872C80.3021 269.701 166.502 317.85 246.108 299.076C199.494 313.013 144.791 304.565 106.165 273.354C50.8171 230.465 38.7746 149.587 68.4753 88.2708C75.8225 72.6328 85.5021 58.2012 97.1863 45.465L115.148 62.8063Z" fill="#898686"/>
<path d="M59.0149 64.5187C50.4787 60.6967 49.1153 49.612 56.5348 43.9178C57.5078 43.1711 58.4939 42.4409 59.4927 41.7277C60.1157 41.2828 60.7937 40.8524 61.5568 40.9129C61.9406 40.9434 62.3336 41.0028 62.7463 40.9306L65.0605 40.7967L78.8785 39.0222L110.413 31.395C118.879 29.3472 127.314 34.8804 128.808 43.4617L129.295 46.2634C129.609 48.0678 129.592 49.9143 129.244 51.7125L123.107 83.4248L122.58 92.9205C122.428 94.2683 121.721 97.7046 121.642 99.323C121.635 99.4811 121.65 99.6382 121.656 99.7963C121.68 100.384 121.302 100.885 120.861 101.276C119.479 102.501 116.424 105.211 116.219 105.421C111.055 111.587 102.155 110.533 98.9529 103.155C98.3372 101.737 97.7422 100.308 97.1683 98.8717C96.8707 98.1267 96.421 97.4102 96.3753 96.6094C96.375 96.6027 96.3746 96.5961 96.3743 96.5894C96.3356 95.801 96.7028 95.0539 96.8921 94.2876C97.3387 92.4799 97.679 90.6472 97.9111 88.7991L99.3183 80.1477L103.47 54.8248C104.141 50.7306 109.202 49.1653 112.068 52.1658C114.931 55.164 113.148 60.1508 109.032 60.6482C95.5068 62.2827 75.4563 64.7202 68.0114 65.5294L65.7701 65.8878C64.9482 66.0316 64.2723 66.6244 63.4531 66.395C61.9601 65.8004 60.4804 65.1749 59.0149 64.5187Z" fill="#898686"/>
</svg>
