<svg width="101" height="99" viewBox="0 0 101 99" fill="none" xmlns="http://www.w3.org/2000/svg">
<path d="M4 3H100.51C100.51 15.8098 95.4265 28.0949 86.3769 37.1527C77.3273 46.2106 65.0533 51.2992 52.2552 51.2992C39.4572 51.2992 27.1832 46.2106 18.1336 37.1527C9.08401 28.0949 4 15.8098 4 3Z" fill="black"/>
<path d="M21.9043 9.62497C31.2891 17.0197 37.1463 17.2196 40.7405 16.1537C45.799 14.5548 46.4645 10.2245 51.4565 9.62497C57.713 8.82553 60.2422 15.2876 67.3641 16.1537C70.8251 16.5534 75.8836 15.6207 82.606 9.62497C82.606 17.6819 79.4084 25.4088 73.7165 31.1059C68.0246 36.8029 60.3047 40.0035 52.2552 40.0035C44.2056 40.0035 36.4857 36.8029 30.7938 31.1059C25.1019 25.4088 21.9043 17.6819 21.9043 9.62497Z" fill="black"/>
<path d="M4 98.9987H100.51C100.51 86.1889 95.4265 73.9038 86.3769 64.846C77.3273 55.7881 65.0533 50.6995 52.2552 50.6995C39.4572 50.6995 27.1832 55.7881 18.1336 64.846C9.08401 73.9038 4 86.1889 4 98.9987Z" fill="black"/>
<path d="M20.7904 87.2969H81.5588C81.1594 85.0318 78.3639 68.9764 65.0521 61.7815C61.0416 59.6541 56.6078 58.448 52.0731 58.2507C46.8893 58.1864 41.7693 59.3989 37.1639 61.7815C23.5193 69.0431 21.0566 85.2983 20.7904 87.2969Z" fill="black"/>
<path d="M0 0H96.5105C96.5105 12.8098 91.4265 25.0949 82.3769 34.1527C73.3273 43.2106 61.0533 48.2992 48.2552 48.2992C35.4572 48.2992 23.1832 43.2106 14.1336 34.1527C5.08401 25.0949 0 12.8098 0 0Z" fill="#4472F2"/>
<path d="M17.9043 6.62497C27.2891 14.0197 33.1463 14.2196 36.7405 13.1537C41.799 11.5548 42.4645 7.22454 47.4565 6.62497C53.713 5.82553 56.2422 12.2876 63.3641 13.1537C66.8251 13.5534 71.8836 12.6207 78.606 6.62497C78.606 14.6819 75.4084 22.4088 69.7165 28.1059C64.0246 33.8029 56.3047 37.0035 48.2552 37.0035C40.2056 37.0035 32.4857 33.8029 26.7938 28.1059C21.1019 22.4088 17.9043 14.6819 17.9043 6.62497Z" fill="#FFE12E"/>
<path d="M0 95.9987H96.5105C96.5105 83.1889 91.4265 70.9038 82.3769 61.846C73.3273 52.7881 61.0533 47.6995 48.2552 47.6995C35.4572 47.6995 23.1832 52.7881 14.1336 61.846C5.08401 70.9038 0 83.1889 0 95.9987Z" fill="#4472F2"/>
<path d="M16.7904 84.2969H77.5588C77.1594 82.0318 74.3639 65.9764 61.0521 58.7815C57.0416 56.6541 52.6078 55.448 48.0731 55.2507C42.8893 55.1864 37.7693 56.3989 33.1639 58.7815C19.5193 66.0431 17.0566 82.2983 16.7904 84.2969Z" fill="#FFE12E"/>
</svg>
