<svg width="106" height="59" viewBox="0 0 106 59" fill="none" xmlns="http://www.w3.org/2000/svg">
<path d="M106 59L10 59C10 46.2696 15.0571 34.0606 24.0589 25.0589C33.0606 16.0571 45.2696 11 58 11C70.7304 11 82.9394 16.0571 91.9411 25.0589C100.943 34.0606 106 46.2696 106 59Z" fill="black"/>
<path d="M99.3573 54.2141L4.63528 54.2141C4.63528 41.6646 9.62509 29.6291 18.507 20.7553C27.3889 11.8814 39.4354 6.89619 51.9963 6.89619C64.5572 6.89619 76.6037 11.8814 85.4856 20.7553C94.3675 29.6291 99.3573 41.6646 99.3573 54.2141Z" fill="#FFD102"/>
<path d="M94.722 47.3179L2.28882e-05 47.3179C2.28882e-05 34.7684 4.98984 22.7329 13.8717 13.8591C22.7537 4.98527 34.8001 0 47.361 0C59.922 0 71.9684 4.98527 80.8503 13.8591C89.7322 22.7329 94.722 34.7684 94.722 47.3179Z" fill="#4472F2"/>
<path d="M81.0174 21.8466L78.4982 24.5649L81.2189 27.4342L78.3974 30.4545L81.2189 33.6258L78.4982 36.5454L81.2189 39.5153L78.2966 42.737" stroke="#FFD102" stroke-width="6.46031" stroke-miterlimit="10"/>
<path d="M71.7971 10.9233L69.2779 15.051L71.9986 19.4305L69.1771 24.0112L71.9986 28.894L69.2779 33.3238L72.049 37.8542L69.0763 42.737" stroke="#FFD102" stroke-width="7.53703" stroke-miterlimit="10"/>
<path d="M62.5769 6.34219L60.1081 10.9733L62.7784 15.9568L59.9569 21.1416L62.7784 26.6285L60.0577 31.6623L62.8288 36.7464L59.8562 42.2836" stroke="#FFD102" stroke-width="7.53703" stroke-miterlimit="10"/>
<path d="M53.3567 4.47991L50.8879 9.36272L53.5582 14.5979L50.7871 20.0344L53.5582 25.8233L50.8375 31.1088L53.6086 36.495L50.6359 42.2839" stroke="#FFD102" stroke-width="7.53703" stroke-miterlimit="10"/>
<path d="M14.0067 21.8466L16.4755 24.5649L13.8052 27.4342L16.6267 30.4545L13.8052 33.6258L16.5259 36.5454L13.7547 39.5153L16.7274 42.737" stroke="#FFD102" stroke-width="6.46031" stroke-miterlimit="10"/>
<path d="M23.2269 10.9233L25.6957 15.051L23.0253 19.4305L25.8468 24.0112L23.0253 28.894L25.7461 33.3238L22.975 37.8542L25.9476 42.737" stroke="#FFD102" stroke-width="7.53703" stroke-miterlimit="10"/>
<path d="M32.4472 6.34219L34.9159 10.9733L32.2456 15.9568L35.0167 21.1416L32.2456 26.6285L34.9664 31.6623L32.1952 36.7464L35.1678 42.2836" stroke="#FFD102" stroke-width="7.53703" stroke-miterlimit="10"/>
<path d="M41.6673 4.47991L44.1361 9.36272L41.4658 14.5979L44.2369 20.0344L41.4658 25.8233L44.1865 31.1088L41.4154 36.495L44.3881 42.2839" stroke="#FFD102" stroke-width="7.53703" stroke-miterlimit="10"/>
</svg>
