<svg width="60" height="146" viewBox="0 0 60 146" fill="none" xmlns="http://www.w3.org/2000/svg">
<path fill-rule="evenodd" clip-rule="evenodd" d="M35.518 0.340713C34.773 1.08016 35.2212 1.56066 36.1799 1.05057C37.7524 0.215127 37.94 0.381193 37.6218 2.3297C37.4223 3.5507 37.5283 4.14589 37.9452 4.14589C38.6401 4.14589 38.7754 1.64526 38.1349 0.643243C37.6924 -0.0484657 36.0958 -0.233202 35.518 0.340713ZM32.9622 4.41833C31.0637 8.09534 30.6818 10.7112 31.6927 13.1142C32.3557 14.6902 32.4089 15.8645 31.9983 19.8331C31.7246 22.4785 31.292 25.3434 31.0375 26.1996C30.0789 29.4241 28.9541 35.1394 28.6369 38.394C28.4562 40.2491 27.9923 42.9345 27.6056 44.3615C26.8863 47.0178 26.6031 51.5894 26.6339 60.0404C26.6438 62.6702 26.4521 64.6997 26.2086 64.5502C25.9652 64.4008 25.7656 63.4906 25.7656 62.5275C25.7656 61.2386 25.4929 60.6911 24.7307 60.4508C23.6398 60.1068 20.4488 53.8882 18.3768 48.0681C17.7525 46.3147 16.4641 44.061 15.5133 43.0601C13.61 41.0566 10.5919 33.5541 9.56428 28.2753C8.8313 24.5074 7.66103 20.8683 6.7196 19.4263C6.02267 18.3594 0.740811 15.3367 0.314501 15.7607C-0.434153 16.5038 0.241359 28.2836 1.41894 35.0211C1.51872 35.5919 1.63 36.4735 1.66657 36.98C1.70367 37.4865 2.28514 38.1091 2.95961 38.3639C3.63355 38.6182 4.57394 39.6404 5.04936 40.6347C6.37845 43.4166 6.07334 43.5702 4.34564 40.9886C3.48623 39.7043 2.78198 38.9856 2.78041 39.3909C2.77937 39.7966 3.10067 40.4972 3.49406 40.9476C4.10479 41.6466 5.79122 45.2587 7.26816 49.0317C7.7185 50.1821 8.743 59.9117 9.51621 70.3766C9.7931 74.1252 10.2659 78.1006 10.5668 79.211C11.0908 81.1429 12.0077 90.7277 13.2156 106.89C13.8551 115.452 14.6826 124.621 15.0086 126.759C16.9594 139.551 18.4598 142.548 24.0614 144.838C26.6653 145.902 27.8481 146.057 32.8185 145.985C40.4409 145.875 43.6988 144.798 45.8173 141.69C46.8481 140.177 47.3418 138.778 47.3846 137.25C47.4186 136.023 47.6234 135.125 47.8386 135.256C48.0539 135.385 48.2712 133.668 48.3214 131.439C48.4771 124.518 48.5544 123.198 48.8344 122.69C48.9833 122.42 49.1468 119.886 49.197 117.061C49.2477 114.235 49.6546 110.383 50.1019 108.499C50.6577 106.158 50.9268 102.317 50.9519 96.3631C50.9738 91.1906 51.2643 86.4742 51.6671 84.7535C52.4612 81.3609 52.7511 74.6483 52.1462 73.6758C51.8693 73.2306 51.9314 73.1268 52.329 73.3712C52.6649 73.5772 52.946 73.4402 52.9638 73.062C52.9805 72.6883 53.2224 71.2151 53.5014 69.7881C54.437 64.9939 54.4203 64.2218 53.3749 63.9504C52.8441 63.8124 52.4131 63.3183 52.4173 62.8518C52.4288 61.4534 53.0265 59.6657 53.4047 59.8982C53.5991 60.0175 53.8279 59.139 53.9125 57.9461C53.9977 56.7536 54.0969 55.3686 54.134 54.8694C54.1711 54.3703 54.3629 53.9613 54.5598 53.9613C54.7573 53.9613 54.8764 52.196 54.8247 50.0379C54.7615 47.3852 54.9475 45.9359 55.3989 45.5633C56.1846 44.9162 56.3079 43.8929 55.5441 44.362C55.2035 44.5706 55.1136 43.2676 55.286 40.6305C55.4323 38.4013 55.3388 35.7605 55.0791 34.7616C54.7035 33.318 54.5959 34.0429 54.553 38.2985C54.4971 43.9028 53.9789 45.8259 52.6608 45.3236C52.2324 45.1601 50.8213 45.3381 49.524 45.7184C47.5644 46.2934 46.997 46.7635 46.1689 48.4993C45.6204 49.6482 45.0185 52.223 44.831 54.2208C44.6434 56.2186 44.1706 59.7213 43.7798 62.0045C43.389 64.2877 42.9434 67.3233 42.7893 68.7503C42.4278 72.1004 41.5056 79.1659 41.1446 81.3484C40.99 82.284 40.6436 82.9145 40.3756 82.7495C39.9394 82.4823 40.1181 84.6798 40.6807 86.5152C40.8516 87.071 39.453 88.2095 38.5998 88.2095C38.2033 88.2095 38.2232 84.0717 38.6291 82.0557C38.8078 81.1684 39.1014 80.5332 39.2822 80.6443C39.4624 80.7553 39.6155 76.7234 39.6212 71.6848C39.6463 51.0383 40.2941 27.9073 40.8636 27.3417C41.1802 27.0273 41.4351 26.5255 41.4309 26.2255C41.4257 25.8914 41.2742 25.9121 41.0391 26.279C40.828 26.608 40.6441 24.9376 40.6306 22.5672C40.6175 20.1968 40.3484 17.9432 40.0329 17.5587C39.6134 17.0476 39.6526 15.9511 40.1771 13.4863C41.0266 9.49275 41.0997 7.77827 40.42 7.77827C40.1468 7.77827 39.721 8.13737 39.4739 8.57637C39.0836 9.26859 38.8966 9.23435 38.0607 8.31691C37.1908 7.36212 35.1695 6.82761 35.1695 7.55305C35.1695 8.11814 36.3763 10.117 36.9458 10.4948C37.3455 10.7594 37.3491 10.8782 36.9578 10.8839C36.625 10.8886 36.4939 11.558 36.6365 12.5222C36.798 13.6155 36.6893 14.0374 36.3074 13.8028C35.9939 13.6103 35.8586 13.1402 36.0059 12.7583C36.1538 12.3763 35.8821 11.914 35.4025 11.7313C34.821 11.5097 34.6204 11.6172 34.8001 12.0536C35.8246 14.5438 35.8424 14.6606 35.169 14.4375C33.9324 14.028 32.515 10.7537 32.8483 9.07555C33.3681 6.4592 33.6618 5.6777 34.0374 5.90862C34.2354 6.03004 34.8513 5.80019 35.4057 5.39699C35.9605 4.99432 36.148 4.6648 35.8226 4.6648C35.4971 4.6648 35.0833 4.90194 34.9031 5.19201C34.2835 6.18832 33.5829 5.15155 34.1565 4.08727C34.4627 3.51854 34.6398 2.74015 34.5494 2.35719C34.4595 1.97424 33.7453 2.90156 32.9622 4.41833ZM38.7482 4.52624C38.0178 4.69125 38.0816 4.91545 39.1636 5.99011C40.699 7.51519 40.9163 7.55203 40.9163 6.28485C40.9163 5.08772 39.9023 4.26523 38.7482 4.52624ZM54.9349 6.12814C54.4553 6.32221 53.5385 7.14676 52.8964 7.96041C51.8625 9.27066 51.7136 10.131 51.595 15.4846C51.5213 18.8093 51.1399 22.5802 50.7471 23.8645C49.9963 26.321 50.059 28.5347 50.8792 28.5347C51.1462 28.5347 51.3651 27.9509 51.3651 27.2374C51.3651 26.5239 51.5835 25.9402 51.8499 25.9402C52.7992 25.9402 53.4669 16.5224 52.7287 13.5377L52.2924 11.7728L54.1701 12.9254C55.2029 13.5595 56.3272 13.9066 56.6689 13.697C57.0832 13.4427 57.1851 13.587 56.9745 14.1308C56.7938 14.5994 57.0884 15.3305 57.6678 15.8515C58.4358 16.5416 58.5366 16.9241 58.0905 17.457C57.7498 17.8654 57.4442 20.8076 57.3575 24.5137C57.276 28.0096 56.9259 33.276 56.5796 36.2172C56.2332 39.1579 56.0791 41.6922 56.2363 41.8484C56.5613 42.1712 56.7452 41.1458 57.9379 32.3503C58.4081 28.8834 58.7069 24.9729 58.6019 23.6595C58.4969 22.3467 58.5753 21.2134 58.7764 21.1413C59.2644 20.9669 60.1713 13.1884 59.9718 10.8917C59.885 9.89283 59.7936 8.3169 59.7691 7.38909C59.7445 6.46127 59.546 5.70262 59.3286 5.70262C59.1108 5.70262 59.0183 7.57018 59.1223 9.85287L59.3124 14.0036L57.1088 13.0239C52.5197 10.9831 52.0579 9.27741 55.4704 6.97396C57.2253 5.78981 56.928 5.32123 54.9349 6.12814ZM38.8851 14.673C38.4588 15.097 38.3041 15.0389 38.3041 14.4551C38.3041 13.4235 39.0068 12.7256 39.2665 13.4993C39.3762 13.8272 39.2048 14.356 38.8851 14.673ZM54.3488 15.9428C54.2255 16.1613 54.087 18.4419 54.0405 21.0105C53.9386 26.595 53.2684 29.0536 51.8468 29.0536C51.2946 29.0536 50.8427 29.2871 50.8427 29.5725C50.8427 29.8579 51.1781 30.0914 51.5882 30.0914C52.9168 30.0914 54.3686 27.5825 54.7374 24.6501C55.0081 22.4992 55.3085 21.7889 55.9479 21.7889C56.6093 21.7889 56.659 21.6503 56.1715 21.1662C55.8267 20.8237 55.5446 19.5534 55.5446 18.3428C55.5446 16.3201 54.8827 14.9917 54.3488 15.9428ZM3.63094 18.199C4.5985 18.7927 5.39051 19.611 5.39051 20.0168C5.39051 20.4226 5.86071 21.6259 6.43539 22.6913C7.01007 23.7561 7.48027 25.2619 7.48027 26.0377C7.48027 26.8135 7.70231 27.9847 7.97345 28.64C8.24512 29.2954 8.99064 31.5833 9.63115 33.7238C10.2711 35.8643 11.1927 38.1994 11.6791 38.9129C12.165 39.6264 12.8886 41.1183 13.2867 42.2282C13.6847 43.3382 14.7448 44.8026 15.6418 45.4823C16.5712 46.1865 17.6757 47.7744 18.2091 49.1723C18.7237 50.522 19.8077 53.0569 20.618 54.8051C21.6018 56.928 22.19 59.2174 22.3881 61.6967C22.5511 63.7387 23.1634 66.8615 23.7485 68.6367C24.9605 72.3147 25.7395 82.6545 24.8456 83.203C24.5024 83.4137 24.3493 82.7355 24.423 81.3313C24.4867 80.1196 24.3639 78.3112 24.1508 77.3123C22.7323 70.6682 21.9544 67.6222 21.4403 66.6965C21.1159 66.1137 20.8939 64.3525 20.9461 62.7828L21.0412 59.9288L19.7644 63.5358C19.0622 65.5201 18.6066 67.261 18.7514 67.4053C18.8966 67.549 19.151 67.1521 19.3166 66.5221C19.7095 65.0302 20.5397 65.0458 20.547 66.5449C20.5501 67.1868 20.908 68.8769 21.3427 70.2998C21.7773 71.7232 22.2423 73.3577 22.376 73.9322C23.6477 79.4005 23.6309 80.4274 22.2872 79.32C21.8332 78.9454 21.5861 77.5609 21.5861 75.3893C21.5861 72.9395 21.41 72.0942 20.9331 72.2504C20.5741 72.3676 20.2095 73.0293 20.1238 73.7204C19.6693 77.3751 18.4113 74.9082 18.2503 70.0476C18.2174 69.0487 17.893 67.9979 17.5299 67.7125C17.1668 67.4271 16.5733 65.7479 16.2113 63.981C15.5728 60.8696 14.7944 59.1479 14.7944 60.8478C14.7944 62.1461 16.3946 68.6803 16.856 69.2646C17.5226 70.1094 18.486 76.2091 18.638 80.5451C18.7153 82.751 18.94 84.7167 19.1374 84.9123C19.3349 85.1085 19.4964 84.6679 19.4964 83.9336C19.4964 82.8834 19.7053 82.653 20.477 82.8533C21.292 83.065 21.4142 82.8808 21.2 81.7672C21.0579 81.0293 21.1572 80.4258 21.4205 80.4258C22.3447 80.4258 23.1534 81.6852 23.1534 83.1241C23.1534 84.0696 23.4272 84.5771 23.9371 84.5771C24.3681 84.5771 24.7207 84.7914 24.7207 85.0535C24.7207 85.3155 24.8576 85.8848 25.0253 86.3186C25.2651 86.9387 24.9955 87.0647 23.7636 86.9101C22.7376 86.7809 22.0971 86.9713 21.9079 87.4612C21.7052 87.9858 21.9967 88.2095 22.8849 88.2095C23.9214 88.2095 24.214 88.5431 24.4982 90.049L24.8461 91.8891L28.0487 91.8128C29.8098 91.7713 32.444 91.9031 33.9021 92.106L36.5524 92.4754L37.054 90.7314C37.5315 89.0698 37.6835 88.9806 40.2805 88.8311C41.7794 88.7445 43.0061 88.4528 43.0061 88.1825C43.0061 87.9116 42.6728 87.6906 42.2658 87.6906C41.1985 87.6906 40.9675 86.5635 41.7799 85.3186C42.1655 84.7276 42.6069 82.9882 42.7605 81.4532C42.9147 79.9178 43.1503 78.553 43.2845 78.4197C43.4925 78.2132 43.7683 86.6994 43.5902 87.8203C43.5562 88.0346 43.7448 88.2095 44.0097 88.2095C44.6899 88.2095 44.9861 86.2506 45.3832 79.1285C45.7468 72.6037 45.8858 71.6064 47.6584 62.7839C48.8271 56.9679 49.1155 51.6019 48.2305 52.1452C47.9431 52.3216 47.708 53.3708 47.708 54.4772C47.708 55.5835 47.4923 57.0525 47.2279 57.7421C46.9641 58.4318 46.3706 61.6573 45.9093 64.9109C44.4313 75.3337 43.9653 77.8395 43.5515 77.5858C43.1048 77.3118 43.2135 75.986 44.3362 68.002C44.7557 65.0219 45.2479 60.0015 45.4302 56.8454C45.7729 50.9138 47.0106 47.1916 48.7769 46.7786C50.1092 46.4672 52.8415 46.5798 53.481 46.9721C54.2302 47.4319 53.7856 53.0569 52.6002 58.1126C52.1618 59.9828 51.7042 65.0692 51.5725 69.5287C51.2606 80.129 50.8291 86.1862 50.4038 85.9262C50.2142 85.81 50.0475 89.3703 50.0329 93.8381C50.0188 98.3054 49.6223 104.879 49.1515 108.447C48.6813 112.015 48.1427 116.977 47.9552 119.474C47.7676 121.971 47.4547 124.014 47.2598 124.014C46.7614 124.014 46.835 128.288 47.347 129.074C47.5795 129.431 47.5727 129.722 47.3319 129.722C47.091 129.722 46.5989 131.874 46.2384 134.505C45.5258 139.702 44.4642 142.086 42.4267 143.065C40.28 144.096 35.0776 145.304 32.5202 145.364C28.6411 145.457 23.1137 143.441 20.4268 140.956C18.1077 138.81 18.0973 138.785 17.2342 133.095C15.9584 124.685 15.4245 119.815 15.0138 112.858C14.8122 109.433 14.5933 106.047 14.5274 105.334C14.4621 104.62 14.2511 100.884 14.0588 97.031C13.8666 93.178 13.4622 87.6906 13.1607 84.8365C12.3248 76.9341 12.1874 74.1408 12.6488 74.4241C13.2564 74.7972 14.3002 84.3462 14.5243 91.5824C15.0076 107.188 18.0738 133.257 19.8506 136.869C20.5914 138.374 21.5454 139.167 24.1518 140.44C25.9939 141.341 28.7148 142.228 30.199 142.412C33.4685 142.818 38.7576 142.037 41.3165 140.771C44.3143 139.287 44.5274 138.218 45.926 117.656C46.0974 115.137 46.4463 113.244 46.7102 113.406C46.9719 113.566 47.1856 113.32 47.1856 112.858C47.1856 112.396 46.9505 112.162 46.6632 112.339C46.3758 112.515 46.1407 112.412 46.1407 112.11C46.1407 111.808 46.3758 111.56 46.6632 111.56C46.9505 111.56 47.1856 111.313 47.1856 111.011C47.1856 110.709 46.9307 110.618 46.6193 110.809C46.2578 111.031 46.1203 110.714 46.24 109.932C46.3424 109.258 46.672 108.751 46.9714 108.805C47.2708 108.859 47.5712 107.851 47.638 106.565C47.7049 105.28 47.9943 103.615 48.2812 102.867C48.568 102.117 48.7884 99.9726 48.7717 98.1004C48.7399 94.5599 49.0141 91.4677 49.5569 89.2473C49.8338 88.113 49.6405 88.2105 48.0152 90.0257C46.9928 91.1673 46.1527 92.6129 46.1486 93.2382C46.1407 94.3383 45.3895 95.1504 44.3122 95.222C44.0248 95.2412 42.0265 95.8312 39.8715 96.5333C33.261 98.6863 25.8184 98.1912 19.0988 95.1525C18.1615 94.7291 17.1788 94.5148 16.9145 94.6772C16.0561 95.2044 15.7583 93.9678 15.5096 88.8394C15.2787 84.0846 14.9302 80.9328 13.7892 73.2814C13.5223 71.4928 13.1566 66.4723 12.9763 62.1249C12.6367 53.9198 11.8839 47.6135 11.0574 46.048C10.1113 44.2556 11.479 45.1819 12.5897 47.0858C13.6482 48.8994 13.7265 48.9419 13.7375 47.7064C13.7454 46.8683 13.0923 45.7485 11.9617 44.6604C10.5705 43.3206 9.97596 42.1198 9.27955 39.2398C8.21848 34.8488 7.53147 33.344 7.47295 35.2806C7.44997 36.0356 6.89984 34.9505 6.15798 32.686C4.80225 28.5513 4.56506 27.2655 5.39051 28.5347C5.80011 29.1641 5.89832 29.0894 5.90512 28.1455C5.90982 27.4159 5.59792 26.978 5.07339 26.978C4.54155 26.978 4.34407 26.6926 4.53476 26.1996C4.73903 25.6703 4.50655 25.4212 3.807 25.4212C2.63883 25.4212 2.48785 24.8795 3.40211 23.9714C3.88589 23.4909 3.7673 23.1116 2.8734 22.2844C1.87555 21.3613 1.67859 21.327 1.4064 22.0317C1.23347 22.479 1.339 23.4831 1.64045 24.263C1.94242 25.043 2.4659 27.432 2.80444 29.5725C3.14246 31.713 3.76051 34.2323 4.17793 35.1716C4.59536 36.1103 4.85083 37.2778 4.7453 37.7661C4.38482 39.4401 2.40426 33.9916 1.53701 28.9389C0.368312 22.1282 0.406972 17.1187 1.62843 17.1187C1.76218 17.1187 2.66338 17.6049 3.63094 18.199ZM34.634 19.4875C33.9705 21.2217 33.982 23.7156 34.6554 24.1292C34.9475 24.3087 35.0708 24.6413 34.9292 24.8686C34.7876 25.0959 34.6377 27.0605 34.5948 29.2342C34.5525 31.4084 34.332 33.0726 34.1048 32.933C33.8775 32.7939 33.5515 32.973 33.3807 33.3315C33.2093 33.6901 33.1973 33.166 33.3535 32.1671C33.5092 31.1682 33.7417 28.9498 33.8697 27.2374L34.1022 24.124L33.004 28.5347C31.99 32.6082 31.4231 33.6948 30.302 33.716C29.791 33.7254 30.4326 31.4562 31.0036 31.2341C31.2225 31.149 31.2868 30.6441 31.1467 30.1122C31.0067 29.5803 31.3844 27.212 31.9858 24.8494C32.5876 22.4868 33.0798 20.1481 33.0798 19.6525C33.0798 19.1569 33.4909 18.6448 33.994 18.514C34.4971 18.3838 34.9611 18.2499 35.0258 18.2167C35.0906 18.1835 34.9146 18.7553 34.634 19.4875ZM37.7817 19.1943C37.7817 19.4797 37.6783 19.7132 37.5513 19.7132C37.4244 19.7132 37.1757 19.4797 36.998 19.1943C36.8204 18.9089 36.9244 18.6754 37.2284 18.6754C37.5325 18.6754 37.7817 18.9089 37.7817 19.1943ZM39.1191 31.259C38.6469 47.3831 38.3073 55.9898 38.0591 58.1126C37.9426 59.1115 37.6015 64.599 37.3011 70.307C36.7191 81.3671 36.3356 86.3985 35.8664 89.1176C35.6334 90.4688 35.3278 90.804 34.3279 90.804C33.6414 90.804 33.0798 90.5705 33.0798 90.2851C33.0798 89.9997 32.7861 89.8248 32.4267 89.8959C31.4289 90.0942 31.2982 82.1896 32.2381 78.5043C32.6843 76.7566 33.0427 72.6691 33.0944 68.7503C33.1435 65.0401 33.3577 59.0856 33.5714 55.5181C33.9329 49.4733 33.9689 49.8972 34.1027 61.745C34.1816 68.7373 34.3247 74.1081 34.4214 73.68C34.6418 72.7023 35.2589 46.708 35.1821 41.6372C35.147 39.3358 35.3362 37.8751 35.6695 37.8751C35.9694 37.8751 36.2144 38.5897 36.2144 39.4625C36.2144 40.3353 36.4275 40.919 36.6877 40.7592C36.9479 40.5994 37.0425 40.0166 36.8967 39.4645C36.6219 38.4194 38.2101 20.8029 38.6422 20.1086C39.3553 18.9629 39.429 20.6883 39.1191 31.259ZM47.7248 27.5918C47.7133 28.5534 48.0429 29.0894 48.7921 29.3255C50.432 29.8424 50.5146 29.3323 49.0575 27.6863L47.741 26.1996L47.7248 27.5918ZM34.6471 34.5022C34.6471 34.9303 34.3284 35.2806 33.9392 35.2806C33.1931 35.2806 32.9173 39.2336 32.2731 59.1505C32.1117 64.145 31.6289 72.529 31.2 77.782C30.7711 83.0349 30.5721 88.0201 30.758 88.8607C31.0715 90.2794 31.0083 90.3614 29.8673 90.0075C29.1918 89.7979 28.4954 89.4045 28.3198 89.1337C28.1443 88.8623 27.8721 89.1274 27.7154 89.7221C27.5592 90.3173 27.056 90.804 26.5984 90.804C25.9615 90.804 25.752 90.2244 25.7076 88.3392C25.6293 84.9865 25.7912 83.3774 26.2698 82.7609C26.4913 82.4755 26.8157 80.3739 26.9907 78.0907C27.1652 75.8075 27.5435 72.3048 27.8313 70.307C28.1187 68.3092 28.5105 63.9893 28.7022 60.7072C28.8935 57.4251 29.3386 52.7549 29.6912 50.329C30.3197 46.0049 30.3286 46.0967 30.1619 54.9992L29.9916 64.0801L31.2706 49.8101C31.9738 41.9615 32.667 35.2333 32.8107 34.8587C32.9549 34.4835 33.3091 34.3221 33.5985 34.5001C33.888 34.6776 34.1246 34.5754 34.1246 34.2734C34.1246 33.9714 34.2422 33.7238 34.3859 33.7238C34.5295 33.7238 34.6471 34.0741 34.6471 34.5022ZM30.8542 35.5151C30.0569 36.375 29.7064 36.1279 30.1379 35.0107C30.315 34.552 30.6948 34.3211 30.9811 34.4965C31.3123 34.6999 31.2659 35.0714 30.8542 35.5151ZM30.1343 37.6157C29.9686 38.0438 30.0935 38.394 30.4117 38.394C30.7298 38.394 30.99 38.6415 30.99 38.9436C30.99 39.2456 30.7748 39.3613 30.512 39.1999C30.2492 39.0385 29.9153 39.1999 29.7696 39.5585C29.6244 39.917 29.4864 39.6067 29.464 38.8699C29.4415 38.1325 29.5794 37.3733 29.7712 37.1834C30.3296 36.6282 30.4571 36.7797 30.1343 37.6157ZM29.4812 42.1753C29.0549 42.5993 28.9002 42.5412 28.9002 41.9574C28.9002 40.9258 29.6029 40.2279 29.8626 41.0016C29.9723 41.3295 29.8009 41.8583 29.4812 42.1753ZM30.99 42.3896C30.99 43.3533 30.8218 43.6236 30.4503 43.2547C30.1536 42.9599 30.0611 42.3294 30.245 41.8536C30.7293 40.6009 30.99 40.7888 30.99 42.3896ZM33.959 42.6429C33.7924 43.0564 33.6685 42.9335 33.6435 42.3289C33.621 41.782 33.7443 41.4758 33.9177 41.6481C34.0912 41.8204 34.11 42.2682 33.959 42.6429ZM29.2602 45.529C29.1291 46.0282 29.0215 45.6199 29.0215 44.6209C29.0215 43.622 29.1291 43.2137 29.2602 43.7129C29.3919 44.212 29.3919 45.0299 29.2602 45.529ZM33.9642 45.5192C33.8315 46.0241 33.7145 45.7366 33.7041 44.8804C33.6936 44.0242 33.8018 43.6112 33.9449 43.9625C34.0881 44.3138 34.0969 45.0143 33.9642 45.5192ZM9.58465 45.4377C10.5637 47.9959 11.5281 64.6146 10.5611 62.2639C10.2675 61.5504 9.8302 57.5808 9.58883 53.4424C9.34799 49.3041 8.98489 45.5093 8.78219 45.0101C8.57948 44.5109 8.56172 44.102 8.74353 44.102C8.92481 44.102 9.30358 44.7029 9.58465 45.4377ZM41.2585 54.8694C40.5726 57.3524 40.4237 59.6481 40.8756 60.7648L41.3777 62.0045L41.41 60.7072C41.4283 59.9937 41.5616 58.1842 41.7057 56.6856C41.9659 53.9956 41.746 53.1041 41.2585 54.8694ZM28.2012 57.7235C28.0565 58.0805 27.9379 57.7883 27.9379 57.0748C27.9379 56.3613 28.0565 56.0697 28.2012 56.4262C28.3465 56.7832 28.3465 57.367 28.2012 57.7235ZM36.3356 60.7072C36.3356 61.7061 36.4432 62.1145 36.5744 61.6153C36.706 61.1161 36.706 60.2983 36.5744 59.7991C36.4432 59.2999 36.3356 59.7083 36.3356 60.7072ZM27.695 63.1622C27.5623 63.6671 27.4453 63.3796 27.4348 62.5234C27.4244 61.6672 27.5325 61.2541 27.6757 61.6054C27.8188 61.9567 27.8277 62.6573 27.695 63.1622ZM23.8321 63.9618C24.0134 65.1293 23.9381 65.7977 23.645 65.6177C23.3744 65.4521 23.1534 64.474 23.1534 63.4439C23.1534 61.1472 23.4272 61.3563 23.8321 63.9618ZM40.6551 62.7828C40.8327 63.0682 41.0814 63.3017 41.2084 63.3017C41.3353 63.3017 41.4388 63.0682 41.4388 62.7828C41.4388 62.4974 41.1896 62.2639 40.8855 62.2639C40.5815 62.2639 40.4775 62.4974 40.6551 62.7828ZM52.8995 68.3611C52.877 70.3724 52.7323 71.0065 52.4549 70.307C52.0678 69.3299 52.2867 65.3774 52.7282 65.3774C52.8405 65.3774 52.9173 66.7198 52.8995 68.3611ZM26.4772 68.7503C26.6423 69.1784 26.5498 69.5287 26.2719 69.5287C25.9934 69.5287 25.7656 69.1784 25.7656 68.7503C25.7656 68.3222 25.8581 67.9719 25.9709 67.9719C26.0838 67.9719 26.3116 68.3222 26.4772 68.7503ZM35.7332 72.9447C35.7583 73.5492 35.8821 73.6722 36.0488 73.2586C36.1998 72.8839 36.181 72.4361 36.0075 72.2639C35.8341 72.0916 35.7108 72.3977 35.7332 72.9447ZM38.1385 73.2586C37.9719 73.6722 37.8481 73.5492 37.823 72.9447C37.8005 72.3977 37.9238 72.0916 38.0973 72.2639C38.2707 72.4361 38.2895 72.8839 38.1385 73.2586ZM20.5794 78.0009C19.9096 78.6662 19.8255 77.2335 20.4179 75.2367C20.78 74.0152 20.8124 74.0422 20.9712 75.6918C21.0637 76.6559 20.8876 77.6948 20.5794 78.0009ZM34.1659 77.6149C34.191 78.2194 34.3148 78.3424 34.4815 77.9288C34.6324 77.5541 34.6136 77.1063 34.4402 76.9341C34.2667 76.7618 34.1434 77.0679 34.1659 77.6149ZM34.1659 80.2094C34.191 80.814 34.3148 80.9369 34.4815 80.5234C34.6324 80.1487 34.6136 79.7009 34.4402 79.5286C34.2667 79.3563 34.1434 79.6625 34.1659 80.2094ZM20.28 84.5771C20.1024 84.8625 20.2064 85.096 20.5104 85.096C20.8145 85.096 21.0637 84.8625 21.0637 84.5771C21.0637 84.2917 20.9602 84.0582 20.8333 84.0582C20.7063 84.0582 20.4576 84.2917 20.28 84.5771ZM20.0177 86.3694C20.7361 86.7638 21.4346 86.9765 21.5704 86.8416C21.9215 86.4924 20.4294 85.6289 19.4964 85.6414C19.0418 85.6471 19.2613 85.9532 20.0177 86.3694ZM43.2673 93.3986C43.0897 93.684 43.2971 93.9175 43.7281 93.9175C44.1591 93.9175 44.657 93.684 44.8346 93.3986C45.0123 93.1132 44.8048 92.8797 44.3738 92.8797C43.9428 92.8797 43.4449 93.1132 43.2673 93.3986ZM47.5315 98.1985C47.3867 98.5555 47.2681 98.2634 47.2681 97.5499C47.2681 96.8364 47.3867 96.5447 47.5315 96.9012C47.6767 97.2582 47.6767 97.842 47.5315 98.1985ZM47.708 102.48C47.708 103.193 47.4729 103.777 47.1856 103.777C46.602 103.777 46.4693 102.066 47.0116 101.528C47.5874 100.956 47.708 101.121 47.708 102.48ZM47.009 105.982C46.8643 106.339 46.7457 106.047 46.7457 105.334C46.7457 104.62 46.8643 104.328 47.009 104.685C47.1543 105.042 47.1543 105.626 47.009 105.982ZM46.7948 117.528C46.8006 118.67 46.9077 119.075 47.0325 118.43C47.1574 117.784 47.1527 116.85 47.0221 116.354C46.8915 115.858 46.7891 116.386 46.7948 117.528Z" fill="#747171"/>
</svg>
