<svg width="1280" height="207" viewBox="0 0 1280 207" fill="none" xmlns="http://www.w3.org/2000/svg">
<path d="M26.7296 53.3111C129.1 57.1321 194.322 1.99999 251.617 2C315.871 2.00001 374.679 42.3933 438.933 53.3111C511.354 60.9526 585.879 3.43875 645.307 5.8212C726.985 9.09568 799.406 53.3105 838.612 53.3105C881.084 53.3105 910.504 51.6438 949.15 30.3843C993.801 5.8212 997.061 5.16447 1023.75 5.8212C1036.35 6.13128 1067.16 4.68591 1108.69 16.1919C1155.13 29.0548 1212.1 54.924 1214.33 53.3111C1218.56 50.2552 1238.84 53.3111 1238.84 53.3111C1238.84 53.3111 1273.12 44.279 1279.5 43C1294.93 99.2236 1301.56 218.816 1302 219.253C1302.44 219.689 417.515 237.266 -25 246L-9.56346 188.5L-3 53.3111H26.7296Z" fill="#FFFFF8"/>
<path fill-rule="evenodd" clip-rule="evenodd" d="M245.712 0.23345C244.957 0.989089 245.181 2.75463 246.073 3.08726C246.528 3.25658 249.387 3.4398 252.428 3.49403C255.469 3.54826 258.993 3.679 260.26 3.78385C261.527 3.8893 263.061 3.61634 263.67 3.17766C264.676 2.45215 264.688 2.29184 263.804 1.41809C263.048 0.672698 260.963 0.379833 254.504 0.112889C249.924 -0.076322 245.968 -0.0220454 245.712 0.23345ZM220.294 2.40332C217.68 3.28912 216.729 3.90982 216.729 4.73053C216.729 6.5654 217.717 6.65574 222.753 5.28185C227.189 4.07186 229.435 2.67268 228.727 1.5591C228.206 0.740193 223.944 1.16682 220.294 2.40332ZM1020.41 1.79228C1018.01 2.31592 1016.69 3.58678 1017.39 4.69493C1017.99 5.62592 1027.78 4.5473 1029.31 3.38311C1029.71 3.07338 1029.89 2.43346 1029.7 1.96043C1029.31 0.967978 1024.58 0.88238 1020.41 1.79228ZM639.542 2.99384C634.344 3.69043 632.103 4.58105 632.103 5.95012C632.103 7.32461 633.521 7.61685 637.062 6.97389C638.597 6.69489 640.816 6.3382 641.995 6.18153C643.174 6.02486 644.796 5.47708 645.601 4.96489C646.777 4.21588 646.92 3.86338 646.327 3.1692C645.517 2.21953 645.355 2.2153 639.542 2.99384ZM666.875 4.3509C665.738 5.68261 667.512 6.90159 671.274 7.37522C673.087 7.603 676.423 8.32132 678.688 8.9709C683.956 10.4816 686.301 9.82897 683.714 7.57169C682.202 6.25143 678.332 4.88657 673.991 4.14178C669.113 3.30539 667.733 3.34579 666.875 4.3509ZM1037.17 4.38224C1036.55 5.96763 1038.14 6.96486 1041.9 7.33123C1043.77 7.51502 1046.98 7.82598 1049.03 8.02363C1053.2 8.42615 1054.99 7.76394 1053.99 6.193C1053.64 5.66092 1053.23 5.2222 1053.06 5.21859C1052.89 5.21497 1051.49 4.97512 1049.96 4.68588C1048.42 4.39604 1045.01 3.97788 1042.37 3.75553C1038.19 3.40302 1037.53 3.48258 1037.17 4.38224ZM998.712 5.35776C995.237 6.67139 994.213 8.03931 995.655 9.44152C996.471 10.2339 997.063 10.1001 1000.79 8.27968C1007.34 5.08419 1005.67 2.72989 998.712 5.35776ZM281.36 5.76997C280.022 6.20444 280.515 7.66385 282.29 8.52433C283.228 8.97928 285.598 9.41255 287.557 9.48728C289.516 9.5626 291.937 9.72412 292.935 9.84704C294.983 10.0989 296.713 8.70209 295.643 7.66143C294.921 6.95942 294.262 6.82267 288.645 6.20683C282.304 5.51205 282.178 5.50423 281.36 5.76997ZM604.204 7.22457C599.065 9.1902 597.584 10.4274 598.744 11.7856C599.656 12.8528 601.441 12.4574 606.839 9.99284C611.088 8.05312 611.894 7.01549 609.939 6.00617C609.164 5.60605 607.526 5.95373 604.204 7.22457ZM1068.98 6.74012C1068.32 8.42494 1070.23 9.41679 1074.96 9.84763C1080.4 10.3436 1081.81 10.1471 1082.06 8.8552C1082.28 7.74705 1079.3 6.85584 1073.14 6.193C1070.01 5.85556 1069.3 5.94893 1068.98 6.74012ZM309.015 9.33722C308.363 9.50534 308.108 10.0146 308.307 10.7539C308.63 11.9549 309.211 12.2164 312.823 12.7877C319.449 13.8349 319.478 13.8349 319.901 12.7635C320.392 11.5204 319.256 10.7696 315.303 9.72472C312.452 8.97149 310.82 8.87082 309.015 9.33722ZM195.341 10.6027C193.816 10.8998 189.41 12.2784 185.886 13.5613C183.028 14.602 182.305 16.3947 184.472 17.063C185.473 17.3721 191.088 15.8048 195.651 13.9428C196.162 13.7343 196.834 13.621 197.144 13.6909C197.928 13.8687 198.698 12.5147 198.335 11.5963C197.956 10.6352 196.928 10.2942 195.341 10.6027ZM979.001 13.1377C975.268 14.843 974.227 15.8295 974.755 17.1648C975.244 18.4062 976.458 18.1554 981.196 15.8367C984.371 14.282 985.505 13.4203 985.357 12.6731C985.057 11.1606 983.002 11.3113 979.001 13.1377ZM1101.04 13.3957C1100.44 14.9058 1101.19 15.3734 1106.42 16.7442C1111.78 18.1483 1113.19 18.0729 1112.93 16.3959C1112.79 15.4698 1109.88 14.0465 1106.99 13.4903C1101.99 12.5286 1101.39 12.5189 1101.04 13.3957ZM708.683 14.1278C707.758 15.0268 707.761 15.1907 708.721 16.2223C709.294 16.8382 710.005 17.1967 710.301 17.019C710.596 16.8418 710.838 16.9352 710.838 17.2274C710.838 17.7203 713.484 19.0244 718.992 21.2449C720.981 22.047 721.3 22.05 721.608 21.2708C722.282 19.5619 721.209 18.573 715.751 15.8729C712.725 14.3767 710.123 13.1522 709.968 13.1522C709.813 13.1522 709.234 13.5909 708.683 14.1278ZM580.336 15.665C578.207 16.3628 573.345 18.3634 571.966 19.1082C571.455 19.3847 571.037 20.1235 571.037 20.7502C571.037 21.6342 571.453 21.8698 572.896 21.8005C573.919 21.7511 575.593 21.3672 576.616 20.9472C577.639 20.5266 578.625 20.1602 578.806 20.1325C578.987 20.1048 580.313 19.5661 581.751 18.9358C583.747 18.0609 584.366 17.4553 584.366 16.3748C584.366 14.8111 583.439 14.6478 580.336 15.665ZM334.924 20.0644C334.346 21.5305 336.131 22.6411 340.682 23.6474C345.765 24.7712 347.319 24.8357 347.884 23.9462C348.536 22.9219 347.456 22.247 342.616 20.6556C337.463 18.9611 335.422 18.8044 334.924 20.0644ZM953.242 23.7155C947.349 26.6965 946.268 27.7353 947.673 29.0634C948.476 29.8221 949.064 29.7076 952.312 28.159C959.163 24.8936 961.585 23.1743 961.093 21.9282C960.517 20.4712 958.949 20.8285 953.242 23.7155ZM162.307 23.2105C156.386 26.121 155.199 26.826 154.67 27.7456C154.112 28.7145 155.034 29.8317 156.333 29.76C157.304 29.707 163.594 26.8327 164.445 26.0535C164.842 25.6902 166.028 25.046 167.08 24.6224C168.221 24.1632 168.992 23.4124 168.992 22.761C168.992 21.2064 165.969 21.41 162.307 23.2105ZM1129.64 23.2786C1128.62 24.2657 1129.61 25.8643 1132.13 27.2984C1135.61 29.2809 1139.23 29.9908 1139.23 28.6904C1139.23 27.7841 1137.35 25.8064 1136.49 25.8064C1136.23 25.8064 1135.13 25.196 1134.06 24.4506C1132.15 23.128 1130.3 22.6369 1129.64 23.2786ZM735.944 24.6055C735.731 24.9393 735.924 25.3159 736.372 25.4431C736.82 25.5696 738.441 26.0939 739.976 26.6073C746.468 28.7796 749.895 29.1279 749.895 27.6142C749.895 26.97 748.533 26.4771 743.076 25.1466C737.757 23.8499 736.485 23.7534 735.944 24.6055ZM550.005 27.4816C544.905 29.1833 543.17 30.5976 544.543 31.9323C545.138 32.5108 545.928 32.4596 548.249 31.6901C556.285 29.0261 557.352 28.3818 556.654 26.6145C556.221 25.5184 555.673 25.5901 550.005 27.4816ZM761.71 31.208C760.287 32.0631 761.633 34.095 764.333 35.1676C768.708 36.906 770.846 37.226 771.667 36.2655C772.549 35.2327 771.463 34.2775 767.254 32.3854C763.802 30.8338 762.717 30.603 761.71 31.208ZM129.319 33.6304C124.213 35.9455 122.187 37.4887 122.862 38.5492C123.498 39.5495 126.29 39.0404 130.103 37.2278C135.398 34.7114 136.907 33.5219 136.409 32.2595C135.841 30.8205 135.273 30.9302 129.319 33.6304ZM369.395 32.7729C368.22 34.01 368.45 34.6373 370.324 35.3182C371.262 35.6587 372.587 36.1425 373.269 36.3938C373.951 36.6445 374.649 36.8801 374.819 36.9169C374.99 36.953 376.481 37.358 378.132 37.816C380.677 38.5222 381.216 38.5227 381.662 37.8219C382.443 36.5938 381.329 35.6472 377.438 34.2324C375.531 33.5388 373.685 32.7994 373.336 32.5904C372.133 31.8673 370.168 31.9582 369.395 32.7729ZM929.745 33.0899C928.926 33.4081 927.612 33.7202 926.825 33.7835C924.726 33.9528 922.594 35.7032 923.058 36.8771C923.271 37.4164 923.899 37.8581 924.454 37.8581C926.452 37.8581 932.149 35.9533 933.536 34.8211C934.749 33.8316 934.819 33.5768 934.023 33.0591C932.889 32.3198 931.703 32.3288 929.745 33.0899ZM1153.49 33.5665C1153.49 34.747 1154.71 36.0341 1156.09 36.3082C1156.54 36.3956 1157.74 36.8258 1158.76 37.2633C1159.78 37.7002 1160.76 38.0853 1160.93 38.1184C1161.1 38.151 1161.54 38.3673 1161.92 38.5987C1162.29 38.8301 1163.71 39.1928 1165.08 39.4055C1167.04 39.7092 1167.65 39.5863 1167.95 38.8258C1168.44 37.5779 1166.7 36.4824 1160.64 34.2137C1155.05 32.1215 1153.49 31.9805 1153.49 33.5665ZM511.52 40.3624C509.133 41.3615 506.403 42.4907 505.452 42.871C503.288 43.7375 503.347 45.8923 505.543 46.1942C507.018 46.3967 514.043 43.3844 516.647 41.4326C517.933 40.4685 517.969 40.2955 517.068 39.4194C516.525 38.8921 516.032 38.4799 515.971 38.5028C515.91 38.5263 513.907 39.3634 511.52 40.3624ZM790.654 39.1988C790.093 40.6191 790.905 41.2265 794.842 42.3347C796.888 42.9107 799.071 43.6453 799.693 43.967C801.438 44.8709 804.96 45.1493 805.423 44.4208C806.045 43.4422 804.571 42.3551 800.253 40.6089C795.263 38.5914 791.133 37.9846 790.654 39.1988ZM102.037 41.752C92.8427 44.1298 91.4974 44.6456 91.4974 45.7899C91.4974 46.4196 91.9164 47.0909 92.4279 47.2819C93.3176 47.6139 101.333 45.9743 103.277 45.0632C103.788 44.8234 104.98 44.275 105.926 43.8448C109.389 42.2696 106.353 40.6354 102.037 41.752ZM403.957 42.0684C401.797 43.4067 404.662 45.1108 412.494 47.1451C415.374 47.8935 415.872 47.8844 416.709 47.0709C417.561 46.2424 417.544 46.0731 416.542 45.4097C415.454 44.689 406.26 41.4646 405.347 41.4826C405.094 41.4881 404.469 41.7514 403.957 42.0684ZM1186.86 43.6899C1187.22 44.3467 1189.79 46.0146 1192.56 47.397C1198.84 50.5274 1200.87 50.707 1200.16 48.0707C1199.75 46.5395 1193.11 43.3982 1189.22 42.8897C1186.35 42.5148 1186.23 42.554 1186.86 43.6899ZM893.416 45.4959C886.291 47.2759 885.07 47.9972 886.732 49.4488C887.597 50.2044 888.372 50.302 890.316 49.9001C895.688 48.7878 898.346 48.0086 899.992 47.0643C901.376 46.2695 901.592 45.8646 901.106 44.9806C900.374 43.6513 900.952 43.6128 893.416 45.4959ZM481.762 47.397C481.08 47.5295 479.058 48.1683 477.268 48.8173C474.861 49.6892 474.013 50.3045 474.013 51.177C474.013 53.1023 475.645 53.1649 480.548 51.427C485.51 49.6675 485.995 49.3174 485.434 47.8959C485.082 47.0041 484.317 46.8998 481.762 47.397ZM871.097 47.1861C870.756 47.2933 868.943 47.826 867.068 48.3701C861.751 49.9133 860.248 50.5943 860.248 51.4596C860.248 52.9998 862.171 53.3951 865.526 52.543C869.621 51.5042 873.456 49.9628 873.984 49.1433C874.967 47.6236 873.302 46.4949 871.097 47.1861ZM828.76 48.2515C827.543 49.676 829.063 50.4292 836.029 51.8549C840.625 52.7961 842.479 52.9594 842.985 52.4683C844.229 51.2589 843.008 49.9911 839.667 49.0197C834.507 47.5199 829.675 47.1795 828.76 48.2515ZM68.8688 49.3632C67.5049 49.588 64.9519 49.9369 63.195 50.1382C59.102 50.6082 58.226 50.9534 58.226 52.0977C58.226 53.7235 60.624 53.9904 67.4764 53.1281C75.0288 52.1772 77.2383 51.5295 77.2383 50.2665C77.2383 48.6914 74.6468 48.4117 68.8688 49.3632ZM1247.41 49.7013C1243.81 50.763 1243.26 51.151 1243.91 52.1803C1244.28 52.7587 1245.17 52.7907 1247.74 52.3165C1251.49 51.6265 1252.4 51.033 1251.85 49.6488C1251.41 48.5305 1251.39 48.5311 1247.41 49.7013ZM31.7301 49.838C29.8404 50.1291 29.2626 50.5087 29.099 51.5669C28.8553 53.1414 28.3495 53.0595 37.5608 52.9372C44.8299 52.8401 46.7462 52.2821 45.6625 50.5786C45.0729 49.6512 36.0555 49.1722 31.7301 49.838ZM440.225 49.7706C437.146 50.2328 436.312 50.5599 436.422 51.2637C436.674 52.8787 437.497 53.3535 440.052 53.3578C441.511 53.3602 444.847 53.5518 447.466 53.7844C451.828 54.1719 452.283 54.1067 452.887 53.0082C453.471 51.9483 453.279 51.7229 451.24 51.0685C448.686 50.2496 442.159 49.4801 440.225 49.7706ZM1214.71 49.7374C1213.53 50.0218 1213.23 52.0116 1214.28 52.6407C1214.87 52.9944 1221.08 53.5072 1227.57 53.7386C1229.67 53.8127 1230.08 53.6271 1230.24 52.5388C1230.4 51.4464 1229.98 51.1529 1227.45 50.6033C1224.08 49.87 1216.35 49.3445 1214.71 49.7374Z" fill="black"/>
</svg>
