<svg width="301" height="112" viewBox="0 0 301 112" fill="none" xmlns="http://www.w3.org/2000/svg">
<path d="M287.366 50.7907C287.366 57.1367 284.009 63.3817 277.504 69.2625C270.998 75.1434 261.487 80.5196 249.584 85.0706C225.791 94.1678 192.803 99.8314 156.279 99.8314C119.755 99.8314 86.7669 94.1678 62.974 85.0706C51.0716 80.5196 41.5599 75.1434 35.0544 69.2625C28.5489 63.3817 25.1919 57.1367 25.1919 50.7907C25.1919 44.4447 28.5489 38.1997 35.0544 32.3189C41.5599 26.438 51.0716 21.0618 62.974 16.5108C86.7669 7.41356 119.755 1.75 156.279 1.75C192.803 1.75 225.791 7.41356 249.584 16.5108C261.487 21.0618 270.998 26.438 277.504 32.3189C284.009 38.1997 287.366 44.4447 287.366 50.7907Z" stroke="black" stroke-width="3.5"/>
<path d="M299.087 56.6513C299.087 62.8445 295.505 68.9929 288.464 74.8196C281.434 80.6371 271.155 85.9543 258.3 90.4535C232.607 99.4463 196.997 105.041 157.581 105.041C118.165 105.041 82.556 99.4463 56.8623 90.4535C44.0074 85.9543 33.7292 80.6371 26.699 74.8196C19.6576 68.9929 16.0756 62.8445 16.0756 56.6513C16.0756 50.458 19.6576 44.3096 26.699 38.4829C33.7292 32.6655 44.0074 27.3482 56.8623 22.849C82.556 13.8562 118.165 8.26172 157.581 8.26172C196.997 8.26172 232.607 13.8562 258.3 22.849C271.155 27.3482 281.434 32.6655 288.464 38.4829C295.505 44.3096 299.087 50.458 299.087 56.6513Z" stroke="black" stroke-width="3.5"/>
<path d="M289.971 61.8605C289.971 68.0537 286.389 74.2021 279.348 80.0288C272.317 85.8463 262.039 91.1635 249.184 95.6627C223.491 104.656 187.881 110.25 148.465 110.25C109.049 110.25 73.4398 104.656 47.7461 95.6627C34.8912 91.1635 24.613 85.8463 17.5828 80.0288C10.5414 74.2021 6.95935 68.0537 6.95935 61.8605C6.95935 55.6673 10.5414 49.5189 17.5828 43.6922C24.613 37.8747 34.8912 32.5574 47.7461 28.0582C73.4398 19.0654 109.049 13.4709 148.465 13.4709C187.881 13.4709 223.491 19.0654 249.184 28.0582C262.039 32.5574 272.317 37.8747 279.348 43.6922C286.389 49.5189 289.971 55.6673 289.971 61.8605Z" stroke="black" stroke-width="3.5"/>
<path d="M284.762 51.4418C284.762 57.635 281.18 63.7834 274.138 69.6101C267.108 75.4276 256.83 80.7448 243.975 85.244C218.281 94.2368 182.672 99.8313 143.256 99.8313C103.84 99.8313 68.2304 94.2368 42.5368 85.244C29.6819 80.7448 19.4037 75.4276 12.3734 69.6101C5.33204 63.7834 1.75 57.635 1.75 51.4418C1.75 45.2486 5.33204 39.1002 12.3734 33.2735C19.4037 27.456 29.6819 22.1387 42.5368 17.6395C68.2304 8.64674 103.84 3.05225 143.256 3.05225C182.672 3.05225 218.281 8.64674 243.975 17.6395C256.83 22.1387 267.108 27.456 274.138 33.2735C281.18 39.1002 284.762 45.2486 284.762 51.4418Z" stroke="black" stroke-width="3.5"/>
</svg>
