<svg width="30" height="30" viewBox="0 0 30 30" fill="none" xmlns="http://www.w3.org/2000/svg">
<path d="M28.3312 13.6047C28.3312 20.8548 22.6118 26.7093 15.5844 26.7093C8.55704 26.7093 2.83765 20.8548 2.83765 13.6047C2.83765 6.3545 8.55704 0.5 15.5844 0.5C22.6118 0.5 28.3312 6.3545 28.3312 13.6047Z" stroke="black"/>
<path d="M29.5 15.1744C29.5 22.2869 23.3575 28.1046 15.7143 28.1046C8.07113 28.1046 1.92859 22.2869 1.92859 15.1744C1.92859 8.06184 8.07113 2.24414 15.7143 2.24414C23.3575 2.24414 29.5 8.06184 29.5 15.1744Z" stroke="black"/>
<path d="M28.591 16.5698C28.591 23.6823 22.4484 29.5 14.8052 29.5C7.16207 29.5 1.01953 23.6823 1.01953 16.5698C1.01953 9.45723 7.16207 3.63953 14.8052 3.63953C22.4484 3.63953 28.591 9.45723 28.591 16.5698Z" stroke="black"/>
<path d="M28.0714 13.7791C28.0714 20.8916 21.9289 26.7093 14.2857 26.7093C6.64254 26.7093 0.5 20.8916 0.5 13.7791C0.5 6.66658 6.64254 0.848877 14.2857 0.848877C21.9289 0.848877 28.0714 6.66658 28.0714 13.7791Z" stroke="black"/>
</svg>
