<svg width="272" height="352" viewBox="0 0 272 352" fill="none" xmlns="http://www.w3.org/2000/svg">
<rect x="44.0616" y="3.38724" width="254.157" height="254.157" transform="rotate(28.3465 44.0616 3.38724)" stroke="#D9D9D9" stroke-width="5"/>
<path d="M-56.9888 223.784L45.8037 173.391L75.9844 220.711L172.896 167.942L205.308 214.078" stroke="#D9D9D9" stroke-width="5"/>
<rect x="48.6036" y="18.5713" width="231.743" height="231.743" transform="rotate(28.3465 48.6036 18.5713)" stroke="#D9D9D9" stroke-width="5"/>
<circle cx="112.396" cy="128.14" r="28.3187" transform="rotate(28.3465 112.396 128.14)" stroke="#D9D9D9" stroke-width="5"/>
<rect x="132.982" y="131.287" width="14.0085" height="14.0085" transform="rotate(28.3465 132.982 131.287)" fill="#D9D9D9"/>
<rect x="86.1331" y="106.013" width="14.0085" height="14.0085" transform="rotate(28.3465 86.1331 106.013)" fill="#D9D9D9"/>
<rect x="122.195" y="95.2254" width="14.0085" height="14.0085" transform="rotate(28.3465 122.195 95.2254)" fill="#D9D9D9"/>
<rect x="96.2551" y="143.308" width="14.0085" height="14.0085" transform="rotate(28.3465 96.2551 143.308)" fill="#D9D9D9"/>
<rect x="42.9163" y="165.466" width="14.0085" height="14.0085" transform="rotate(28.3465 42.9163 165.466)" fill="#D9D9D9"/>
<rect x="74.7598" y="209.705" width="14.0085" height="14.0085" transform="rotate(28.3465 74.7598 209.705)" fill="#D9D9D9"/>
<rect x="171.574" y="160.066" width="14.0085" height="14.0085" transform="rotate(28.3465 171.574 160.066)" fill="#D9D9D9"/>
<rect x="196.118" y="197.183" width="14.0085" height="14.0085" transform="rotate(28.3465 196.118 197.183)" fill="#D9D9D9"/>
</svg>
