<svg width="274" height="705" viewBox="0 0 274 705" fill="none" xmlns="http://www.w3.org/2000/svg">
<path d="M514.347 -1.90969C528.124 6.69705 536.293 23.109 539.093 45.7096C541.891 68.2997 539.299 96.9105 531.713 129.632C516.543 195.064 481.46 276.708 430.033 359.026C378.606 441.344 320.617 508.678 268.465 551.006C242.385 572.173 217.809 587.05 196.28 594.442C174.741 601.837 156.409 601.693 142.632 593.086C128.856 584.48 120.687 568.068 117.887 545.467C115.089 522.877 117.681 494.266 125.267 461.545C140.436 396.113 175.52 314.469 226.947 232.151C278.374 149.833 336.362 82.4983 388.514 40.1705C414.594 19.0034 439.17 4.12643 460.699 -3.26543C482.238 -10.6607 500.571 -10.5164 514.347 -1.90969Z" stroke="#FFC700" stroke-width="2"/>
<path d="M491.405 23.0272C505.927 32.0993 514.723 49.0617 518.041 72.2306C521.358 95.3935 519.173 124.617 511.867 157.954C497.256 224.619 462.215 307.512 410.181 390.802C358.146 474.092 299.017 541.936 245.512 584.302C218.756 605.488 193.45 620.268 171.179 627.445C148.902 634.624 129.8 634.157 115.278 625.085C100.757 616.013 91.9603 599.05 88.6424 575.881C85.3254 552.718 87.5104 523.495 94.8168 490.158C109.428 423.493 144.468 340.6 196.503 257.31C248.537 174.02 307.667 106.176 361.172 63.8095C387.928 42.6235 413.233 27.8439 435.504 20.667C457.781 13.4883 476.883 13.955 491.405 23.0272Z" stroke="#FFC700" stroke-width="2"/>
<path d="M513.018 -27.2837C527.54 -18.2116 536.336 -1.24922 539.654 21.9197C542.971 45.0825 540.786 74.306 533.48 107.643C518.869 174.308 483.828 257.201 431.794 340.491C379.76 423.781 320.63 491.625 267.125 533.991C240.369 555.178 215.064 569.957 192.792 577.134C170.515 584.313 151.413 583.846 136.892 574.774C122.37 565.702 113.574 548.739 110.256 525.57C106.939 502.408 109.124 473.184 116.43 439.847C131.041 373.182 166.082 290.289 218.116 206.999C270.15 123.709 329.28 55.865 382.785 13.4986C409.541 -7.68744 434.846 -22.467 457.118 -29.6439C479.395 -36.8227 498.497 -36.3559 513.018 -27.2837Z" stroke="#FFC700" stroke-width="2"/>
<path d="M544.351 -22.4355C558.873 -13.3633 567.669 3.59905 570.987 26.768C574.304 49.9308 572.119 79.1543 564.813 112.491C550.202 179.156 515.161 262.049 463.127 345.339C411.093 428.63 351.963 496.473 298.458 538.84C271.702 560.026 246.397 574.805 224.125 581.982C201.848 589.161 182.746 588.694 168.225 579.622C153.703 570.55 144.907 553.588 141.589 530.419C138.272 507.256 140.457 478.032 147.763 444.695C162.374 378.03 197.415 295.137 249.449 211.847C301.483 128.557 360.613 60.7132 414.118 18.3469C440.874 -2.83918 466.179 -17.6187 488.451 -24.7956C510.728 -31.9744 529.83 -31.5076 544.351 -22.4355Z" stroke="#FFC700" stroke-width="2"/>
</svg>
