<svg width="1073" height="48" viewBox="0 0 1073 48" fill="none" xmlns="http://www.w3.org/2000/svg">
<path fill-rule="evenodd" clip-rule="evenodd" d="M190.133 47.7925C189.47 47.1208 189.666 45.5514 190.449 45.2558C190.848 45.1053 193.357 44.9424 196.025 44.8942C198.693 44.846 201.785 44.7298 202.896 44.6366C204.008 44.5428 205.354 44.7855 205.888 45.1754C206.77 45.8203 206.781 45.9628 206.005 46.7395C205.343 47.402 203.513 47.6624 197.846 47.8997C193.828 48.0678 190.357 48.0196 190.133 47.7925ZM167.832 45.8637C165.538 45.0763 164.704 44.5246 164.704 43.7951C164.704 42.1641 165.571 42.0838 169.989 43.305C173.882 44.3806 175.852 45.6243 175.23 46.6141C174.774 47.3421 171.035 46.9628 167.832 45.8637ZM869.814 46.4069C867.709 45.9414 866.551 44.8117 867.168 43.8267C867.688 42.9992 876.28 43.958 877.619 44.9928C877.975 45.2681 878.132 45.8369 877.969 46.2574C877.624 47.1396 873.473 47.2157 869.814 46.4069ZM535.66 45.3388C531.099 44.7196 529.133 43.928 529.133 42.711C529.133 41.4892 530.377 41.2295 533.484 41.801C534.83 42.049 536.777 42.366 537.812 42.5053C538.846 42.6446 540.269 43.1315 540.975 43.5868C542.007 44.2526 542.132 44.5659 541.612 45.1829C540.901 46.0271 540.76 46.0308 535.66 45.3388ZM559.64 44.1325C558.643 42.9488 560.199 41.8653 563.5 41.4442C565.09 41.2418 568.017 40.6033 570.004 40.0259C574.626 38.683 576.684 39.2631 574.414 41.2696C573.087 42.4432 569.692 43.6564 565.883 44.3184C561.604 45.0619 560.393 45.026 559.64 44.1325ZM884.522 44.1047C883.973 42.6954 885.374 41.809 888.665 41.4833C890.311 41.32 893.126 41.0436 894.92 40.8679C898.581 40.5101 900.155 41.0987 899.272 42.4951C898.973 42.9681 898.606 43.358 898.456 43.3613C898.306 43.3645 897.083 43.5777 895.736 43.8348C894.39 44.0924 891.396 44.4641 889.084 44.6618C885.412 44.9751 884.833 44.9044 884.522 44.1047ZM850.778 43.2375C847.729 42.0699 846.83 40.8539 848.096 39.6075C848.811 38.9032 849.33 39.0221 852.603 40.6403C858.349 43.4807 856.878 45.5734 850.778 43.2375ZM221.408 42.8711C220.234 42.4849 220.666 41.1877 222.224 40.4228C223.047 40.0184 225.127 39.6333 226.845 39.5669C228.564 39.4999 230.688 39.3563 231.564 39.2471C233.361 39.0232 234.879 40.2648 233.939 41.1898C233.306 41.8138 232.728 41.9354 227.799 42.4828C222.236 43.1004 222.126 43.1073 221.408 42.8711ZM504.656 41.5782C500.147 39.8309 498.848 38.7312 499.866 37.5239C500.665 36.5753 502.232 36.9268 506.968 39.1175C510.695 40.8417 511.403 41.764 509.687 42.6612C509.007 43.0168 507.57 42.7078 504.656 41.5782ZM912.431 42.0088C911.847 40.5112 913.521 39.6295 917.673 39.2465C922.447 38.8057 923.68 38.9803 923.905 40.1287C924.097 41.1137 921.478 41.9059 916.079 42.4951C913.328 42.7951 912.705 42.7121 912.431 42.0088ZM245.671 39.7003C245.099 39.5508 244.876 39.0982 245.05 38.4409C245.334 37.3734 245.843 37.141 249.012 36.6332C254.825 35.7023 254.851 35.7023 255.222 36.6546C255.653 37.7596 254.657 38.427 251.188 39.3558C248.687 40.0253 247.255 40.1148 245.671 39.7003ZM145.939 38.5754C144.601 38.3113 140.735 37.0858 137.644 35.9455C135.137 35.0205 134.502 33.4269 136.404 32.8329C137.282 32.5581 142.208 33.9513 146.211 35.6064C146.66 35.7917 147.249 35.8924 147.521 35.8303C148.209 35.6723 148.884 36.8759 148.566 37.6922C148.233 38.5465 147.332 38.8496 145.939 38.5754ZM833.484 36.322C830.209 34.8062 829.296 33.9293 829.758 32.7424C830.188 31.639 831.253 31.8618 835.41 33.9229C838.196 35.3049 839.19 36.0708 839.06 36.735C838.797 38.0794 836.994 37.9455 833.484 36.322ZM940.554 36.0927C940.032 34.7504 940.691 34.3348 945.276 33.1162C949.974 31.8682 951.213 31.9352 950.991 33.4258C950.868 34.2491 948.315 35.5143 945.777 36.0086C941.393 36.8635 940.859 36.8721 940.554 36.0927ZM596.32 35.442C595.508 34.6428 595.511 34.4971 596.354 33.5801C596.857 33.0327 597.48 32.714 597.74 32.872C597.999 33.0295 598.211 32.9465 598.211 32.6867C598.211 32.2486 600.533 31.0894 605.365 29.1156C607.11 28.4027 607.39 28.4 607.66 29.0926C608.252 30.6117 607.31 31.4906 602.521 33.8908C599.866 35.2207 597.584 36.3092 597.448 36.3092C597.312 36.3092 596.804 35.9192 596.32 35.442ZM483.715 34.0756C481.847 33.4553 477.581 31.677 476.372 31.015C475.923 30.7691 475.556 30.1125 475.556 29.5554C475.556 28.7696 475.922 28.5602 477.188 28.6218C478.085 28.6657 479.554 29.0069 480.451 29.3802C481.349 29.7541 482.214 30.0798 482.373 30.1044C482.532 30.1291 483.695 30.6079 484.956 31.1682C486.708 31.9459 487.25 32.4842 487.25 33.4446C487.25 34.8346 486.437 34.9797 483.715 34.0756ZM268.403 30.165C267.895 28.8618 269.461 27.8746 273.454 26.9801C277.914 25.9812 279.277 25.9239 279.773 26.7144C280.345 27.625 279.398 28.2249 275.151 29.6395C270.631 31.1457 268.84 31.285 268.403 30.165ZM810.884 26.9196C805.714 24.2698 804.766 23.3464 805.998 22.1658C806.703 21.4915 807.219 21.5932 810.069 22.9698C816.079 25.8724 818.204 27.4006 817.772 28.5083C817.267 29.8034 815.892 29.4858 810.884 26.9196ZM116.957 27.3684C111.762 24.7813 110.721 24.1546 110.257 23.3373C109.767 22.476 110.576 21.4829 111.716 21.5467C112.568 21.5938 118.086 24.1487 118.833 24.8413C119.181 25.1643 120.221 25.7369 121.144 26.1134C122.146 26.5216 122.822 27.189 122.822 27.768C122.822 29.1499 120.17 28.9689 116.957 27.3684ZM965.646 27.3079C964.755 26.4305 965.624 25.0095 967.833 23.7347C970.886 21.9725 974.061 21.3415 974.061 22.4974C974.061 23.303 972.411 25.0609 971.655 25.0609C971.425 25.0609 970.465 25.6035 969.522 26.2661C967.848 27.4418 966.225 27.8783 965.646 27.3079ZM620.237 26.1285C620.051 25.8317 620.22 25.497 620.613 25.3839C621.006 25.2715 622.429 24.8055 623.775 24.3491C629.471 22.4182 632.478 22.1086 632.478 23.4541C632.478 24.0266 631.283 24.4648 626.495 25.6474C621.828 26.8001 620.713 26.8858 620.237 26.1285ZM457.104 23.5719C452.63 22.0593 451.107 20.8021 452.312 19.6157C452.834 19.1015 453.527 19.147 455.563 19.831C462.614 22.1991 463.55 22.7717 462.937 24.3427C462.558 25.317 462.077 25.2532 457.104 23.5719ZM642.844 20.2596C641.595 19.4995 642.776 17.6933 645.145 16.7399C648.983 15.1946 650.86 14.9102 651.58 15.764C652.353 16.6821 651.4 17.5311 647.708 19.213C644.679 20.5922 643.727 20.7973 642.844 20.2596ZM88.0146 18.1063C83.5349 16.0484 81.7579 14.6767 82.3497 13.734C82.9077 12.8449 85.357 13.2975 88.7027 14.9086C93.3483 17.1454 94.6723 18.2027 94.2349 19.3249C93.7367 20.604 93.239 20.5065 88.0146 18.1063ZM298.645 18.8685C297.615 17.7689 297.816 17.2113 299.461 16.606C300.284 16.3034 301.447 15.8733 302.045 15.65C302.643 15.4271 303.255 15.2177 303.405 15.185C303.554 15.1529 304.862 14.7929 306.311 14.3858C308.544 13.7581 309.017 13.7576 309.408 14.3805C310.093 15.4721 309.116 16.3136 305.702 17.5712C304.029 18.1877 302.41 18.8449 302.104 19.0308C301.048 19.6736 299.324 19.5927 298.645 18.8685ZM790.269 18.5868C789.551 18.304 788.398 18.0265 787.708 17.9703C785.866 17.8197 783.996 16.2638 784.402 15.2204C784.589 14.741 785.141 14.3484 785.627 14.3484C787.38 14.3484 792.378 16.0415 793.595 17.0479C794.659 17.9275 794.721 18.154 794.023 18.6141C793.027 19.2713 791.988 19.2633 790.269 18.5868ZM986.571 18.1631C986.571 17.1138 987.644 15.9697 988.856 15.726C989.245 15.6483 990.297 15.2659 991.195 14.8771C992.092 14.4887 992.949 14.1464 993.099 14.117C993.248 14.088 993.639 13.8957 993.966 13.6901C994.294 13.4844 995.543 13.1619 996.742 12.9729C998.458 12.7029 998.993 12.8122 999.256 13.4882C999.689 14.5975 998.166 15.5712 992.847 17.5878C987.944 19.4475 986.571 19.5729 986.571 18.1631ZM423.34 12.1223C421.245 11.2342 418.85 10.2305 418.015 9.89247C416.117 9.12224 416.169 7.20682 418.096 6.93847C419.39 6.7585 425.553 9.4361 427.837 11.171C428.966 12.028 428.997 12.1818 428.207 12.9606C427.731 13.4292 427.298 13.7956 427.244 13.7753C427.191 13.7544 425.434 13.0104 423.34 12.1223ZM668.237 13.1566C667.745 11.8941 668.458 11.3542 671.912 10.3692C673.707 9.85713 675.622 9.20421 676.168 8.91818C677.699 8.11474 680.789 7.86725 681.195 8.51482C681.741 9.38469 680.448 10.351 676.659 11.9032C672.282 13.6965 668.658 14.2359 668.237 13.1566ZM64.0788 10.8871C56.0124 8.77351 54.8321 8.31505 54.8321 7.29789C54.8321 6.73816 55.1998 6.14143 55.6485 5.97163C56.4291 5.6765 63.4614 7.13395 65.1666 7.94382C65.6154 8.157 66.6613 8.64441 67.4908 9.02685C70.5291 10.427 67.8656 11.8796 64.0788 10.8871ZM328.969 10.6059C327.073 9.41625 329.587 7.90153 336.458 6.09325C338.985 5.42799 339.422 5.43605 340.156 6.15915C340.904 6.89565 340.89 7.04613 340.011 7.63586C339.056 8.27647 330.99 11.1426 330.188 11.1265C329.967 11.1217 329.418 10.8876 328.969 10.6059ZM1015.85 9.16455C1016.17 8.58072 1018.42 7.0981 1020.85 5.86937C1026.36 3.08678 1028.14 2.92714 1027.52 5.27052C1027.15 6.63155 1021.34 9.42379 1017.92 9.87587C1015.4 10.209 1015.3 10.1742 1015.85 9.16455ZM758.396 7.55923C752.145 5.97698 751.074 5.33587 752.532 4.04554C753.291 3.37386 753.971 3.28708 755.676 3.64434C760.389 4.63311 762.722 5.32571 764.165 6.16504C765.38 6.87153 765.57 7.23148 765.143 8.01725C764.5 9.19884 765.008 9.23307 758.396 7.55923ZM397.231 5.86937C396.633 5.75153 394.859 5.18373 393.288 4.60686C391.177 3.83181 390.432 3.28492 390.432 2.50933C390.432 0.797993 391.864 0.742332 396.166 2.28709C400.519 3.85112 400.945 4.16232 400.452 5.42587C400.143 6.2186 399.473 6.31126 397.231 5.86937ZM738.815 6.05683C738.516 5.96149 736.925 5.48801 735.279 5.00433C730.615 3.63259 729.296 3.02729 729.296 2.25812C729.296 0.889053 730.983 0.537697 733.927 1.29507C737.52 2.2185 740.884 3.58862 741.348 4.31708C742.21 5.66793 740.749 6.6712 738.815 6.05683ZM701.67 5.1098C700.602 3.84357 701.936 3.17405 708.047 1.90675C712.08 1.07009 713.707 0.924969 714.15 1.36151C715.242 2.43652 714.171 3.56349 711.239 4.42693C706.712 5.76011 702.473 6.06268 701.67 5.1098ZM34.9789 4.12158C33.7823 3.92179 31.5424 3.61165 30.001 3.43275C26.41 3.01496 25.6414 2.70807 25.6414 1.69091C25.6414 0.245785 27.7453 0.00852203 33.7573 0.775005C40.3834 1.62023 42.3219 2.19598 42.3219 3.31866C42.3219 4.71879 40.0483 4.96734 34.9789 4.12158ZM1068.98 3.82107C1065.81 2.87729 1065.33 2.53241 1065.91 1.61755C1066.23 1.10335 1067.01 1.07492 1069.26 1.49646C1072.55 2.10975 1073.35 2.63735 1072.87 3.86769C1072.49 4.86182 1072.46 4.86126 1068.98 3.82107ZM2.39524 3.69952C0.737364 3.44081 0.230418 3.10336 0.0868224 2.16279C-0.126939 0.763195 -0.570754 0.836014 7.51085 0.944744C13.8883 1.03098 15.5696 1.52701 14.6188 3.04123C14.1016 3.86557 6.19019 4.29139 2.39524 3.69952ZM360.789 3.75948C358.087 3.34865 357.356 3.05786 357.452 2.43224C357.673 0.996758 358.395 0.574627 360.637 0.570877C361.917 0.568733 364.844 0.398403 367.142 0.19165C370.968 -0.15276 371.367 -0.0948677 371.898 0.881584C372.41 1.82376 372.242 2.02408 370.452 2.60577C368.212 3.33369 362.485 4.01765 360.789 3.75948ZM1040.28 3.78897C1039.25 3.53615 1038.99 1.76751 1039.9 1.20831C1040.42 0.893894 1045.87 0.438065 1051.57 0.232384C1053.41 0.1665 1053.77 0.331455 1053.91 1.2988C1054.05 2.2699 1053.68 2.53077 1051.46 3.01926C1048.5 3.67112 1041.72 4.1382 1040.28 3.78897Z" fill="black"/>
</svg>
