<svg width="87" height="105" viewBox="0 0 87 105" fill="none" xmlns="http://www.w3.org/2000/svg">
<path fill-rule="evenodd" clip-rule="evenodd" d="M29.2582 0.205219C28.8865 0.3008 28.0952 0.933657 27.4995 1.61142C26.9039 2.28954 26.1259 2.84422 25.7705 2.84422C25.4154 2.84422 23.7628 4.1476 22.0987 5.74063C20.4345 7.33366 18.9595 8.63705 18.8211 8.63705C18.4964 8.63705 12.9684 13.4263 9.4622 16.7448C7.9676 18.1594 5.60342 20.2745 4.20846 21.445C0.761293 24.3374 0.0514931 25.5825 0.0022167 28.8243C-0.0224215 30.4391 0.159466 31.7743 0.490994 32.4163C1.75189 34.8536 2.44864 35.989 3.21605 36.8565C3.66678 37.3655 4.13745 38.1081 4.26209 38.5063C4.38673 38.9046 4.95558 39.9115 5.52624 40.7438C6.09691 41.5762 6.56359 42.3741 6.56359 42.5168C6.56359 42.6594 7.10889 43.4447 7.77557 44.2619C8.44188 45.079 9.19806 46.1547 9.45604 46.6525C10.4423 48.5565 13.346 52.7581 15.8808 55.9493C17.3326 57.7773 18.5203 59.4272 18.5203 59.6161C18.5203 59.8051 18.7693 60.1661 19.0733 60.4181C19.3773 60.6704 20.6631 62.3601 21.9309 64.1736C23.1987 65.9868 24.6998 67.9593 25.2665 68.5566C26.3209 69.6681 27.1557 70.7358 28.9253 73.2344C30.2651 75.1268 34.7547 79.5992 35.3145 79.5992C35.5587 79.5992 36.3983 79.2734 37.1801 78.8751C37.9621 78.4769 38.9182 78.151 39.3056 78.151C40.2001 78.151 43.4078 81.6752 45.6828 85.1574C46.6394 86.6216 47.7369 88.1288 48.1213 88.5068C48.9311 89.3019 51.8504 93.5777 51.8627 93.9868C51.8674 94.1382 52.9272 95.4712 54.2178 96.9488C55.5084 98.4259 56.5646 99.78 56.5646 99.9574C56.5646 100.365 60.1944 104.219 60.5785 104.219C60.7353 104.219 60.9567 103.926 61.0701 103.569C61.2589 102.975 62.8028 102.032 67.5061 99.6356C68.4427 99.1587 69.5841 98.3094 70.0424 97.7478C70.5011 97.1863 71.8113 96.1175 72.9541 95.3728C74.0968 94.628 75.4114 93.5676 75.8755 93.0165C76.3396 92.4655 77.198 91.7066 77.7835 91.3301C78.3687 90.9535 79.1448 90.278 79.5082 89.829C79.8712 89.3801 80.3604 89.0086 80.5952 89.0035C80.8296 88.9988 81.9144 88.1842 83.0061 87.1933C84.0974 86.2027 85.1003 85.3921 85.2347 85.3921C85.6445 85.3921 87 82.8631 87 82.0981C87 81.412 85.6637 79.1872 85.101 78.9367C84.9532 78.8708 84.5706 78.2658 84.2507 77.592C83.9307 76.9186 83.3996 76.2767 83.0702 76.1663C82.4956 75.9733 80.702 73.5334 79.7383 71.6341C79.4857 71.1363 78.4422 69.7514 77.4194 68.5566C76.3965 67.3619 75.0954 65.6917 74.5277 64.8456C73.9599 63.9995 73.3841 63.3069 73.2479 63.3069C72.9464 63.3069 69.7022 58.8403 69.1931 57.7237C68.9319 57.1509 68.9909 56.1292 69.3989 54.1553C70.4819 48.9168 70.2623 48.2788 65.7597 43.5751C60.3792 37.9546 57.6838 34.6834 56.4193 32.2399C56.1153 31.6527 55.616 31.0759 55.3099 30.9586C55.0037 30.841 54.753 30.5046 54.753 30.211C54.753 29.9174 54.4675 29.4637 54.1189 29.2027C53.2913 28.5836 50.1137 24.7842 48.8797 22.9381C48.3474 22.1416 47.3315 20.84 46.622 20.0457C45.9129 19.2513 45.3325 18.4287 45.3325 18.2177C45.3325 18.0066 44.5578 16.9704 43.6114 15.915C42.665 14.8596 41.6342 13.5642 41.3212 13.0363C41.0085 12.5085 39.815 11.099 38.6693 9.90423C37.5236 8.70946 36.1606 6.99876 35.6403 6.10268C35.1196 5.2066 34.071 3.83044 33.3101 3.04442C32.5492 2.25841 31.9264 1.46155 31.9264 1.27401C31.9264 0.850043 30.7862 -0.0398863 30.296 0.00138765C30.0967 0.018042 29.6296 0.109999 29.2582 0.205219ZM31.1065 6.38688C31.4525 6.92743 31.9011 7.55524 32.1029 7.78188C32.988 8.77608 33.7381 9.74383 33.7381 9.89227C33.7381 10.1635 35.3287 12.4129 36.1229 13.2648C37.2225 14.444 36.8852 16.0276 35.3305 16.9878C34.316 17.6145 34.167 17.8603 34.4649 18.4168C34.9504 19.3227 34.9203 19.4986 34.2815 19.4986C33.5953 19.4986 33.5612 20.9019 34.2413 21.1626C34.8475 21.395 34.5786 22.7571 33.9268 22.7571C33.6569 22.7571 33.5167 22.3824 33.5779 21.8244C33.6493 21.1727 33.5359 20.9468 33.2011 21.0753C32.4869 21.349 32.2656 20.9428 32.6931 20.1442C32.9015 19.7549 32.9964 19.361 32.9036 19.2683C32.5235 18.8886 29.6325 20.9356 26.9024 23.5177C25.3016 25.0315 23.5357 26.5597 22.9773 26.9142C22.4193 27.2682 21.6364 27.9199 21.2378 28.3624C20.8392 28.8048 19.9834 29.4395 19.3356 29.7729C18.6877 30.106 18.158 30.6132 18.158 30.8996C18.158 31.1864 17.7913 31.61 17.3428 31.841C16.3366 32.3598 14.7268 34.0451 14.3833 34.9394C14.1478 35.552 14.0717 35.5332 13.4279 34.7022C13.0431 34.2059 12.0521 32.6592 11.2253 31.2653C10.3988 29.8714 9.17487 27.9044 8.50529 26.8942C7.83608 25.8841 7.28824 24.803 7.28824 24.4924C7.28824 24.1818 8.54624 22.8089 10.0843 21.4414C11.622 20.0743 14.1083 17.8567 15.6098 16.5131C17.1109 15.1699 18.6747 13.7851 19.0852 13.4357C24.361 8.94263 26.102 7.55089 26.4455 7.55089C26.6701 7.55089 26.8539 7.3963 26.8539 7.20731C26.8539 7.01832 27.3741 6.37747 28.0104 5.78335C29.3206 4.55961 30.0242 4.69683 31.1065 6.38688ZM37.7236 17.1666C37.7236 17.4769 37.5606 17.6304 37.3613 17.5073C37.162 17.3842 36.999 17.1304 36.999 16.9429C36.999 16.7553 37.162 16.6022 37.3613 16.6022C37.5606 16.6022 37.7236 16.8564 37.7236 17.1666ZM36.2743 18.4125C36.2743 18.6116 36.2026 18.7745 36.1146 18.7745C36.0265 18.7745 35.854 18.6116 35.7308 18.4125C35.6077 18.2133 35.6797 18.0504 35.8906 18.0504C36.1015 18.0504 36.2743 18.2133 36.2743 18.4125ZM32.8322 18.7745C32.9554 18.9736 33.2094 19.1366 33.3971 19.1366C33.5848 19.1366 33.7381 18.9736 33.7381 18.7745C33.7381 18.5754 33.4837 18.4125 33.1732 18.4125C32.8627 18.4125 32.709 18.5754 32.8322 18.7745ZM40.1769 18.8426C40.098 19.079 39.8396 19.3368 39.603 19.4157C39.3382 19.504 39.2574 19.3382 39.3925 18.9859C39.6454 18.3277 40.3943 18.1909 40.1769 18.8426ZM37.2914 20.0511C37.1798 20.1626 36.9773 19.9617 36.841 19.6047C36.6446 19.0888 36.6859 19.0471 37.0439 19.4019C37.2918 19.6478 37.403 19.9399 37.2914 20.0511ZM40.6222 20.1785C40.6222 20.353 40.3777 20.6988 40.0788 20.9468C39.6248 21.3233 39.5353 21.2712 39.5353 20.6289C39.5353 20.1872 39.7664 19.8607 40.0788 19.8607C40.3777 19.8607 40.6222 20.0037 40.6222 20.1785ZM42.8176 21.6036C42.2067 21.8071 42.3451 22.1452 43.881 24.2024C44.677 25.2683 45.264 26.2049 45.1854 26.2831C45.1068 26.3617 45.6122 26.9949 46.3082 27.6908C47.3101 28.6915 47.5267 29.1437 47.3474 29.8576C47.1401 30.6831 47.1858 30.7255 47.8804 30.354C48.7909 29.867 49.6804 30.4286 49.6804 31.4905C49.6804 32.2175 49.1442 32.4058 48.7746 31.8084C48.3851 31.1784 47.9554 31.4141 47.7097 32.392C47.4847 33.2877 47.4365 33.3055 46.8006 32.7305C46.3597 32.3315 46.0474 32.2555 45.8905 32.5089C45.7593 32.7211 45.8021 32.8945 45.9854 32.8945C46.1691 32.8945 46.2441 33.2859 46.1524 33.7642C46.005 34.5364 45.8676 34.5998 44.9278 34.3304C44.2901 34.148 43.9517 34.1603 44.0763 34.3619C44.1901 34.5462 44.0089 35.2743 43.6738 35.9807C42.7274 37.9727 40.9846 38.5541 40.9846 36.8771C40.9846 36.5024 40.8219 36.0951 40.623 35.9723C40.2621 35.7497 38.0562 37.3445 36.3859 39.0353C35.6511 39.7793 35.4508 39.839 35.1711 39.3973C34.8261 38.8525 34.6964 39.1359 34.8022 40.2033C34.8355 40.5393 34.516 40.9994 34.0917 41.2264C33.1344 41.7384 31.9264 42.9245 31.9264 43.3524C31.9264 43.5287 31.5398 43.9259 31.067 44.2354C30.5941 44.545 29.2861 45.7043 28.1604 46.8115C27.0343 47.919 25.9513 48.8248 25.7535 48.8248C25.2379 48.8248 23.9216 46.5576 24.1245 46.0189C24.2179 45.7702 24.1368 45.5663 23.944 45.5663C23.3755 45.5663 23.5426 44.5769 24.1502 44.3441C24.4723 44.2206 24.7976 44.3658 24.9216 44.688C25.0393 44.995 25.3593 45.1601 25.6325 45.0555C25.9846 44.9204 26.1292 45.1782 26.1292 45.9396C26.1292 46.6536 26.3118 47.0146 26.6727 47.0146C27.3705 47.0146 27.3622 46.4874 26.647 45.3969C26.1832 44.6894 26.1589 44.377 26.5162 43.7101L26.9546 42.8912L27.7941 43.9433C28.2557 44.5215 28.7629 44.8651 28.9213 44.7065C29.0796 44.5475 28.839 44.1181 28.3872 43.7521L27.5655 43.0863L28.7905 41.7503C29.9923 40.4397 30.0253 40.4285 30.5355 41.1562C30.8692 41.6326 31.225 41.793 31.5297 41.6051C32.1322 41.233 31.6956 39.6595 31.0851 40.0038C30.8503 40.1359 31.2141 39.6559 31.8931 38.9368C33.1199 37.6381 33.7381 37.5081 33.7381 38.549C33.7381 38.8477 33.9076 38.9875 34.1152 38.8593C34.3225 38.7312 34.3866 38.2938 34.2576 37.8876C34.1145 37.4372 34.2145 37.0274 34.5145 36.8373C35.2584 36.3666 35.6508 36.4535 35.4258 37.0396C35.3004 37.3659 35.3986 37.4977 35.6845 37.388C35.9667 37.2797 36.0841 36.7985 35.9877 36.1432C35.791 34.8033 36.5845 34.417 37.8421 35.2399C38.9295 35.9521 39.5436 35.3532 38.6925 34.4104C38.2073 33.8728 38.2048 33.7131 38.6715 33.0774C39.1295 32.4532 39.253 32.4286 39.5809 32.8963C39.8856 33.3312 39.9273 33.2845 39.7914 32.6592C39.6443 31.9829 39.7827 31.8808 40.8469 31.8808C41.5205 31.8808 42.0716 32.06 42.0716 32.279C42.0716 32.5484 42.2121 32.5368 42.5063 32.2428C42.8444 31.905 42.8444 31.7117 42.5063 31.3739C42.0031 30.871 41.9201 29.6361 42.3897 29.6361C42.5647 29.6361 42.943 29.9898 43.2299 30.4221C43.8817 31.4029 44.7941 31.022 44.2455 29.9981C43.7346 29.0441 44.4701 28.6752 45.331 29.4536C45.7281 29.8127 45.9155 30.308 45.7836 30.6509C45.447 31.5278 43.7658 32.8971 43.2491 32.715C43.0002 32.627 42.7962 32.7826 42.7962 33.0607C42.7962 33.3388 42.3886 33.8865 41.8904 34.2779C40.8549 35.0922 40.7487 35.4289 41.5281 35.4289C41.827 35.4289 42.0716 35.2605 42.0716 35.0553C42.0716 34.8496 42.3716 34.5647 42.7382 34.4217C43.8125 34.0028 46.7818 31.2229 46.7818 30.6357C46.7818 30.1342 45.4854 28.2414 43.9864 26.555C43.6306 26.1546 42.8589 25.0956 42.2716 24.2017C41.6842 23.3074 40.9599 22.3726 40.6625 22.1235C40.2857 21.8085 40.2588 21.6709 40.5744 21.6709C40.8233 21.6709 40.9259 21.5069 40.802 21.3063C40.6777 21.1057 40.8302 20.8444 41.1407 20.7252C41.4513 20.6061 41.5984 20.3223 41.4676 20.0942C41.3368 19.8661 41.6737 20.0837 42.2158 20.5775C42.7582 21.0714 43.0288 21.533 42.8176 21.6036ZM36.5055 20.4747C36.1138 20.8657 35.1874 20.9207 35.1874 20.5529C35.1874 20.3711 35.5406 20.2227 35.9725 20.2227C36.404 20.2227 36.6439 20.336 36.5055 20.4747ZM31.5641 21.6709C31.5641 21.87 31.401 22.033 31.2018 22.033C31.0025 22.033 30.8394 21.87 30.8394 21.6709C30.8394 21.4718 31.0025 21.3089 31.2018 21.3089C31.401 21.3089 31.5641 21.4718 31.5641 21.6709ZM39.1729 21.6709C39.1729 21.87 39.0099 22.033 38.8106 22.033C38.6113 22.033 38.4483 21.87 38.4483 21.6709C38.4483 21.4718 38.6113 21.3089 38.8106 21.3089C39.0099 21.3089 39.1729 21.4718 39.1729 21.6709ZM37.7563 22.395C37.941 22.395 37.887 22.731 37.636 23.1412C37.2932 23.7024 36.933 23.8396 36.1838 23.6933C35.1906 23.5 34.7797 23.9797 35.6403 24.3287C35.9809 24.4667 35.9584 24.6061 35.5497 24.8903C35.2095 25.1271 34.9609 25.1372 34.8855 24.9178C34.8189 24.7252 34.504 24.5673 34.1855 24.5673C33.8156 24.5673 34.121 24.1086 35.0308 23.298C35.8145 22.5999 36.6725 22.1112 36.9381 22.2118C37.2033 22.3125 37.5718 22.395 37.7563 22.395ZM33.0134 22.7571C33.0134 22.9562 32.9417 23.1191 32.8536 23.1191C32.7656 23.1191 32.5931 22.9562 32.4699 22.7571C32.3467 22.5579 32.4188 22.395 32.6297 22.395C32.8406 22.395 33.0134 22.5579 33.0134 22.7571ZM40.7867 23.3874C41.4317 24.1369 41.5563 24.5387 41.2947 25.0268C40.9078 25.7494 40.2599 25.5452 40.2599 24.7013C40.2599 24.4001 40.0154 23.9091 39.7164 23.6104C39.4175 23.3117 39.1729 22.916 39.1729 22.7314C39.1729 22.0895 39.9367 22.4005 40.7867 23.3874ZM29.7525 23.4812C29.7525 23.6803 29.7525 23.9652 29.7525 24.1148C29.7525 24.2643 29.5807 24.3863 29.3709 24.3863C29.1612 24.3863 28.593 24.7675 28.1086 25.2331C27.6245 25.6987 27.0372 26.0163 26.8039 25.9384C26.5651 25.8591 26.9825 25.2118 27.7593 24.458C29.1488 23.1093 29.7525 22.8136 29.7525 23.4812ZM31.9264 24.2143C31.9264 24.9218 31.446 25.6535 30.9818 25.6535C30.526 25.6535 30.2876 26.3769 30.4546 27.2534C30.4894 27.4366 30.2659 27.3772 29.9579 27.122C29.6499 26.8667 29.4988 26.4949 29.6217 26.2961C29.7448 26.0974 29.6351 25.8048 29.3778 25.6459C29.0311 25.4316 29.1789 25.1267 29.9539 24.4609C30.9137 23.6358 31.9264 23.5091 31.9264 24.2143ZM39.1856 24.4098C39.6117 25.2056 39.6077 25.3863 39.1563 25.6734C38.8664 25.8573 38.4171 25.9301 38.1577 25.8349C37.8983 25.7396 37.7776 25.8095 37.8892 25.9906C38.0012 26.1712 37.8352 26.5764 37.5207 26.8906C37.0885 27.3225 36.7776 27.3711 36.2493 27.0883C35.8646 26.8827 35.5497 26.6126 35.5497 26.488C35.5497 26.2248 38.1657 23.5706 38.4776 23.517C38.5936 23.4975 38.9121 23.899 39.1856 24.4098ZM34.1301 25.2914C34.3131 25.2914 34.4627 25.5358 34.4627 25.8345C34.4627 26.1332 34.3054 26.3776 34.113 26.3776C33.9207 26.3776 33.1815 26.8881 32.4703 27.5119C31.7594 28.1357 31.0605 28.5271 30.9177 28.3819C30.7749 28.2364 31.188 27.6734 31.8358 27.1307C32.9308 26.2132 33.5312 24.929 32.5949 25.5068C32.3275 25.6723 32.2753 25.6057 32.4507 25.3226C32.6011 25.0793 32.9659 24.9725 33.2609 25.0858C33.5558 25.1988 33.9471 25.2914 34.1301 25.2914ZM42.7056 25.9094C43.2904 27.1676 43.2803 27.8258 42.6763 27.8258C42.0324 27.8258 41.1947 26.2103 41.4686 25.4967C41.7864 24.6691 42.1918 24.8041 42.7056 25.9094ZM40.1704 26.1032C40.0878 26.3504 40.3596 26.7306 40.7741 26.9475C41.1889 27.1643 41.4875 27.5322 41.4375 27.765C41.3875 27.9974 41.6031 28.1879 41.9161 28.1879C42.4103 28.1879 42.4023 28.2711 41.8549 28.8182C41.4012 29.2715 41.1817 29.3222 41.0741 28.9992C40.9915 28.7519 40.6973 28.5499 40.4201 28.5499C40.1429 28.5499 39.6675 28.0691 39.3635 27.4818C38.6715 26.1448 38.6737 26.1043 39.4447 25.903C39.7932 25.8121 40.1331 25.7187 40.1994 25.6955C40.2661 25.6723 40.2527 25.8559 40.1704 26.1032ZM31.2681 26.8182C31.0083 27.0778 30.8394 27.0992 30.8394 26.8725C30.8394 26.3892 31.2681 25.9609 31.5097 26.2027C31.6126 26.3056 31.5039 26.5825 31.2681 26.8182ZM26.0306 26.9876C26.1013 27.1987 25.8259 27.4587 25.4194 27.5648C24.9687 27.6824 24.6799 27.5829 24.6799 27.3092C24.6799 26.3729 25.7415 26.1205 26.0306 26.9876ZM29.1419 26.8765C29.3409 27.3942 28.7658 28.1879 28.1919 28.1879C28.0111 28.1879 27.9539 27.9518 28.0648 27.6632C28.1999 27.3113 28.0923 27.2052 27.7372 27.3414C27.3644 27.4844 27.2742 27.3718 27.4321 26.9609C27.7057 26.248 28.8782 26.19 29.1419 26.8765ZM36.05 27.9826C36.5722 28.6665 36.999 29.3996 36.999 29.6118C36.999 29.8243 37.2436 29.9981 37.5425 29.9981C38.3334 29.9981 38.2077 30.5959 37.2805 31.2447C36.2769 31.9474 35.912 31.9572 35.912 31.2816C35.912 30.434 34.2402 28.9626 33.6801 29.3175C33.2888 29.5655 33.3 29.6267 33.7381 29.6339C34.037 29.639 34.6334 30.2526 35.0638 30.9974L35.8457 32.3515L34.3391 33.737C32.9094 35.052 32.8833 35.1117 33.8286 34.9068C35.041 34.6443 35.0475 34.6954 33.9652 35.9542C33.142 36.9111 33.0674 36.9292 32.2152 36.3713C31.7257 36.0505 31.2159 35.8978 31.0822 36.031C30.7054 36.4075 30.7963 37.6012 31.2018 37.6012C31.401 37.6012 31.5641 37.3242 31.5641 36.9857C31.5641 36.4955 31.6558 36.4618 32.0141 36.8199C32.3239 37.1294 32.3438 37.3489 32.0782 37.5259C31.8659 37.6667 31.5873 38.0675 31.4583 38.4158C31.3297 38.7641 30.9637 39.0494 30.6452 39.0494C30.213 39.0494 30.1286 38.8427 30.3123 38.2348C30.5162 37.5599 30.3155 37.6533 29.1438 38.7779C27.4847 40.3702 27.2162 40.4375 27.2162 39.2605C27.2162 38.7236 27.6006 38.1059 28.2118 37.6609C28.7597 37.2623 29.084 36.8127 28.9329 36.6613C28.7818 36.5103 28.2024 36.8228 27.6455 37.3561C27.0886 37.889 26.4383 38.3253 26.1999 38.3253C25.9618 38.3253 25.7669 38.4882 25.7669 38.6874C25.7669 39.183 24.4107 39.1475 24.244 38.6475C24.1618 38.4013 23.9125 38.4839 23.5991 38.8608C23.1527 39.3984 23.1632 39.4603 23.6828 39.3532C24.0096 39.2858 24.5255 39.5563 24.8292 39.9545C25.3411 40.6258 25.3824 40.6305 25.3929 40.0186C25.4089 39.1005 26.5767 39.3789 27.0303 40.4093C27.227 40.856 27.522 41.2217 27.6858 41.2217C27.8495 41.2217 27.872 41.402 27.7358 41.6225C27.5626 41.9027 27.3981 41.8778 27.189 41.54C26.8734 41.0295 26.7549 41.1102 24.2875 43.5233C23.706 44.0921 23.0175 44.4758 22.7581 44.3766C22.4842 44.2713 22.0918 44.6348 21.8222 45.243C21.2077 46.6301 20.5657 46.5649 19.6555 45.0233C18.9077 43.7568 19.1175 43.2731 19.9697 44.2992C20.4983 44.9353 21.0566 45.011 21.0566 44.4462C21.0566 44.2286 20.7305 43.965 20.332 43.8611C19.566 43.6609 19.4765 43.4313 19.8186 42.5414C19.9479 42.2043 20.2624 42.0809 20.6309 42.2221C21.2059 42.4426 19.1747 39.5469 18.3533 38.9752C18.1312 38.8202 18.3149 38.4144 18.82 37.9441C19.5874 37.2294 19.7033 37.2138 20.2928 37.7467C20.6447 38.065 21.1642 38.3202 21.4476 38.3137C21.8356 38.305 21.8066 38.1841 21.3284 37.8213C20.9798 37.5567 20.6943 36.9104 20.6943 36.3847C20.6943 35.859 20.5313 35.4289 20.332 35.4289C20.1327 35.4289 19.9697 35.1979 19.9697 34.9159C19.9697 34.6338 19.8476 34.3348 19.6979 34.2511C19.5483 34.1679 19.6247 34.1469 19.8675 34.2052C20.4668 34.3489 20.8153 33.72 20.2436 33.526C19.961 33.43 20.2345 32.9948 20.9661 32.3768C22.2393 31.3011 22.461 30.7222 21.6001 30.7222C21.2983 30.7222 21.0566 31.0441 21.0566 31.4463C21.0566 31.8446 20.8936 32.1704 20.6943 32.1704C20.1979 32.1704 20.2389 31.2233 20.7726 30.3696C21.1675 29.7374 21.2747 29.7211 21.8164 30.2106C22.3552 30.698 22.4831 30.6932 23.0096 30.1672C23.3342 29.8428 23.5063 29.4268 23.3918 29.2421C23.2777 29.0575 23.6089 29.0995 24.1273 29.3359C25.2531 29.8482 25.1959 30.7917 24.0226 31.0683C23.1204 31.2812 23.0588 32.0452 23.9552 31.9036C25.1089 31.7211 26.1292 32.1896 26.1292 32.9014C26.1292 33.296 26.2922 33.6186 26.4915 33.6186C26.6908 33.6186 26.8539 33.9311 26.8539 34.3131C26.8539 35.4246 27.2499 36.153 27.8546 36.153C28.3561 36.153 28.3575 36.086 27.8669 35.5194C27.0752 34.6049 26.8151 33.1983 27.322 32.5741C27.6854 32.1266 27.6495 32.0759 27.1118 32.2776C26.6952 32.4336 26.3886 32.3232 26.252 31.9677C25.9238 31.1129 26.3604 30.9514 27.2734 31.5904C28.2118 32.2472 28.6655 32.3265 28.6655 31.8326C28.6655 31.6469 28.33 31.3888 27.9198 31.2584C27.0894 30.9952 27.0571 29.3797 27.8858 29.5546C28.1448 29.6093 28.2651 29.5054 28.1528 29.324C28.0408 29.1426 28.1811 28.8012 28.4651 28.5658C29.1409 28.0054 30.6235 28.7324 30.3354 29.4829C30.0662 30.1835 30.2199 30.1346 31.2742 29.1835C32.9301 27.6893 34.2533 26.7396 34.6794 26.7396C34.9116 26.7396 35.5283 27.299 36.05 27.9826ZM38.8106 27.5648C38.8106 27.8196 39.1367 28.2628 39.5353 28.5499C40.3987 29.1719 40.4563 29.7465 39.7164 30.3602C39.3411 30.6715 39.1729 30.6853 39.1729 30.4043C39.1729 30.181 38.9244 29.9981 38.6204 29.9981C37.9997 29.9981 37.2327 28.3204 37.5164 27.5825C37.7526 26.967 38.8106 26.9529 38.8106 27.5648ZM27.1256 28.7422C27.1256 29.4025 26.9564 29.6393 26.5408 29.5593C25.8024 29.417 25.5408 28.1893 26.1669 27.8026C26.8368 27.3888 27.1256 27.6719 27.1256 28.7422ZM31.7061 30.4232C31.6025 30.5908 31.7739 30.9836 32.0869 31.2964C32.3996 31.6089 32.8235 32.178 33.0286 32.5607C33.5609 33.5546 33.9192 33.4206 33.9192 32.228C33.9192 31.4025 33.7859 31.2342 33.2438 31.3757C32.7065 31.5162 32.6152 31.4061 32.7964 30.8355C32.9565 30.3305 32.8572 30.1187 32.4594 30.1187C32.1485 30.1187 31.8098 30.2559 31.7061 30.4232ZM38.2671 31.8084C38.1439 32.0075 37.8899 32.1704 37.7023 32.1704C37.5146 32.1704 37.3613 32.0075 37.3613 31.8084C37.3613 31.6092 37.6157 31.4463 37.9262 31.4463C38.2367 31.4463 38.3903 31.6092 38.2671 31.8084ZM18.4298 33.3876C17.5457 34.0987 16.9892 35.0219 17.7149 34.5737C17.8696 34.4781 18.2696 34.8757 18.6037 35.4575C19.0954 36.313 19.1149 36.515 18.7062 36.515C18.4283 36.515 18.0845 36.7033 17.9424 36.9332C17.7881 37.1827 17.8424 37.2533 18.0769 37.1081C18.2932 36.9745 18.5725 37.031 18.6979 37.2334C19.0689 37.8329 17.9265 37.6519 17.4091 37.0288C17.0345 36.578 17.0258 36.3087 17.3678 35.7616C17.7236 35.1917 17.7033 35.0668 17.2551 35.0668C16.9547 35.0668 16.7087 34.8225 16.7087 34.5238C16.7087 34.2251 16.8718 33.9807 17.071 33.9807C17.2703 33.9807 17.4334 33.8178 17.4334 33.6186C17.4334 32.9485 18.6834 31.9003 19.0638 32.2519C19.2986 32.4687 19.0754 32.8685 18.4298 33.3876ZM29.3901 32.3815C28.8256 32.6947 28.6974 32.8858 29.0492 32.8891C29.3597 32.892 29.9304 32.6552 30.3173 32.363C31.1967 31.6983 30.601 31.7103 29.3901 32.3815ZM22.6491 33.4155C22.932 34.5411 22.2523 34.9843 21.5874 34.1074C21.1099 33.4774 21.0791 33.4937 21.0682 34.3775C21.0516 35.7392 22.1451 37.8195 22.5447 37.1866C22.7396 36.8782 22.6679 36.556 22.3509 36.3181C21.9277 36.0006 21.9541 35.7978 22.5161 35.0531C23.1128 34.2627 23.2121 34.2352 23.4281 34.7978C23.7987 35.7631 24.2469 35.5487 24.1908 34.4333C24.1437 33.4959 23.4317 32.5698 22.7386 32.5441C22.5672 32.5375 22.5273 32.9297 22.6491 33.4155ZM32.1076 32.8945C31.9844 33.0937 32.0565 33.2566 32.2674 33.2566C32.4782 33.2566 32.6511 33.0937 32.6511 32.8945C32.6511 32.6954 32.5793 32.5325 32.4913 32.5325C32.4032 32.5325 32.2308 32.6954 32.1076 32.8945ZM36.5685 33.5241C36.5019 33.8703 36.1537 34.2099 35.795 34.279C35.2196 34.3894 35.1986 34.3152 35.6145 33.6494C36.1877 32.7323 36.7349 32.6603 36.5685 33.5241ZM31.017 33.9865C30.8916 34.1889 30.6547 34.2714 30.4902 34.1697C30.0333 33.8876 29.7749 34.8836 30.1554 35.4618C30.4336 35.8847 30.5825 35.8518 31.0275 35.2692C31.5318 34.6089 31.7579 33.6186 31.4043 33.6186C31.3163 33.6186 31.142 33.7841 31.017 33.9865ZM52.4373 34.2577C52.8932 34.5596 55.2088 37.2254 56.5646 39.0089C58.8835 42.0595 59.8292 43.2463 60.2621 43.6518C60.5201 43.8929 61.2716 44.5834 61.9321 45.1858C62.8984 46.0674 63.1108 46.5102 63.0191 47.4537C62.9289 48.382 62.6165 48.7872 61.5183 49.4008C60.7556 49.827 59.1067 51.1749 57.8545 52.3965C56.6023 53.618 55.4555 54.6176 55.3062 54.6176C54.6939 54.6176 50.1971 58.5745 44.7115 63.9405C43.4393 65.1852 42.2687 66.2033 42.11 66.2033C41.9513 66.2033 41.511 66.5502 41.1313 66.9745C40.3002 67.9031 37.9059 69.4618 37.311 69.4618C36.8758 69.4618 33.7381 66.2399 33.7381 65.7928C33.7381 65.6581 33.1572 64.8398 32.4474 63.9749C31.738 63.1096 30.9068 62.0962 30.6007 61.7226C29.6307 60.5397 26.8539 55.812 26.8539 55.3439C26.8539 54.816 29.5872 52.0833 30.1151 52.0833C30.3144 52.0833 30.4771 51.9537 30.4771 51.7955C30.4771 51.6376 31.3239 50.8635 32.359 50.0757C33.3938 49.2882 35.8649 47.0551 37.8501 45.1138C39.8353 43.1725 41.5578 41.5838 41.6784 41.5838C41.7987 41.5838 42.1009 41.2579 42.3498 40.8597C42.5987 40.4614 42.9745 40.1356 43.185 40.1356C43.3955 40.1356 43.9792 39.6468 44.4821 39.0494C44.9854 38.452 45.6187 37.9633 45.8901 37.9633C46.1615 37.9633 46.5137 37.75 46.6731 37.4893C47.1438 36.7196 50.9014 33.9926 51.492 33.9923C51.791 33.9919 52.2163 34.1114 52.4373 34.2577ZM15.5388 36.5831C15.3148 37.2544 14.5348 37.3655 14.5348 36.7261C14.5348 36.4108 14.7927 36.153 15.1083 36.153C15.4239 36.153 15.6178 36.3463 15.5388 36.5831ZM25.1118 37.2156C25.3524 37.6012 25.6814 37.8351 25.8422 37.7359C26.0031 37.6363 25.9006 37.321 25.6143 37.0349C24.8723 36.2935 24.5973 36.3923 25.1118 37.2156ZM16.8573 37.9991C16.4931 38.4013 16.408 38.6874 16.6526 38.6874C16.8826 38.6874 17.071 38.8539 17.071 39.0577C17.071 39.2616 16.6634 39.1613 16.1652 38.8351C15.0442 38.1012 15.0192 37.6686 16.0746 37.2699C17.22 36.8376 17.5939 37.1859 16.8573 37.9991ZM40.4929 37.7869C40.7708 38.51 39.9922 39.4115 39.09 39.4115C38.6208 39.4115 38.4389 39.5885 38.5664 39.9205C38.6737 40.2004 38.4661 40.6971 38.1045 41.0237C37.499 41.5715 37.4015 41.5722 36.8609 41.032C36.1946 40.3662 36.0943 39.7735 36.6479 39.7735C36.853 39.7735 37.5222 39.2033 38.1345 38.5063C39.3244 37.1523 40.1523 36.8999 40.4929 37.7869ZM23.0346 37.9875C22.9031 38.1997 22.8733 38.4513 22.9683 38.5462C23.0632 38.641 23.2375 38.4672 23.3556 38.1599C23.6005 37.5219 23.3918 37.4097 23.0346 37.9875ZM20.7233 39.296C20.2834 39.7909 20.2827 39.8503 20.7197 39.7047C21.3008 39.511 22.5059 40.8694 22.5059 41.7188C22.5059 42.5237 23.7741 43.1435 24.2495 42.5707C24.6618 42.0744 23.9882 40.8597 23.3009 40.8597C23.0846 40.8597 22.6951 40.4238 22.4353 39.8908C21.8545 38.7007 21.3943 38.5407 20.7233 39.296ZM18.5203 40.3166C18.5203 40.6153 18.666 40.8597 18.8439 40.8597C19.0218 40.8597 19.27 41.1269 19.3957 41.4538C19.645 42.103 19.3461 43.394 18.9461 43.394C18.712 43.394 16.7087 40.3014 16.7087 39.9397C16.7087 39.8485 17.1163 39.7735 17.6145 39.7735C18.1783 39.7735 18.5203 39.9788 18.5203 40.3166ZM29.3847 40.0451C29.3713 40.6888 28.7517 41.292 28.5082 40.8984C28.372 40.6779 28.3611 40.3347 28.4843 40.1356C28.7456 39.7134 29.3927 39.6482 29.3847 40.0451ZM36.0189 42.1895C35.7091 42.9965 34.3152 44.2825 33.617 44.4056C32.7514 44.558 32.8652 43.4987 33.7663 43.0168C34.1888 42.7909 34.4337 42.3926 34.3247 42.1088C34.0685 41.4415 35.2138 40.793 35.7961 41.2757C36.0356 41.4744 36.1356 41.8854 36.0189 42.1895ZM21.5139 43.2818C21.8509 43.6185 22.248 43.7727 22.3962 43.6243C22.5447 43.4759 22.4262 43.2032 22.1331 43.0179C21.2508 42.4603 20.8592 42.6276 21.5139 43.2818ZM32.6511 45.0063C32.6511 46.0164 31.8036 47.407 31.3047 47.2155C31.0336 47.1119 30.7231 47.2586 30.6144 47.5417C30.5054 47.8248 29.9315 48.163 29.338 48.2933C28.6615 48.4418 28.1361 48.8545 27.9281 49.4016C27.7455 49.8809 27.3731 50.273 27.1002 50.273C26.827 50.273 26.3086 50.5989 25.948 50.9971C25.5875 51.3954 25.0553 51.7212 24.7654 51.7212C24.4759 51.7212 25.3038 50.6622 26.6053 49.3679C27.9071 48.0736 29.1517 47.0146 29.3713 47.0146C29.5909 47.0146 29.9271 46.6029 30.1184 46.0997C30.3101 45.5964 30.8358 45.0367 31.2869 44.8556C32.45 44.3886 32.6511 44.4107 32.6511 45.0063ZM22.1436 47.0146C22.1436 47.2137 21.9708 47.3766 21.7599 47.3766C21.549 47.3766 21.4769 47.2137 21.6001 47.0146C21.7233 46.8154 21.8958 46.6525 21.9838 46.6525C22.0719 46.6525 22.1436 46.8154 22.1436 47.0146ZM24.0966 48.0236C24.5647 48.928 24.5513 49.1213 23.9694 49.8921L23.3201 50.7524L22.6675 49.378C22.0356 48.0475 22.0364 47.9881 22.6922 47.5091C23.5607 46.8745 23.4882 46.848 24.0966 48.0236ZM64.4361 56.9493C65.4659 57.1752 65.5724 57.3131 65.396 58.1951C65.2369 58.9891 65.5829 59.7204 67.1311 61.8623C68.1946 63.334 70.1725 65.7022 71.5265 67.1255C72.8805 68.5487 74.3215 70.3492 74.7287 71.1261C75.1364 71.9035 75.6621 72.7021 75.8976 72.9013C76.7378 73.6113 79.7535 77.8693 79.7535 78.3454C79.7535 78.7908 75.8751 82.3968 71.5906 85.9351C70.6261 86.7317 68.8902 88.2385 67.7329 89.2841C66.576 90.3297 65.447 91.1849 65.2249 91.1849C65.0024 91.1849 64.9169 91.4354 65.0343 91.7417C65.1579 92.0636 65.0213 92.3692 64.7108 92.4658C64.4151 92.5578 63.8879 92.7414 63.5394 92.8735C63.1908 93.0057 62.8238 93.136 62.7241 93.1631C62.6245 93.1907 61.9198 93.8156 61.1585 94.5524C59.59 96.0697 58.9954 96.1993 58.2809 95.1801C57.3864 93.9039 53.6848 90.0987 53.3381 90.0987C53.1518 90.0987 52.7287 89.2841 52.3979 88.2885C52.0522 87.2487 51.5772 86.4782 51.2819 86.4782C50.9989 86.4782 50.7674 86.379 50.7674 86.2577C50.7674 85.9692 52.0649 84.5217 53.7258 82.9584C54.4562 82.2705 55.2512 81.2314 55.4928 80.6488C55.8874 79.697 55.8276 79.4396 54.9048 78.1087C53.4692 76.0385 52.4566 75.7238 50.7859 76.8284C50.0594 77.3089 49.0652 78.4548 48.5768 79.3748C47.6938 81.038 47.0209 81.4681 46.6821 80.5858C46.5843 80.3316 45.5886 78.8483 44.4694 77.2893C43.3498 75.73 42.4339 74.3292 42.4339 74.1757C42.4339 74.0226 43.4317 72.94 44.651 71.7699C45.8706 70.6001 47.6242 68.9096 48.5481 68.0136C50.933 65.7001 53.3442 63.6881 55.4899 62.2207C56.5088 61.5238 57.4846 60.6006 57.6577 60.169C57.8313 59.7378 58.9904 58.5387 60.2339 57.5046C62.1274 55.9301 62.5582 55.7114 62.8865 56.1596C63.1017 56.454 63.7992 56.8091 64.4361 56.9493ZM60.4839 67.922C58.4085 69.036 57.7077 70.3836 58.3712 71.9842C58.9451 73.3687 59.5009 73.8096 61.1372 74.1782C62.3144 74.4436 62.6419 74.3458 63.9553 73.339C66.2753 71.561 68.159 69.7199 68.159 69.2315C68.159 68.7475 67.025 68.2804 65.6804 68.2113C65.2137 68.1874 64.676 67.8887 64.4847 67.5476C64.0042 66.6892 62.5216 66.8282 60.4839 67.922ZM61.5223 70.978C61.4067 71.2666 61.3209 71.1808 61.3035 70.759C61.2879 70.3774 61.3734 70.1638 61.4937 70.284C61.614 70.4042 61.627 70.7166 61.5223 70.978ZM82.6521 83.5188C82.6521 83.8656 81.589 84.8349 79.6629 86.2447C78.9158 86.7917 78.3042 87.0644 78.3042 86.8508C78.3042 86.6375 78.7118 86.2773 79.21 86.0503C79.7082 85.8236 80.1158 85.5025 80.1158 85.3367C80.1158 84.82 81.6713 83.2197 82.1738 83.2197C82.4369 83.2197 82.6521 83.3544 82.6521 83.5188ZM77.4933 88.3258C77.2998 88.8247 73.2316 91.9354 73.2316 91.5846C73.2316 90.9228 76.2987 87.9992 76.9498 88.0405C77.3009 88.0629 77.5455 88.1911 77.4933 88.3258ZM72.3258 92.6331C71.9653 93.0314 71.5069 93.3572 71.3077 93.3572C71.1084 93.3572 71.2406 93.0314 71.6011 92.6331C71.9617 92.2348 72.42 91.909 72.6193 91.909C72.8186 91.909 72.6863 92.2348 72.3258 92.6331Z" fill="#747171"/>
</svg>
