<svg width="214" height="165" viewBox="0 0 214 165" fill="none" xmlns="http://www.w3.org/2000/svg">
<path fill-rule="evenodd" clip-rule="evenodd" d="M102.645 0.179329C102.468 0.365404 98.781 0.625563 94.4515 0.758594C80.9312 1.17368 63.8688 5.08381 50.5532 10.8176C46.5294 12.5512 42.3119 14.7403 41.1815 15.6833C40.0511 16.6264 37.5473 18.2093 35.6176 19.2003C31.7969 21.1612 27.7945 25.5555 28.5875 26.9169C28.8733 27.4078 28.4549 27.6343 27.6 27.4524C26.7419 27.2697 25.5066 27.9466 24.6676 29.0589C23.8706 30.1164 21.6844 32.1009 19.8094 33.4691C17.1183 35.4326 15.9229 37.1603 14.1312 41.6741C12.8825 44.8197 11.6489 47.4963 11.3902 47.6234C11.1306 47.7506 11.0678 48.9378 11.2512 50.2605C11.4409 51.6321 11.1576 52.9455 10.5916 53.3168C9.90732 53.7656 9.79776 53.625 10.2407 52.8655C10.6567 52.1516 10.5725 51.9672 10.001 52.3418C9.51595 52.6593 9.32067 53.476 9.56676 54.1554C9.81205 54.8349 9.6184 55.3915 9.13496 55.3915C8.65153 55.3915 8.34586 55.6752 8.45461 56.0229C8.56416 56.3707 8.39194 56.6544 8.07282 56.6544C6.85748 56.6544 5.2468 60.2319 3.99732 65.7056C3.28368 68.831 2.12791 73.8777 1.42855 76.9189C-1.13787 88.0927 -0.276603 97.3114 4.2577 107.189C9.20161 117.957 17.7129 125.698 30.6816 131.219L35.246 133.162L35.381 141.638C35.4549 146.299 35.4207 151.775 35.3048 153.806C35.1881 155.837 35.4524 158.3 35.8914 159.279C36.3304 160.258 36.8757 161.684 37.1036 162.448C37.3568 163.3 38.8023 164.068 40.8416 164.433C45.5014 165.268 74.9799 165.147 75.7428 164.289C76.0881 163.902 76.4993 162.829 76.6557 161.907C76.8129 160.984 77.9226 159.731 79.122 159.12C83.4428 156.924 84.1993 153.586 84.8058 134.026C85.7243 104.44 85.5481 98.6594 83.5969 94.3839C81.2765 89.3017 75.3546 81.7644 72.4127 80.1512C69.1874 78.3822 66.8917 77.9562 60.2514 77.8973C48.5687 77.7929 40.5932 84.8368 35.9931 99.3221C35.0889 102.168 34.407 105.857 34.4776 107.519C34.7173 113.167 34.4538 116.013 33.6902 116.013C32.3486 116.013 24.9264 107.487 24.9264 105.945C24.9264 105.463 24.5692 105.068 24.1326 105.068C23.696 105.068 23.3387 104.542 23.3387 103.901C23.3387 103.259 22.787 101.649 22.1123 100.322L20.8866 97.9109L21.3875 101.279C21.6638 103.131 22.922 106.257 24.185 108.225C25.448 110.193 26.1798 111.803 25.8123 111.803C24.7271 111.803 20.9573 107.465 20.9573 106.216C20.9573 105.585 20.6278 105.068 20.2254 105.068C19.8221 105.068 19.0426 103.647 18.4917 101.91C17.3589 98.3352 17.0398 95.8776 17.7193 95.9542C19.5832 96.163 19.9992 95.1922 20.3984 89.7017C20.6429 86.3448 21.0891 82.7445 21.3899 81.703C21.7154 80.5739 21.5994 79.8086 21.1033 79.8086C19.8356 79.8086 19.1942 82.8388 19.2696 88.4808C19.3133 91.7906 19.0656 93.2944 18.5639 92.7623C17.2438 91.3621 17.3533 81.0505 18.7124 78.8352C19.3784 77.7499 20.3754 75.3461 20.9295 73.4938C24.4667 61.6591 29.5123 53.4785 41.88 39.5262C47.7218 32.9361 63.9633 22.5623 70.9679 20.9465C73.3693 20.3925 77.12 19.4318 79.3031 18.8113C87.4818 16.4866 96.3551 15.589 105.361 16.175C110.24 16.4933 117.167 16.9 120.756 17.0802C128.204 17.454 134.04 18.4897 144.793 21.3456C157.987 24.8491 159.463 25.2978 160.233 26.0387C160.647 26.4378 161.56 26.7645 162.26 26.7645C162.961 26.7645 165.479 27.7462 167.857 28.9461C170.234 30.1467 173.073 31.562 174.165 32.0933C175.256 32.6238 179.258 36.3638 183.057 40.4035C190.282 48.0857 193.517 53.8919 197.276 65.9161C198.145 68.6946 199.372 72.1618 200.005 73.6209C201.321 76.6588 201.465 78.1246 200.446 78.1246C200.057 78.1246 199.53 77.2422 199.276 76.1645C199.02 75.0868 197.829 73.0972 196.629 71.7442C195.429 70.3911 194.547 68.9354 194.67 68.5102C194.793 68.0841 194.332 68.2306 193.645 68.8352C192.693 69.6729 190.746 69.7774 185.463 69.2747C181.65 68.9118 177.459 68.5506 176.149 68.4723C170.293 68.1229 155.895 71.0647 154.089 72.9802C153.605 73.4938 152.363 73.9148 151.33 73.9148C149.516 73.9148 146.374 77.0419 144.226 80.9856C143.01 83.2185 142.906 85.9979 144.068 85.2359C144.631 84.8671 144.849 85.5112 144.693 87.0815C144.562 88.4076 144.674 89.8709 144.942 90.334C145.211 90.7962 145.647 92.6317 145.913 94.4125C146.178 96.1932 146.906 100.172 147.53 103.253C148.154 106.335 148.902 111.509 149.193 114.75C149.483 117.992 150.034 120.851 150.417 121.105C150.799 121.357 151.273 122.873 151.47 124.472C152.079 129.418 153.518 135.446 154.647 137.78C155.241 139.006 156.175 143.515 156.724 147.801C157.272 152.086 158.235 156.253 158.863 157.063C159.93 158.435 159.969 158.421 159.453 156.849C159.15 155.923 158.746 154.407 158.556 153.481C158.265 152.07 158.44 152.138 159.638 153.902C163.77 159.989 163.966 160.069 173.24 159.455C183.769 158.757 194.143 157.346 195.197 156.469C195.636 156.104 197.245 155.566 198.773 155.274C200.301 154.982 202.587 153.798 203.853 152.644C205.118 151.489 207.346 150.195 208.804 149.768C213.399 148.422 214.026 147.122 213.824 139.359C213.725 135.549 213.594 130.537 213.534 128.222C213.473 125.906 213.185 123.61 212.893 123.12C212.601 122.63 212.112 116.555 211.808 109.622C211.346 99.088 211.48 96.0619 212.625 91.2189C214.087 85.0338 214.389 76.4769 213.502 66.2967C212.785 58.0462 211.166 52.0952 208.306 47.1856C207.023 44.9839 205.443 41.9519 204.795 40.4465C204.147 38.9411 203.075 37.7101 202.412 37.7101C201.75 37.7101 198.784 35.1194 195.822 31.9536C188.247 23.8538 179.656 17.4902 172.18 14.4381C170.87 13.9034 167.931 12.6742 165.649 11.7059C163.367 10.7385 158.545 9.14125 154.933 8.15614C151.321 7.17188 148.008 6.08155 147.572 5.73466C146.419 4.8186 136.614 2.47537 129.711 1.46669C123.491 0.557366 103.203 -0.407523 102.645 0.179329ZM38.3626 26.0109C37.4624 27.3513 36.378 28.4484 35.9526 28.4484C35.5279 28.4484 34.4125 29.2062 33.4758 30.1324C32.5383 31.0585 32.0556 31.8163 32.4033 31.8163C32.751 31.8163 31.0325 33.9751 28.5836 36.6139C26.1354 39.2517 24.1326 41.8635 24.1326 42.4176C24.1326 42.9707 23.5737 43.651 22.8918 43.9289C22.2091 44.2067 21.8369 44.7532 22.0639 45.1438C22.2917 45.5345 20.6977 48.4738 18.5226 51.675C16.3468 54.877 14.1836 59.0119 13.7152 60.8643C13.2469 62.7166 12.5889 64.611 12.2531 65.0741C10.8448 67.0148 8.28875 76.6444 7.40681 83.3305C6.69873 88.7023 6.6812 91.8538 7.33927 95.8144C8.31409 101.685 12.1713 111.133 14.8552 114.224C16.1745 115.743 15.6942 115.559 12.8555 113.456C9.89932 111.266 8.70388 109.62 7.12735 105.563C3.92111 97.3106 3.3035 93.6009 3.89887 86.1797C5.09913 71.2213 9.52227 58.8486 16.5388 50.8255C18.5321 48.5454 20.1635 46.5567 20.1635 46.4051C20.1635 45.4192 18.6607 46.6527 15.6244 50.1291L12.1316 54.1285L14.9568 48.7854C17.971 43.0844 18.2321 42.3679 16.9969 43.177C16.5389 43.4776 16.4198 43.1189 16.7111 42.314C17.0763 41.3045 17.3684 41.2102 17.8074 41.9629C18.2353 42.6971 18.6473 42.5093 19.2562 41.3028C19.7245 40.375 19.8816 39.3763 19.6062 39.0833C19.3307 38.7912 19.5498 38.5521 20.0936 38.5521C20.6366 38.5521 22.4822 36.9582 24.1945 35.0108C25.9067 33.0633 27.3078 31.7372 27.3078 32.0639C27.3078 32.3905 28.0223 31.9005 28.8955 30.9744C29.7687 30.0482 30.4831 28.9115 30.4831 28.4484C30.4831 27.6578 31.6389 27.2545 33.1218 27.5273C33.4822 27.5939 33.5719 27.2966 33.3219 26.8672C32.7162 25.8282 37.5973 22.5951 38.9436 23.1432C39.7565 23.4741 39.6232 24.1325 38.3626 26.0109ZM191.478 74.1253C191.641 75.0245 191.258 75.5987 190.496 75.5987C189.809 75.5987 189.247 76.167 189.247 76.8617C189.247 77.5563 188.852 78.1246 188.368 78.1246C187.885 78.1246 187.678 77.6026 187.91 76.9644C188.141 76.3262 187.96 75.4118 187.508 74.9327C186.328 73.6815 187.322 72.443 189.415 72.555C190.446 72.6106 191.325 73.2791 191.478 74.1253ZM176.927 74.2196C178.276 75.2653 178.873 76.7404 179.106 79.5981C179.154 80.1773 179.461 80.6505 179.79 80.6505C181.078 80.6505 184.552 95.0701 184.626 100.72C184.654 102.897 185.04 104.226 185.643 104.226C186.666 104.226 188.453 109.495 188.453 112.513C188.453 113.491 189.357 116.838 190.462 119.951C191.567 123.064 192.281 126.135 192.05 126.774C191.818 127.414 192.164 128.749 192.819 129.741C193.474 130.732 194.01 132.763 194.01 134.253C194.01 135.744 194.382 137.206 194.836 137.504C195.29 137.803 195.467 138.698 195.229 139.497C194.99 140.294 195.086 142.63 195.442 144.687C196.698 151.942 196.299 152.359 186.442 154.101C180.361 155.175 175.91 155.48 171.679 155.113C166.17 154.634 165.466 154.363 163.903 152.121C162.958 150.765 162.379 149.323 162.615 148.917C162.991 148.272 160.64 138.279 158.342 130.748C156.284 124.002 150.591 92.3859 150.267 85.8935C150.148 83.5132 150.467 81.0943 150.988 80.4283C151.503 79.7707 151.74 79.0373 151.515 78.7982C151.29 78.5599 151.65 77.8855 152.315 77.2995C153.143 76.5712 153.525 76.5333 153.525 77.1799C153.525 77.6994 153.108 78.1246 152.599 78.1246C152.09 78.1246 151.883 78.3477 152.14 78.6197C152.396 78.8917 153.721 78.2416 155.082 77.174C156.997 75.6728 159.394 75.0144 165.663 74.2701C170.12 73.7405 174.145 73.2547 174.608 73.1907C175.07 73.1259 176.114 73.5889 176.927 74.2196ZM62.6876 82.7858C67.1401 83.3996 71.3529 86.9198 69.2914 88.304C68.6857 88.7116 68.5468 89.0508 68.9834 89.0593C69.42 89.0677 69.8423 91.1634 69.9225 93.7179C70.0026 96.2783 69.7486 98.1525 69.3565 97.8957C68.9659 97.6389 68.692 98.4851 68.7484 99.775C68.8905 103.031 67.6569 134.857 67.3679 135.394C67.2386 135.634 67.6164 140.494 68.2078 146.195C68.7984 151.896 69.0874 157.099 68.8493 157.757C68.5016 158.72 66.2232 158.934 57.1896 158.854C51.0144 158.8 44.891 158.512 43.5812 158.216C41.2449 157.688 41.1902 157.556 40.7068 151.255C40.1812 144.407 38.9547 113.636 39.1508 112.224C39.2151 111.761 39.3747 109.444 39.5057 107.074C40.0383 97.4293 42.7032 92.4305 51.124 85.2814C53.1236 83.5831 57.4849 81.6087 58.3216 82.0221C58.5708 82.145 60.5355 82.4885 62.6876 82.7858ZM74.937 83.1764C74.937 83.6395 74.7798 84.0184 74.5869 84.0184C74.394 84.0184 74.0162 83.6395 73.7463 83.1764C73.4764 82.7133 73.6344 82.3345 74.0964 82.3345C74.5584 82.3345 74.937 82.7133 74.937 83.1764ZM201.948 84.8604C201.948 85.3234 201.591 85.7023 201.154 85.7023C200.718 85.7023 200.361 85.3234 200.361 84.8604C200.361 84.3973 200.718 84.0184 201.154 84.0184C201.591 84.0184 201.948 84.3973 201.948 84.8604ZM191.544 93.2801C191.586 93.9747 191.087 93.4619 190.437 92.14C189.787 90.8181 189.507 89.3068 189.813 88.7806C190.355 87.8502 191.383 90.5192 191.544 93.2801ZM207.025 96.3676C206.633 104.421 205.917 105.553 205.917 98.1197C205.917 93.2455 206.402 89.9122 207.11 89.9122C207.236 89.9122 207.198 92.817 207.025 96.3676ZM73.0224 98.1172C72.169 99.0223 71.7157 97.7543 72.3151 96.1369C72.8771 94.6196 72.9199 94.6171 73.1978 96.0821C73.3581 96.9292 73.2796 97.8444 73.0224 98.1172ZM143.999 102.542C143.999 103.468 144.137 104.226 144.303 104.226C144.471 104.226 144.795 103.468 145.023 102.542C145.251 101.616 145.115 100.858 144.719 100.858C144.323 100.858 143.999 101.616 143.999 102.542ZM195.346 104.384C195.093 105.055 194.905 104.855 194.867 103.875C194.832 102.987 195.02 102.49 195.283 102.77C195.547 103.049 195.575 103.776 195.346 104.384ZM79.4309 120.911C79.2292 125.688 78.8506 129.824 78.5886 130.102C78.3266 130.38 78.0846 129.881 78.0496 128.994C78.0155 128.106 77.8543 122.454 77.6908 116.434C77.4066 105.913 77.4416 105.619 78.5958 108.856C79.4912 111.369 79.7031 114.431 79.4309 120.911ZM196.188 110.617C195.404 111.447 194.04 109.332 194.514 108.023C195.02 106.624 195.134 106.661 195.748 108.423C196.121 109.49 196.319 110.478 196.188 110.617ZM198.309 108.975C198.728 110.131 198.611 110.183 197.6 109.293C196.223 108.081 196.079 107.594 197.1 107.594C197.49 107.594 198.034 108.216 198.309 108.975ZM72.5556 109.698C72.5556 110.393 72.4151 110.961 72.2437 110.961C72.0722 110.961 71.726 110.393 71.4744 109.698C71.2235 109.004 71.3641 108.435 71.7864 108.435C72.2095 108.435 72.5556 109.004 72.5556 109.698ZM208.828 113.981C209.466 118.436 207.827 116.795 207.074 112.224C206.656 109.69 206.746 109.083 207.438 109.771C207.943 110.274 208.569 112.169 208.828 113.981ZM200.269 112.856C200.634 113.897 201.169 116.125 201.459 117.806C201.938 120.594 201.809 120.897 199.987 121.266C198.179 121.633 195.818 120.029 196.092 118.62C196.404 117.01 195.21 116.07 193.332 116.445C191.309 116.849 191.32 116.819 193.613 115.635C194.923 114.958 196.823 114.388 197.834 114.367C199.306 114.337 199.573 113.993 199.17 112.645C198.476 110.326 199.449 110.513 200.269 112.856ZM75.7936 117.462C75.0783 118.743 75.0053 118.655 75.2855 116.855C75.4657 115.697 75.688 114.182 75.7801 113.487C75.8722 112.793 76.1008 113.066 76.2881 114.094C76.4755 115.123 76.2532 116.639 75.7936 117.462ZM197.991 116.996C197.998 117.613 198.35 118.686 198.773 119.381C199.43 120.46 199.545 120.43 199.555 119.171C199.561 118.361 199.594 117.423 199.626 117.087C199.659 116.751 199.302 116.341 198.832 116.175C198.363 116.009 197.985 116.378 197.991 116.996ZM76.273 125.433C76.0198 126.104 75.8317 125.905 75.7936 124.924C75.7594 124.036 75.9468 123.54 76.2103 123.819C76.4739 124.099 76.5024 124.825 76.273 125.433ZM207.505 125.746C207.505 126.967 207.161 127.675 206.711 127.38C206.275 127.094 205.917 126.124 205.917 125.225C205.917 124.326 206.275 123.591 206.711 123.591C207.148 123.591 207.505 124.561 207.505 125.746ZM200.109 126.275C199.856 126.946 199.668 126.747 199.63 125.766C199.595 124.878 199.783 124.382 200.046 124.661C200.31 124.941 200.338 125.667 200.109 126.275ZM71.0227 134.813C71.0973 139.798 70.937 144.111 70.6663 144.399C70.3956 144.686 70.1741 140.437 70.1741 134.958C70.1741 129.478 70.3345 125.164 70.5298 125.372C70.7258 125.58 70.9473 129.827 71.0227 134.813ZM198.282 129.108C198.553 129.857 198.42 130.194 197.97 129.9C197.539 129.617 197.185 129.029 197.185 128.593C197.185 127.382 197.754 127.649 198.282 129.108ZM209.886 131.079C209.886 132.112 207.65 132.941 207.155 132.091C206.935 131.713 206.983 131.161 207.262 130.865C208.019 130.062 209.886 130.215 209.886 131.079ZM78.214 140.43L77.4923 144.219L77.4145 140.851C77.3709 138.999 77.6003 135.968 77.9226 134.116L78.5092 130.748L78.7219 133.695C78.8394 135.315 78.6109 138.346 78.214 140.43ZM209.574 137.064C209.62 138.453 209.353 139.588 208.978 139.588C208.604 139.588 208.299 138.452 208.299 137.062C208.299 133.769 209.464 133.77 209.574 137.064ZM213.062 138.375C213.062 139.097 212.699 139.449 212.255 139.159C211.811 138.868 211.653 138.277 211.905 137.846C212.585 136.679 213.062 136.896 213.062 138.375ZM203.754 140.536C202.929 141.41 199.567 140.499 199.567 139.4C199.567 138.942 200.103 138.784 200.758 139.051C201.412 139.317 201.948 139.122 201.948 138.617C201.948 138.022 202.38 138.078 203.172 138.776C203.846 139.369 204.107 140.161 203.754 140.536ZM213.062 142.956C213.062 144.345 212.705 145.482 212.268 145.482C211.831 145.482 211.474 144.345 211.474 142.956C211.474 141.567 211.831 140.43 212.268 140.43C212.705 140.43 213.062 141.567 213.062 142.956ZM202.236 143.377C202.487 144.072 202.346 144.64 201.924 144.64C201.501 144.64 201.154 144.072 201.154 143.377C201.154 142.683 201.295 142.114 201.466 142.114C201.638 142.114 201.984 142.683 202.236 143.377ZM72.5437 152.478C72.55 152.853 72.1984 152.925 71.7618 152.639C71.3252 152.353 70.9735 151.478 70.9799 150.695C70.991 149.468 71.0989 149.445 71.7618 150.534C72.1849 151.229 72.5365 152.103 72.5437 152.478ZM78.9062 152.689C78.9062 153.41 78.5489 153.767 78.1123 153.481C77.6757 153.195 77.3185 152.604 77.3185 152.168C77.3185 151.732 77.6757 151.376 78.1123 151.376C78.5489 151.376 78.9062 151.967 78.9062 152.689Z" fill="#747171" fill-opacity="0.85"/>
</svg>
