<svg width="332" height="91" viewBox="0 0 332 91" fill="none" xmlns="http://www.w3.org/2000/svg">
<path fill-rule="evenodd" clip-rule="evenodd" d="M-18.4124 90.1099C-17.1945 88.8559 -17.5545 85.9259 -18.9945 85.3739C-19.7275 85.0929 -24.3395 84.7889 -29.2445 84.6989C-34.1495 84.6089 -39.8344 84.3919 -41.8784 84.2179C-43.9214 84.0429 -46.3964 84.4959 -47.3784 85.2239C-49.0004 86.4279 -49.0195 86.694 -47.5935 88.144C-46.3755 89.381 -43.0115 89.867 -32.5935 90.31C-25.2065 90.624 -18.8244 90.5339 -18.4124 90.1099ZM22.5876 86.5089C26.8046 85.0389 28.3376 84.0089 28.3376 82.6469C28.3376 79.6019 26.7446 79.452 18.6216 81.732C11.4656 83.74 7.84351 86.0619 8.9855 87.9099C9.8255 89.2689 16.6996 88.5609 22.5876 86.5089ZM-1268 87.523C-1264.13 86.654 -1262 84.545 -1263.14 82.706C-1264.1 81.161 -1279.89 82.951 -1282.35 84.883C-1283.01 85.397 -1283.3 86.4589 -1283 87.2439C-1282.36 88.8909 -1274.73 89.033 -1268 87.523ZM-653.662 85.529C-645.278 84.373 -641.662 82.895 -641.662 80.623C-641.662 78.342 -643.95 77.857 -649.662 78.924C-652.137 79.387 -655.717 79.9789 -657.619 80.2389C-659.52 80.4989 -662.137 81.408 -663.435 82.258C-665.332 83.501 -665.562 84.086 -664.606 85.238C-663.299 86.814 -663.039 86.821 -653.662 85.529ZM-697.75 83.2769C-695.916 81.0669 -698.778 79.044 -704.847 78.258C-707.771 77.88 -713.152 76.6879 -716.805 75.6099C-725.303 73.1029 -729.085 74.1859 -724.912 77.9319C-722.473 80.1229 -716.23 82.3879 -709.228 83.6239C-701.36 85.0119 -699.134 84.9449 -697.75 83.2769ZM-1295.05 83.2249C-1294.04 80.5939 -1296.61 78.939 -1302.66 78.331C-1305.69 78.026 -1310.86 77.5099 -1314.16 77.1819C-1320.89 76.5139 -1323.79 77.6129 -1322.16 80.2199C-1321.61 81.1029 -1320.94 81.831 -1320.66 81.837C-1320.39 81.8429 -1318.14 82.241 -1315.66 82.721C-1313.19 83.202 -1307.68 83.8959 -1303.43 84.2649C-1296.68 84.8499 -1295.62 84.7179 -1295.05 83.2249ZM-1233.01 81.606C-1227.4 79.426 -1225.75 77.1559 -1228.08 74.8289C-1229.39 73.5139 -1230.35 73.736 -1236.36 76.757C-1246.93 82.06 -1244.22 85.967 -1233.01 81.606ZM-75.9124 80.9219C-73.7534 80.2009 -74.5484 77.779 -77.4124 76.351C-78.9254 75.596 -82.7484 74.877 -85.9084 74.753C-89.0684 74.628 -92.9725 74.3599 -94.5835 74.1559C-97.8865 73.7379 -100.677 76.056 -98.9504 77.783C-97.7854 78.948 -96.7234 79.1749 -87.6624 80.1969C-77.4344 81.3499 -77.2314 81.3629 -75.9124 80.9219ZM-596.662 78.508C-588.372 75.246 -585.984 73.1929 -587.855 70.9389C-589.325 69.1679 -592.205 69.824 -600.912 73.914C-607.765 77.133 -609.066 78.8549 -605.912 80.5299C-604.662 81.1939 -602.019 80.617 -596.662 78.508ZM-1346.36 79.3119C-1345.28 76.5159 -1348.36 74.8699 -1355.99 74.1549C-1364.77 73.3319 -1367.04 73.6579 -1367.45 75.8019C-1367.8 77.6409 -1362.99 79.1199 -1353.06 80.2199C-1348 80.7799 -1346.86 80.6249 -1346.36 79.3119ZM-120.52 75.002C-119.467 74.723 -119.057 73.8779 -119.377 72.6509C-119.899 70.6579 -120.835 70.2239 -126.662 69.2759C-137.349 67.5379 -137.397 67.538 -138.079 69.316C-138.871 71.379 -137.039 72.6249 -130.662 74.3589C-126.064 75.6089 -123.431 75.776 -120.52 75.002ZM62.8376 72.9019C65.2975 72.4089 72.4046 70.121 78.0876 67.992C82.6976 66.265 83.8646 63.2899 80.3686 62.1809C78.7546 61.6679 69.6975 64.2689 62.3376 67.3589C61.5125 67.7049 60.4286 67.8929 59.9296 67.7769C58.6646 67.4819 57.4226 69.729 58.0076 71.253C58.6196 72.848 60.2766 73.4139 62.8376 72.9019ZM-1201.21 68.695C-1195.19 65.865 -1193.51 64.2279 -1194.36 62.0119C-1195.15 59.9519 -1197.11 60.368 -1204.75 64.216C-1209.87 66.796 -1211.7 68.226 -1211.46 69.466C-1210.98 71.976 -1207.67 71.726 -1201.21 68.695ZM-1398.06 68.2669C-1397.1 65.7609 -1398.31 64.9849 -1406.74 62.7099C-1415.38 60.3799 -1417.66 60.5049 -1417.25 63.2879C-1417.02 64.8249 -1412.33 67.1869 -1407.66 68.1099C-1399.6 69.7059 -1398.62 69.7219 -1398.06 68.2669ZM-765.186 67.0519C-763.694 65.5599 -763.699 65.288 -765.248 63.576C-766.173 62.554 -767.319 61.9589 -767.797 62.2539C-768.272 62.5479 -768.662 62.393 -768.662 61.908C-768.662 61.09 -772.932 58.9259 -781.816 55.2409C-785.024 53.9099 -785.539 53.9049 -786.035 55.1979C-787.123 58.0339 -785.391 59.6749 -776.588 64.1559C-771.707 66.6389 -767.509 68.6709 -767.259 68.6709C-767.009 68.6709 -766.076 67.9429 -765.186 67.0519ZM-558.162 64.5009C-554.728 63.3429 -546.885 60.0229 -544.662 58.7869C-543.837 58.3279 -543.162 57.1019 -543.162 56.0619C-543.162 54.5949 -543.834 54.2039 -546.162 54.3189C-547.812 54.4009 -550.512 55.0379 -552.162 55.7349C-553.812 56.4329 -555.402 57.0409 -555.694 57.0869C-555.987 57.1329 -558.125 58.0269 -560.444 59.0729C-563.664 60.5249 -564.662 61.5299 -564.662 63.3229C-564.662 65.9179 -563.167 66.1889 -558.162 64.5009ZM-162.311 57.2C-161.378 54.767 -164.257 52.9239 -171.598 51.2539C-179.797 49.3889 -182.304 49.282 -183.216 50.758C-184.267 52.458 -182.525 53.5779 -174.718 56.2189C-166.407 59.0309 -163.115 59.291 -162.311 57.2ZM-1159.66 51.1409C-1150.16 46.1939 -1148.41 44.4699 -1150.68 42.2659C-1151.97 41.0069 -1152.92 41.1969 -1158.16 43.7669C-1169.21 49.1859 -1173.12 52.039 -1172.33 54.107C-1171.4 56.525 -1168.87 55.9319 -1159.66 51.1409ZM116.122 51.9789C125.672 47.1489 127.586 45.9789 128.44 44.4529C129.34 42.8449 127.853 40.9909 125.757 41.1099C124.191 41.1979 114.046 45.9679 112.673 47.2609C112.033 47.8639 110.12 48.9329 108.423 49.6359C106.582 50.3979 105.338 51.6439 105.338 52.7249C105.338 55.3049 110.215 54.9669 116.122 51.9789ZM-1444.19 51.8659C-1442.55 50.2279 -1444.15 47.575 -1448.21 45.195C-1453.83 41.905 -1459.66 40.7269 -1459.66 42.8849C-1459.66 44.3889 -1456.63 47.6709 -1455.24 47.6709C-1454.82 47.6709 -1453.05 48.6839 -1451.32 49.9209C-1448.24 52.1159 -1445.26 52.9309 -1444.19 51.8659ZM-809.159 49.664C-808.816 49.11 -809.126 48.485 -809.849 48.274C-810.572 48.064 -813.188 47.194 -815.662 46.342C-826.135 42.737 -831.662 42.1589 -831.662 44.6709C-831.662 45.7399 -829.465 46.5579 -820.662 48.7659C-812.083 50.9179 -810.033 51.078 -809.159 49.664ZM-509.238 44.8909C-501.012 42.0669 -498.213 39.7199 -500.428 37.5049C-501.388 36.5449 -502.661 36.6299 -506.405 37.9069C-519.368 42.3279 -521.088 43.397 -519.962 46.33C-519.265 48.149 -518.381 48.0299 -509.238 44.8909ZM-850.721 38.7069C-848.425 37.2879 -850.596 33.9159 -854.951 32.1359C-862.008 29.2509 -865.457 28.7199 -866.781 30.3139C-868.203 32.0279 -866.451 33.613 -859.662 36.753C-854.094 39.328 -852.345 39.7109 -850.721 38.7069ZM169.332 34.6869C177.568 30.8449 180.835 28.284 179.747 26.524C178.721 24.864 174.218 25.709 168.067 28.717C159.526 32.893 157.092 34.8669 157.896 36.9619C158.812 39.3499 159.727 39.1679 169.332 34.6869ZM-217.912 36.1099C-216.018 34.0569 -216.388 33.0159 -219.412 31.8859C-220.925 31.3209 -223.062 30.518 -224.162 30.101C-225.262 29.685 -226.387 29.2939 -226.662 29.2329C-226.937 29.1729 -229.342 28.5009 -232.006 27.7409C-236.111 26.5689 -236.98 26.568 -237.699 27.731C-238.959 29.769 -237.162 31.3399 -230.886 33.6879C-227.81 34.8389 -224.833 36.0659 -224.27 36.4129C-222.329 37.6129 -219.159 37.4619 -217.912 36.1099ZM-1121.76 35.5839C-1120.44 35.0559 -1118.32 34.5379 -1117.05 34.4329C-1113.67 34.1519 -1110.23 31.247 -1110.98 29.299C-1111.32 28.404 -1112.33 27.6709 -1113.23 27.6709C-1116.45 27.6709 -1125.64 30.832 -1127.88 32.711C-1129.83 34.353 -1129.95 34.7759 -1128.66 35.6349C-1126.83 36.8619 -1124.92 36.8469 -1121.76 35.5839ZM-1482.66 34.7929C-1482.66 32.8339 -1484.63 30.698 -1486.86 30.243C-1487.58 30.098 -1489.51 29.384 -1491.16 28.658C-1492.81 27.933 -1494.39 27.2939 -1494.66 27.2389C-1494.94 27.1849 -1495.66 26.8259 -1496.26 26.4419C-1496.86 26.0579 -1499.16 25.4559 -1501.36 25.1029C-1504.52 24.5989 -1505.5 24.803 -1505.98 26.065C-1506.78 28.136 -1503.98 29.9539 -1494.2 33.7189C-1485.19 37.1909 -1482.66 37.4249 -1482.66 34.7929ZM-447.162 23.5149C-443.312 21.8569 -438.907 19.983 -437.373 19.352C-433.883 17.914 -433.979 14.338 -437.521 13.837C-439.9 13.501 -451.231 18.4999 -455.431 21.7389C-457.506 23.3389 -457.564 23.626 -456.11 25.08C-455.235 25.955 -454.439 26.639 -454.341 26.601C-454.242 26.562 -451.012 25.1729 -447.162 23.5149ZM-897.406 25.446C-896.501 23.089 -897.812 22.081 -904.162 20.242C-907.463 19.286 -910.983 18.067 -911.987 17.533C-914.801 16.033 -920.482 15.5709 -921.229 16.7799C-922.233 18.4039 -919.854 20.208 -912.89 23.106C-904.842 26.454 -898.179 27.461 -897.406 25.446ZM213.338 21.2089C228.168 17.2629 230.338 16.407 230.338 14.508C230.338 13.463 229.662 12.3489 228.837 12.0319C227.402 11.4809 214.473 14.2019 211.338 15.7139C210.513 16.1119 208.59 17.0219 207.065 17.7359C201.479 20.3499 206.376 23.0619 213.338 21.2089ZM-273.662 20.6839C-270.177 18.4629 -274.798 15.6349 -287.431 12.2589C-292.077 11.017 -292.88 11.032 -294.23 12.382C-295.605 13.757 -295.578 14.038 -293.962 15.139C-292.206 16.335 -277.377 21.6859 -275.903 21.6559C-275.496 21.6469 -274.487 21.2099 -273.662 20.6839ZM-1536.49 17.993C-1537.07 16.903 -1541.21 14.135 -1545.68 11.841C-1555.82 6.64598 -1559.08 6.34794 -1557.94 10.7229C-1557.27 13.2639 -1546.58 18.477 -1540.3 19.321C-1535.67 19.943 -1535.48 19.878 -1536.49 17.993ZM-1063.16 14.9959C-1051.67 12.0419 -1049.7 10.8449 -1052.38 8.43595C-1053.78 7.18195 -1055.03 7.01993 -1058.16 7.68693C-1066.83 9.53293 -1071.12 10.826 -1073.77 12.393C-1076 13.712 -1076.35 14.384 -1075.57 15.851C-1074.39 18.057 -1075.32 18.1209 -1063.16 14.9959ZM-399.162 11.841C-398.062 11.621 -394.8 10.5609 -391.912 9.48392C-388.031 8.03693 -386.662 7.01591 -386.662 5.56791C-386.662 2.37291 -389.295 2.26899 -397.203 5.15299C-405.207 8.07299 -405.989 8.65398 -405.084 11.013C-404.516 12.493 -403.283 12.666 -399.162 11.841ZM-1027.16 12.191C-1026.61 12.013 -1023.69 11.129 -1020.66 10.226C-1012.09 7.66499 -1009.66 6.53491 -1009.66 5.09892C-1009.66 2.54292 -1012.76 1.88694 -1018.18 3.30094C-1024.78 5.02494 -1030.97 7.58291 -1031.82 8.94291C-1033.4 11.4649 -1030.72 13.338 -1027.16 12.191ZM-958.871 10.4229C-956.909 8.05889 -959.362 6.80891 -970.597 4.44291C-978.01 2.88091 -981.002 2.60996 -981.817 3.42496C-983.823 5.43196 -981.854 7.53599 -976.464 9.14799C-968.141 11.637 -960.347 12.2019 -958.871 10.4229ZM266.838 8.57792C269.038 8.20492 273.156 7.62591 275.99 7.29191C282.592 6.51191 284.005 5.93896 284.005 4.03996C284.005 1.34196 280.137 0.898994 269.084 2.32999C256.902 3.908 253.338 4.98289 253.338 7.0789C253.338 9.69289 257.518 10.1569 266.838 8.57792ZM-1634.16 8.01688C-1628.35 6.25488 -1627.46 5.61099 -1628.52 3.90299C-1629.11 2.94299 -1630.54 2.88992 -1634.69 3.67692C-1640.73 4.82191 -1642.21 5.80692 -1641.33 8.10392C-1640.61 9.95992 -1640.57 9.95889 -1634.16 8.01688ZM326.743 7.78996C329.791 7.30695 330.723 6.67693 330.987 4.92094C331.38 2.30794 332.196 2.44389 317.338 2.64689C305.613 2.80789 302.522 3.73395 304.27 6.56095C305.221 8.09995 319.766 8.89496 326.743 7.78996ZM-332.162 7.90189C-327.195 7.1349 -325.851 6.59199 -326.028 5.42399C-326.435 2.74399 -327.762 1.95589 -331.883 1.94889C-334.236 1.94489 -339.618 1.62688 -343.842 1.24088C-350.877 0.597885 -351.611 0.705971 -352.586 2.52897C-353.528 4.28797 -353.219 4.66196 -349.929 5.74796C-345.81 7.10696 -335.281 8.3839 -332.162 7.90189ZM-1581.41 7.95695C-1579.5 7.48495 -1579.03 4.18295 -1580.71 3.13895C-1581.66 2.55196 -1591.68 1.70094 -1602.16 1.31693C-1605.54 1.19393 -1606.21 1.5019 -1606.47 3.3079C-1606.73 5.1209 -1606.04 5.60793 -1601.97 6.51994C-1596.52 7.73694 -1584.05 8.60895 -1581.41 7.95695Z" fill="black"/>
</svg>
