<svg width="428" height="788" viewBox="0 0 428 788" fill="none" xmlns="http://www.w3.org/2000/svg">
<path fill-rule="evenodd" clip-rule="evenodd" d="M56.881 669.706C55.958 669.876 54.7427 668.993 54.9167 668.279C55.0053 667.915 56.2226 665.996 57.6224 664.015C59.0223 662.033 60.5939 659.709 61.1157 658.848C61.6368 657.988 62.5678 657.114 63.1844 656.906C64.2036 656.562 64.3291 656.621 64.5641 657.556C64.7641 658.355 63.9954 659.821 61.1357 664.093C59.108 667.122 57.1932 669.648 56.881 669.706ZM43.2173 685.171C41.3162 686.484 40.4016 686.836 39.7875 686.493C38.4147 685.724 38.8149 685.051 42.2282 682.382C45.235 680.031 47.3456 679.17 47.8434 680.092C48.2094 680.77 45.8715 683.337 43.2173 685.171ZM422.675 170.033C421.147 171.359 419.571 171.678 419.075 170.76C418.659 169.989 424.105 164.132 425.699 163.637C426.122 163.505 426.686 163.657 426.952 163.975C427.509 164.644 425.331 167.727 422.675 170.033ZM241.366 414.865C238.383 417.922 236.654 418.993 235.63 418.42C234.602 417.844 235.055 416.808 237.213 414.796C238.149 413.925 239.467 412.645 240.143 411.951C240.818 411.257 241.997 410.441 242.761 410.137C243.879 409.693 244.21 409.749 244.449 410.421C244.775 411.341 244.702 411.446 241.366 414.865ZM253.298 396.691C251.763 396.866 251.691 395.213 253.119 392.591C253.807 391.328 254.85 388.878 255.436 387.148C256.802 383.122 258.401 381.884 258.864 384.495C259.136 386.022 258.324 389.087 256.825 392.195C255.14 395.687 254.456 396.559 253.298 396.691ZM428.678 158.15C427.196 157.889 427.206 156.443 428.709 153.874C429.46 152.589 430.747 150.392 431.568 148.991C433.243 146.135 434.588 145.257 435.287 146.563C435.523 147.005 435.653 147.458 435.575 147.57C435.497 147.681 435.016 148.68 434.506 149.789C433.996 150.899 432.692 153.272 431.61 155.063C429.891 157.906 429.519 158.298 428.678 158.15ZM409.73 182.516C407.101 184.205 405.592 184.292 405.226 182.776C405.02 181.919 405.4 181.594 408.529 179.953C414.022 177.073 414.989 179.138 409.73 182.516ZM69.6243 644.426C68.6652 645.106 67.8067 644.177 68.004 642.674C68.1079 641.879 68.9064 640.171 69.7784 638.878C70.6501 637.584 71.6757 635.957 72.0568 635.263C72.8383 633.838 74.7031 633.308 74.9745 634.434C75.1576 635.193 74.9481 635.674 72.748 639.55C70.2642 643.926 70.2105 644.01 69.6243 644.426ZM221.462 435.857C217.556 438.345 215.929 438.78 215.463 437.465C215.096 436.431 216.237 435.446 220.638 433.001C224.102 431.076 225.261 430.991 225.09 432.673C225.022 433.34 223.986 434.25 221.462 435.857ZM441.982 136.672C440.406 136.395 440.568 134.752 442.487 131.523C444.694 127.81 445.506 126.987 446.594 127.363C447.527 127.685 446.78 129.982 444.361 134.223C443.128 136.384 442.722 136.803 441.982 136.672ZM80.0548 625.119C79.62 625.468 79.1186 625.419 78.6594 624.982C77.9141 624.271 77.9933 623.787 79.2771 621.221C81.6319 616.515 81.646 616.496 82.6479 616.672C83.8106 616.876 83.8344 617.922 82.7435 620.906C81.9568 623.057 81.2589 624.151 80.0548 625.119ZM25.2625 697.812C24.3178 698.67 21.1992 700.931 18.5705 702.663C16.4381 704.069 14.754 703.784 15.2807 702.109C15.5234 701.335 19.3558 698.374 22.9103 696.214C23.3085 695.972 23.7116 695.586 23.8059 695.358C24.0443 694.778 25.4222 694.849 25.9375 695.467C26.4769 696.114 26.2454 696.918 25.2625 697.812ZM394.572 191.957C391.528 193.648 390.297 193.905 389.547 193.006C388.851 192.171 389.613 191.494 393.592 189.413C396.26 188.018 397.441 187.649 397.93 188.057C398.92 188.883 397.834 190.144 394.572 191.957ZM452.186 113.238C450.774 112.99 450.78 112.31 452.23 108.37C453.716 104.333 454.441 103.455 455.576 104.319C456.203 104.797 455.889 107.268 454.935 109.364C453.288 112.986 453.006 113.382 452.186 113.238ZM265.786 365.668C264.675 365.887 264.554 365.817 264.237 364.766C264.048 364.139 264.116 363.531 264.389 363.415C264.662 363.299 264.706 363.104 264.488 362.982C264.119 362.776 264.397 360.525 265.344 356.048C265.686 354.431 265.835 354.224 266.564 354.352C268.162 354.633 268.394 355.738 267.828 360.384C267.515 362.96 267.198 365.148 267.125 365.248C267.051 365.348 266.449 365.537 265.786 365.668ZM203.84 447.699C202.31 448.778 198.51 451.072 197.3 451.648C196.85 451.862 196.1 451.822 195.631 451.56C194.969 451.19 194.99 450.823 195.726 449.922C196.247 449.284 197.327 448.367 198.126 447.883C198.925 447.401 199.666 446.919 199.773 446.814C199.88 446.709 200.911 446.08 202.063 445.418C203.664 444.498 204.41 444.353 205.218 444.806C206.388 445.46 206.071 446.126 203.84 447.699ZM84.3015 603.939C82.9305 603.698 82.9451 602.083 84.3479 598.73C85.9148 594.985 86.6028 593.957 87.5361 593.965C88.6112 593.975 88.6045 594.953 87.5026 598.737C86.3298 602.765 85.48 604.145 84.3015 603.939ZM374.456 204.122C369.434 206.669 368.145 206.931 367.817 205.47C367.629 204.635 367.994 204.304 370.691 202.861C376.379 199.815 378.813 198.974 379.512 199.813C380.33 200.793 379.32 201.654 374.456 204.122ZM0.181672 713.813C-4.80045 716.409 -5.89002 716.878 -6.82881 716.834C-7.81808 716.788 -8.21727 715.726 -7.54809 714.919C-7.04854 714.316 -1.91874 711.468 -0.932588 711.246C-0.472779 711.142 0.570962 710.648 1.38626 710.147C2.27045 709.604 3.19751 709.422 3.68489 709.695C4.84809 710.345 3.2635 712.208 0.181672 713.813ZM458.339 90.6787C457.119 90.9201 456.392 89.6127 456.512 87.3906C456.677 84.3188 457.86 81.6907 458.833 82.2351C459.511 82.6144 460.1 84.6539 459.692 85.209C459.568 85.3775 459.506 86.3379 459.554 87.3428C459.64 89.1252 459.131 90.5224 458.339 90.6787ZM270.86 343.722C270.509 343.719 270.319 343.437 270.436 343.095C270.553 342.754 270.929 341.49 271.272 340.286C272.722 335.195 274.085 332.842 275.217 333.475C275.699 333.745 275.423 334.829 273.833 338.901C272.284 342.87 271.754 343.729 270.86 343.722ZM180.632 462.29C176.943 464.862 175.063 465.388 174.715 463.945C174.564 463.319 174.976 462.832 176.651 461.659C182.451 457.598 183.438 457.181 184.43 458.37C185.045 459.107 184.732 459.43 180.632 462.29ZM278.125 324.36C276.811 324.919 275.928 323.202 276.404 321.013C277.176 317.467 277.95 315.956 279.057 315.829C280.248 315.694 280.448 316.793 279.87 320.296C279.396 323.169 279.054 323.965 278.125 324.36ZM-23.2404 730.701C-27.3912 733.02 -29.5052 733.679 -29.9792 732.801C-30.4263 731.972 -28.723 730.387 -25.5605 728.689C-21.1695 726.332 -19.5647 725.858 -18.8563 726.707C-18.0487 727.676 -18.3994 727.995 -23.2404 730.701ZM91.1209 576.415C89.6391 576.653 89.2784 576.243 89.657 574.75C89.8466 574.004 90.1121 572.948 90.2471 572.403C90.3826 571.859 90.5367 571.311 90.59 571.186C90.6436 571.061 91.0469 569.931 91.4866 568.675C92.1637 566.74 92.4185 566.393 93.154 566.399C94.4428 566.41 94.6233 567.524 93.8389 570.623C93.4545 572.142 93.1335 573.64 93.1246 573.952C93.0956 575.03 92.0967 576.258 91.1209 576.415ZM356.312 215.333C355.686 215.727 354.83 216.443 354.41 216.923C353.289 218.205 350.969 218.845 350.311 218.055C350.008 217.692 349.975 217.103 350.238 216.745C351.185 215.458 355.308 212.586 356.812 212.166C358.127 211.799 358.351 211.861 358.361 212.59C358.377 213.63 357.809 214.39 356.312 215.333ZM461.939 71.009C461.056 70.5148 460.672 69.1885 461.121 68.184C461.266 67.8619 461.512 66.909 461.669 66.067C461.827 65.2252 462.001 64.435 462.057 64.3113C462.114 64.1879 462.163 63.8106 462.166 63.4733C462.17 63.1356 462.573 62.0669 463.061 61.0977C463.76 59.7107 464.141 59.3691 464.853 59.4941C466.02 59.699 466.017 61.2755 464.843 66.1304C463.761 70.6062 463.126 71.6729 461.939 71.009ZM152.765 481.688C150.887 482.807 148.748 484.093 148.013 484.547C146.34 485.578 144.756 484.637 145.57 483.097C146.117 482.062 151.699 478.798 154.393 477.937C155.723 477.512 155.87 477.562 156.098 478.509C156.236 479.079 156.31 479.57 156.264 479.599C156.218 479.629 154.643 480.568 152.765 481.688ZM285.856 302.371C284.528 302.138 284.458 301.361 285.494 298.361C286.032 296.802 286.516 295.088 286.57 294.552C286.72 293.05 288.18 290.665 288.945 290.672C289.972 290.68 290.087 292.085 289.348 295.598C288.494 299.656 286.992 302.571 285.856 302.371ZM-42.24 744.874C-48.3741 749.801 -49.3972 750.452 -50.2534 749.973C-50.7245 749.709 -51.0283 749.158 -50.929 748.749C-50.756 748.037 -45.7324 743.56 -44.1301 742.69C-43.7084 742.461 -42.7334 741.922 -41.9637 741.493C-39.1447 739.922 -39.36 742.562 -42.24 744.874ZM100.538 550.26C98.513 551.092 98.5951 548.533 100.783 542.636C101.587 540.468 101.83 540.151 102.835 539.952C103.859 539.75 103.977 539.832 103.999 540.755C104.023 541.758 102.081 549.029 101.634 549.61C101.511 549.771 101.017 550.063 100.538 550.26ZM470.172 45.2753C469.852 44.7675 469.819 42.4172 470.098 40.0518C470.732 34.6949 471.556 33.3158 473.193 34.8762C474.143 35.7824 473.353 41.3686 471.888 44.0903C470.81 46.0953 470.725 46.1537 470.172 45.2753ZM329.821 233.541C325.115 237.385 323.997 237.87 323.698 236.192C323.542 235.318 323.836 234.778 325.058 233.694C328.435 230.7 330.277 229.313 331.763 228.649C333.013 228.09 333.418 228.12 333.849 228.803C334.497 229.831 334.8 229.475 329.821 233.541ZM133.406 497.912C132.984 498.295 131.548 499.331 130.214 500.212C128.422 501.397 127.56 501.686 126.907 501.321C125.466 500.515 126.193 499.437 129.815 497.007C133.482 494.547 133.974 494.381 134.772 495.338C135.272 495.938 134.988 496.474 133.406 497.912ZM317.985 247.21C317.743 247.385 316.485 248.33 315.19 249.31C311.517 252.089 310.296 252.772 309.648 252.41C308.496 251.765 309.111 250.361 311.338 248.556C314.055 246.353 317.024 244.529 317.888 244.531C319.49 244.534 319.546 246.079 317.985 247.21ZM297.133 274.036C295.491 274.223 295.647 272.929 297.88 267.845C299.353 264.49 300.109 263.228 300.716 263.108C302.21 262.812 302.581 264.13 301.725 266.689C300.403 270.64 298.368 273.895 297.133 274.036ZM-63.6457 763.053C-64.46 763.838 -65.9303 765.336 -66.9132 766.384C-69.2036 768.824 -69.8769 769.243 -70.733 768.764C-71.9494 768.084 -71.0133 766.427 -67.1222 762.374C-62.8333 757.908 -61.3021 756.755 -60.3571 757.284C-59.1786 757.943 -60.1969 759.73 -63.6457 763.053ZM494.357 3.75381C491.855 5.63153 491.305 5.82216 490.845 4.97003C490.586 4.49067 490.983 3.90537 492.556 2.4474C494.846 0.323768 495.723 -0.0167963 496.5 0.914821C497.128 1.66734 497.115 1.68346 494.357 3.75381ZM-81.593 786.778C-82.7058 787.873 -83.2636 788.086 -84.1328 787.749C-85.4263 787.246 -85.6046 787.607 -81.1498 781.724C-77.634 777.083 -76.3088 776.082 -75.5475 777.493C-75.1329 778.261 -79.0459 784.27 -81.593 786.778ZM111.954 523.674C110.15 525.464 109.51 525.864 109.036 525.499C107.947 524.66 107.981 523.932 109.188 522.284C109.878 521.343 111.315 519.114 112.381 517.33C114.157 514.358 114.421 514.092 115.53 514.163C116.599 514.23 116.677 514.448 116.201 516.036C115.604 518.023 113.088 522.55 111.954 523.674ZM478.839 24.8042C478.066 25.4475 476.437 24.8055 476.462 23.8677C476.476 23.3403 479.034 19.1261 481.939 14.8429C482.876 13.4621 483.211 13.2735 484.101 13.6259C484.994 13.9802 485.013 14.3759 484.228 16.2333C483.177 18.7147 479.908 23.9156 478.839 24.8042Z" fill="black" fill-opacity="0.7"/>
</svg>
