<svg width="308" height="316" viewBox="0 0 308 316" fill="none" xmlns="http://www.w3.org/2000/svg">
<path fill-rule="evenodd" clip-rule="evenodd" d="M334.108 179.67C333.08 181.083 333.85 183.933 335.353 184.276C336.119 184.451 340.727 184.1 345.596 183.496C350.465 182.893 356.123 182.304 358.171 182.188C360.218 182.072 362.605 181.274 363.474 180.415C364.91 178.994 364.891 178.728 363.274 177.494C361.894 176.441 358.495 176.435 348.119 177.468C340.762 178.201 334.456 179.192 334.108 179.67ZM294.028 189.026C290.061 191.077 288.689 192.313 288.881 193.662C289.311 196.676 290.91 196.6 298.629 193.195C305.43 190.196 308.687 187.386 307.296 185.718C306.272 184.491 299.567 186.163 294.028 189.026ZM1571.53 5.71327C1567.83 7.1201 1566.02 9.50885 1567.4 11.1689C1568.56 12.5636 1583.95 8.56017 1586.11 6.29975C1586.69 5.69852 1586.83 4.60623 1586.42 3.87163C1585.56 2.33057 1577.98 3.26801 1571.53 5.71327ZM963.635 94.4692C955.499 96.7979 952.128 98.7719 952.449 101.021C952.771 103.279 955.105 103.436 960.608 101.573C962.993 100.765 966.454 99.6733 968.3 99.1472C970.145 98.6213 972.607 97.3517 973.772 96.3269C975.475 94.8284 975.62 94.2168 974.511 93.2113C972.994 91.8358 972.736 91.8656 963.635 94.4692ZM1007.6 90.4708C1006.1 92.9177 1009.21 94.5162 1015.33 94.437C1018.28 94.3982 1023.78 94.8182 1027.55 95.3693C1036.31 96.6508 1039.9 95.0442 1035.24 91.9253C1032.52 90.1009 1026.02 88.7404 1018.91 88.5059C1010.93 88.2432 1008.73 88.624 1007.6 90.4708ZM1598.91 6.14832C1598.28 8.89561 1601.07 10.1701 1607.14 9.91719C1610.18 9.79182 1615.38 9.57168 1618.69 9.43023C1625.45 9.14085 1628.16 7.64409 1626.18 5.29265C1625.51 4.4962 1624.74 3.87078 1624.47 3.90369C1624.2 3.9366 1621.91 3.86039 1619.39 3.73482C1616.88 3.60826 1611.33 3.69877 1607.07 3.9341C1600.3 4.30847 1599.27 4.58948 1598.91 6.14832ZM1537.72 16.5146C1532.48 19.4647 1531.17 21.9454 1533.8 23.9203C1535.29 25.0364 1536.2 24.6816 1541.73 20.8409C1551.44 14.099 1548.21 10.6131 1537.72 16.5146ZM392.33 180.643C390.294 181.662 391.423 183.947 394.46 184.956C396.065 185.49 399.951 185.662 403.097 185.338C406.243 185.016 410.145 184.729 411.769 184.704C415.098 184.651 417.534 181.962 415.58 180.496C414.262 179.507 413.179 179.433 404.064 179.701C393.776 180.004 393.573 180.02 392.33 180.643ZM908.199 109.472C900.453 113.872 898.379 116.242 900.549 118.209C902.255 119.754 905.013 118.698 913.055 113.419C919.385 109.264 920.429 107.376 917.07 106.163C915.739 105.682 913.204 106.627 908.199 109.472ZM1650.26 2.77398C1649.59 5.69351 1652.87 6.88848 1660.53 6.51793C1669.33 6.09284 1671.53 5.44989 1671.64 3.26905C1671.73 1.39849 1666.75 0.614541 1656.77 0.927722C1651.69 1.08783 1650.57 1.40308 1650.26 2.77398ZM437.326 180.202C436.324 180.627 436.037 181.522 436.527 182.691C437.325 184.591 438.313 184.888 444.216 185.003C455.041 185.214 455.089 185.207 455.513 183.351C456.005 181.197 454.016 180.222 447.458 179.406C442.729 178.818 440.099 179.025 437.326 180.202ZM256.104 208.183C253.738 209.018 247.026 212.287 241.7 215.197C237.38 217.558 236.645 220.668 240.263 221.272C241.933 221.552 250.532 217.698 257.382 213.599C258.15 213.14 259.196 212.801 259.707 212.845C261.001 212.959 261.913 210.559 261.118 209.133C260.287 207.64 258.567 207.314 256.104 208.183ZM1508.07 33.7874C1502.51 37.4397 1501.08 39.2976 1502.24 41.3711C1503.31 43.2989 1505.19 42.6103 1512.21 37.7214C1516.92 34.4438 1518.52 32.7699 1518.11 31.5761C1517.28 29.1595 1514.03 29.8752 1508.07 33.7874ZM1703.01 6.40444C1702.41 9.02107 1703.72 9.61808 1712.39 10.6796C1721.26 11.7662 1723.5 11.3205 1722.71 8.62302C1722.27 7.13335 1717.28 5.45822 1712.54 5.20346C1704.33 4.76216 1703.36 4.88507 1703.01 6.40444ZM1076.65 97.0071C1075.38 98.6949 1075.43 98.9634 1077.2 100.439C1078.26 101.32 1079.48 101.748 1079.91 101.388C1080.34 101.03 1080.75 101.128 1080.82 101.608C1080.93 102.418 1085.47 103.958 1094.78 106.351C1098.15 107.215 1098.66 107.147 1098.96 105.797C1099.64 102.836 1097.7 101.456 1088.35 98.2635C1083.16 96.4949 1078.72 95.0761 1078.47 95.1115C1078.23 95.1468 1077.41 95.9993 1076.65 97.0071ZM872.063 128.777C868.827 130.408 861.532 134.803 859.506 136.34C858.754 136.911 858.259 138.22 858.406 139.25C858.613 140.702 859.334 140.994 861.622 140.552C863.244 140.238 865.827 139.226 867.362 138.302C868.897 137.378 870.385 136.552 870.667 136.465C870.951 136.378 872.941 135.191 875.089 133.828C878.072 131.936 878.918 130.8 878.665 129.025C878.298 126.456 876.78 126.399 872.063 128.777ZM481.213 191.922C480.633 194.463 483.744 195.881 491.247 196.497C499.627 197.185 502.124 196.937 502.818 195.347C503.619 193.515 501.736 192.653 493.634 191.141C485.009 189.531 481.713 189.739 481.213 191.922ZM1469.42 57.0348C1460.71 63.2749 1459.23 65.2279 1461.78 67.0897C1463.24 68.1532 1464.15 67.8311 1468.98 64.5468C1479.15 57.6212 1482.61 54.2448 1481.54 52.3097C1480.28 50.047 1477.86 50.9914 1469.42 57.0348ZM206.31 236.423C197.538 242.553 195.808 243.982 195.178 245.613C194.514 247.332 196.248 248.958 198.307 248.544C199.845 248.235 209.214 242.08 210.391 240.606C210.939 239.919 212.682 238.59 214.262 237.655C215.977 236.64 217.033 235.231 216.88 234.161C216.516 231.607 211.735 232.63 206.31 236.423ZM1750.99 16.1245C1749.6 17.9776 1751.56 20.3782 1755.91 22.1606C1761.94 24.6246 1767.88 24.9663 1767.58 22.83C1767.36 21.341 1763.9 18.5205 1762.52 18.7169C1762.1 18.7765 1760.21 18.023 1758.32 17.0435C1754.96 15.3051 1751.9 14.9199 1750.99 16.1245ZM1122.64 108.009C1122.38 108.606 1122.77 109.181 1123.52 109.288C1124.26 109.394 1126.98 109.885 1129.55 110.379C1140.42 112.469 1145.98 112.26 1145.62 109.773C1145.47 108.715 1143.18 108.216 1134.15 107.273C1125.36 106.355 1123.3 106.486 1122.64 108.009ZM826.4 155.101C818.656 159.059 816.216 161.778 818.722 163.658C819.808 164.472 821.056 164.208 824.582 162.415C836.791 156.207 838.342 154.906 836.813 152.162C835.866 150.459 835.008 150.702 826.4 155.101ZM1165.33 112.985C1163.26 114.714 1165.88 117.746 1170.45 118.893C1177.84 120.752 1181.33 120.79 1182.42 119.025C1183.58 117.128 1181.62 115.806 1174.46 113.657C1168.58 111.894 1166.8 111.762 1165.33 112.985ZM156.076 261.058C148.465 266.025 145.593 269.021 146.918 270.61C148.169 272.108 152.507 270.636 158.171 266.789C166.037 261.448 168.168 259.15 167.076 257.19C165.832 254.955 164.952 255.265 156.076 261.058ZM539.236 204.947C537.651 207.247 538.164 208.225 541.317 208.917C542.895 209.262 545.124 209.755 546.272 210.013C547.42 210.269 548.589 210.497 548.869 210.519C549.15 210.539 551.626 210.865 554.371 211.241C558.6 211.821 559.46 211.699 560.008 210.447C560.967 208.251 558.967 206.95 552.422 205.512C549.214 204.807 546.094 204.013 545.487 203.749C543.396 202.835 540.279 203.432 539.236 204.947ZM1434.1 77.7897C1432.86 78.499 1430.84 79.3112 1429.6 79.5944C1426.28 80.3509 1423.29 83.7124 1424.31 85.5352C1424.77 86.3728 1425.88 86.9553 1426.77 86.8289C1429.96 86.3736 1438.61 81.9463 1440.56 79.77C1442.26 77.8682 1442.31 77.4335 1440.92 76.7644C1438.94 75.8082 1437.04 76.0931 1434.1 77.7897ZM1791.49 27.5919C1791.77 29.5312 1794.02 31.3672 1796.29 31.5029C1797.02 31.5455 1799.03 31.9789 1800.77 32.4645C1802.51 32.9492 1804.16 33.3594 1804.44 33.375C1804.72 33.3896 1805.48 33.6436 1806.13 33.9387C1806.78 34.2336 1809.14 34.5053 1811.37 34.5434C1814.56 34.5966 1815.51 34.2556 1815.81 32.9379C1816.3 30.7754 1813.28 29.3711 1803.06 27.0252C1793.65 24.8615 1791.12 24.9863 1791.49 27.5919ZM767.966 185.032C764.389 187.217 760.293 189.694 758.863 190.536C755.612 192.452 756.212 195.979 759.789 195.974C762.192 195.971 772.703 189.422 776.403 185.622C778.231 183.745 778.248 183.452 776.603 182.218C775.613 181.476 774.729 180.911 774.637 180.962C774.545 181.015 771.543 182.846 767.966 185.032ZM1213.42 119.518C1212.86 121.98 1214.3 122.792 1220.85 123.716C1224.25 124.196 1227.91 124.906 1228.98 125.292C1231.97 126.38 1237.66 126.035 1238.23 124.732C1239 122.983 1236.39 121.533 1229.08 119.648C1220.64 117.47 1213.9 117.414 1213.42 119.518ZM114.415 280.617C100.291 286.618 98.2638 287.772 98.5321 289.652C98.6797 290.686 99.5063 291.694 100.368 291.891C101.866 292.234 114.281 287.714 117.171 285.774C117.932 285.264 119.707 284.091 121.116 283.169C126.276 279.792 121.045 277.799 114.415 280.617ZM596.606 212.343C593.47 215.034 598.444 217.181 611.427 218.738C616.202 219.312 616.995 219.183 618.14 217.656C619.307 216.101 619.241 215.826 617.486 214.965C615.578 214.029 600.142 210.826 598.687 211.064C598.285 211.13 597.348 211.706 596.606 212.343ZM1847.15 36.6196C1847.88 37.6163 1852.37 39.7721 1857.12 41.4111C1867.89 45.1227 1871.16 44.9565 1869.41 40.787C1868.39 38.3653 1857.07 34.7154 1850.73 34.7673C1846.06 34.8053 1845.89 34.896 1847.15 36.6196ZM1378.99 106.449C1368.03 110.997 1366.25 112.46 1369.25 114.466C1370.81 115.51 1372.07 115.494 1375.08 114.391C1383.39 111.339 1387.45 109.454 1389.86 107.527C1391.89 105.906 1392.14 105.192 1391.15 103.85C1389.67 101.833 1390.59 101.638 1378.99 106.449ZM722.097 203.369C721.039 203.742 717.959 205.252 715.252 206.727C711.615 208.707 710.403 209.911 710.608 211.345C711.059 214.508 713.681 214.239 721.102 210.267C728.613 206.245 729.305 205.56 728.076 203.352C727.305 201.967 726.06 201.97 722.097 203.369ZM1343.75 114.311C1343.23 114.565 1340.46 115.853 1337.59 117.175C1329.47 120.921 1327.22 122.383 1327.43 123.804C1327.79 126.334 1330.95 126.546 1336.11 124.381C1342.4 121.742 1348.17 118.336 1348.82 116.869C1350.03 114.148 1347.11 112.673 1343.75 114.311ZM1276.39 125.708C1274.78 128.326 1277.39 129.217 1288.85 129.972C1296.41 130.471 1299.41 130.317 1300.1 129.395C1301.8 127.124 1299.55 125.32 1293.99 124.485C1285.4 123.197 1277.6 123.739 1276.39 125.708ZM63.2358 300.679C61.1105 301.359 57.1156 302.514 54.3572 303.244C47.9316 304.949 46.6137 305.716 46.8819 307.596C47.2631 310.267 51.1549 310.159 61.8949 307.181C73.7318 303.898 77.1082 302.331 76.8121 300.256C76.4429 297.668 72.2393 297.799 63.2358 300.679ZM1945.25 32.6985C1939.75 35.2642 1938.96 36.0266 1940.25 37.5684C1940.97 38.4349 1942.4 38.2851 1946.39 36.9201C1952.21 34.9332 1953.53 33.7497 1952.33 31.6003C1951.37 29.8635 1951.33 29.8703 1945.25 32.6985ZM4.04274 309.921C1.09353 310.83 0.259852 311.585 0.246551 313.361C0.226605 316.003 -0.60037 315.984 14.08 313.684C25.6647 311.868 28.5938 310.515 26.464 307.963C25.3052 306.574 10.7937 307.841 4.04274 309.921ZM656.325 216.733C651.516 218.194 650.262 218.921 650.602 220.053C651.384 222.648 652.809 223.241 656.889 222.666C659.219 222.337 664.592 221.892 668.829 221.677C675.884 221.32 676.595 221.109 677.303 219.167C677.987 217.293 677.628 216.966 674.218 216.356C669.948 215.592 659.344 215.815 656.325 216.733ZM1893.04 40.2093C1891.22 40.9462 1891.21 44.2826 1893.03 45.0776C1894.05 45.5245 1904.09 44.9523 1914.52 43.8516C1917.88 43.4959 1918.5 43.0968 1918.5 41.2725C1918.5 39.4412 1917.75 39.0555 1913.59 38.7283C1908.03 38.2926 1895.56 39.1913 1893.04 40.2093Z" fill="black"/>
</svg>
