<svg width="202" height="216" viewBox="0 0 202 216" fill="none" xmlns="http://www.w3.org/2000/svg">
<path d="M188.468 19.0529C183.886 24.0191 179.249 28.8527 174.764 33.9032C166.772 42.9794 158.876 52.1398 150.981 61.3002C147.516 65.2773 144.045 69.1638 141.009 73.4295C140.526 74.2291 140.216 75.1204 140.098 76.0462C139.98 76.972 140.057 77.9117 140.324 78.8048C145.111 91.0803 145.555 103.752 144.833 116.688C144.176 127.207 141.815 137.435 138.523 147.364C132.899 164.561 124.108 180.022 110.699 192.484C105.344 197.459 98.9545 201.277 91.6758 202.7C79.3171 205.071 70.8913 198.925 68.3816 186.671C66.6054 177.872 68.5387 169.404 71.4932 161.229C79.9948 137.41 93.9839 116.666 108.777 96.3666C113.273 90.1314 118.005 84.0163 122.695 77.9497C125.212 74.7677 124.728 72.9806 120.993 71.604C116.135 69.7601 111.393 70.3211 106.646 72.1573C99.6818 74.8779 93.6859 79.124 88.0528 84.0276C78.2538 92.6389 69.1441 102.021 61.3885 112.583C52.5042 124.636 43.9584 136.984 37.262 150.431C33.0572 158.968 28.381 167.264 24.2729 175.885C21.0395 182.624 18.3258 189.644 15.4187 196.496C13.175 201.708 11.167 207.039 8.63923 212.089C7.87302 213.554 5.61471 215.17 4.06206 215.097C2.50941 215.024 0.423368 212.439 0.989567 210.031C2.429 203.692 3.72947 197.318 5.91213 191.2C9.25866 182.086 13.1188 173.164 17.1663 164.319C21.2139 155.475 24.8877 147.841 29.1291 139.848C36.4898 126.126 45.277 113.306 54.8317 101.07C62.8793 90.9004 71.9908 81.6203 82.0101 73.3884C89.2555 67.4153 97.1901 62.2134 106.595 59.9131C115.999 57.6128 122.893 58.5852 129.839 64.3801C132.105 66.2697 133.669 65.158 135.233 63.3635C143.962 53.7347 152.552 44.0701 161.377 34.5256C166.297 29.1713 171.507 24.0698 176.572 18.8419C177.423 17.9625 178.075 16.824 178.872 15.8118L178.273 15.0344C175.259 16.2479 172.203 17.51 169.184 18.6329C164.165 20.4882 159.097 22.3015 154.072 24.0662C152.886 24.5458 151.607 24.7449 150.333 24.6478C149.137 24.4587 147.318 23.8126 147.027 22.8769C146.737 21.9411 146.656 19.397 147.465 18.5661C149.454 16.8059 151.708 15.3718 154.144 14.3176C166.361 8.49578 178.893 3.28932 192.358 1.1134C198.434 0.0942815 201.511 1.83584 201.606 7.97584C201.66 15.8616 201.187 23.7437 200.19 31.5693C199.284 39.7375 197.598 47.824 196.28 55.9756C196.214 56.3445 196.245 56.7976 196.136 57.215C195.468 60.1305 193.071 62.3934 190.956 62.0868C188.842 61.7801 186.726 59.4247 186.971 56.3113C187.815 45.188 188.883 34.0034 189.817 22.8736C189.845 21.706 189.781 20.5383 189.628 19.3811L188.468 19.0529ZM112.24 176.849C115.415 171.937 119.06 167.264 121.666 162.027C125.258 154.87 128.41 147.502 131.106 139.964C134.41 130.898 135.726 121.381 136.167 111.697C136.482 103.705 135.513 95.7183 133.299 88.0406C132.645 85.7645 131.382 85.9444 130.072 87.4479C128.684 88.9426 127.391 90.5238 126.203 92.182C117.506 104.996 108.719 117.816 100.21 130.707C92.5701 142.308 86.1506 154.461 82.0881 167.814C80.2196 173.864 78.5506 180.174 80.6273 186.676C81.7231 190.104 84.0383 192.036 87.7173 191.914C89.8289 191.874 91.9229 191.512 93.927 190.84C101.38 187.948 106.843 182.556 112.24 176.849Z" fill="#747171" fill-opacity="0.85"/>
</svg>
